<svg width="260" height="65" viewBox="0 0 260 65" fill="none" xmlns="http://www.w3.org/2000/svg">
<path d="M292.062 32.3771C290.609 31.8306 288.518 31.4181 287.079 31.2659C286.612 31.2135 286.824 31.3851 286.499 31.3567C285.863 31.3026 285.276 31.1496 284.623 31.1252C284.406 31.118 284.645 31.3608 284.419 31.3488C283.271 31.295 282.171 31.1305 280.943 31.0817C275.051 30.8708 269.369 31.1279 263.54 31.6364C261.563 31.8102 259.337 32.2001 257.297 32.3283C257.061 32.3428 257.182 32.145 257.135 32.1346C256.429 31.9749 256.696 32.321 256.256 32.4178C254.523 32.8005 252.486 33.0622 250.796 33.2107C250.069 33.2746 250.747 32.8166 250.044 33.1163C249.995 33.1368 250.205 33.3064 250.009 33.3534C249.564 33.4594 248.701 33.5415 248.351 33.606C247.677 33.7309 247.564 33.7449 246.92 33.8391C246.04 33.9699 245.038 34.2164 244.095 34.3154C243.894 34.3358 244.128 34.0972 243.804 34.1121C243.481 34.1269 242.639 34.2751 242.361 34.3671C242.083 34.4588 242.229 34.5954 242.184 34.639C241.816 35.0055 240.769 34.7465 240.647 34.7561C238.356 34.9487 236.413 35.5277 234.291 35.9077C232.677 36.1963 230.922 36.4419 229.385 36.7473C227.559 37.111 226.028 37.5242 224.244 37.8663C224.056 37.9026 224.229 37.6269 223.999 37.6708C221.562 38.1379 219.155 38.6713 216.77 39.353C216.532 39.4216 216.888 39.5559 216.652 39.6365C215.204 40.1249 212.967 41.0437 211.883 40.3661C210.886 40.6277 209.679 40.9422 208.828 41.3264C208.279 41.574 208.888 41.6638 208.161 41.7344C207.997 41.7507 208.159 41.51 207.916 41.5489C206.897 41.7128 205.797 42.0387 204.778 42.1772C204.57 42.205 204.585 42.0196 204.52 42.0024C203.976 41.8668 203.275 42.4748 203.108 42.5471C201.843 43.0908 200.831 43.2449 199.592 43.5571C199.304 43.6298 199.588 43.3147 199.309 43.3764C197.86 43.7004 196.405 44.087 195.005 44.5524C194.697 44.6557 195.036 44.7784 194.892 44.8378C194.255 45.0973 194.014 44.7641 193.404 45.0061C193.276 45.0566 193.394 45.2053 193.374 45.23C193.07 45.6169 192.637 45.2915 192.538 45.3075C191.288 45.499 190.595 46.1369 189.383 46.3915C189.238 46.4215 189.505 46.1244 189.1 46.2218C186.442 46.8606 183.584 47.6958 181.047 48.5804C180.637 48.7219 180.979 48.7983 180.958 48.8251C180.615 49.2494 180.227 48.916 180.088 48.9382C178.992 49.1235 178.112 49.7415 177.271 49.4529C172.832 50.8914 168.383 51.9005 164.122 53.6847C164.069 53.7063 164.227 53.8768 164.123 53.919C162.801 54.4495 162.951 54.0629 161.944 53.9596C161.689 53.9343 161.164 54.6029 161.117 54.6547C160.943 54.8457 161.257 55.0733 161.194 55.1197C160.652 55.4977 160.495 54.466 159.627 54.7413C159.601 54.7514 159.77 54.8968 159.705 54.9374C159.502 55.064 159.262 55.0614 159.07 55.1914C158.634 55.49 158.614 56.0221 157.814 55.9747C157.715 55.9674 157.665 55.3685 156.977 55.6217C156.696 55.7249 155.347 56.1592 155.02 56.3092C154.68 56.4628 154.982 56.5606 154.959 56.5768C154.098 57.1284 154.508 57.1001 154.143 57.6128C153.748 58.135 153.61 57.2567 153.372 57.2346C153.131 57.2136 152.489 57.6528 152.349 57.7778C152.205 57.9038 152.453 57.9439 152.318 58.034C151.434 58.6244 151.768 57.766 151.375 57.7574C150.454 57.7538 150.061 58.4979 149.497 58.8331C149.463 58.8531 149.428 58.8718 149.392 58.8889C149.211 58.9737 149.312 58.779 149.141 58.8265C148.468 59.0119 148.085 59.3526 147.245 59.4098C147.111 59.4191 146.382 59.2224 146.034 59.6094C145.984 59.6651 146.197 59.777 145.902 59.8917C145.44 60.069 144.674 60.2882 144.169 60.3427C143.799 60.3822 144.157 60.032 143.719 60.2107C143.523 60.2899 143.934 60.363 143.561 60.499C143.172 60.6398 142.237 60.812 141.862 60.8714C141.493 60.931 141.659 60.6959 141.627 60.6878C141.435 60.6432 140.703 60.6655 140.638 60.6752C137.503 61.1463 134.603 61.7596 131.466 61.8202C131.224 61.8246 131.374 61.6028 131.337 61.6013C130.505 61.5543 131.188 62.0883 130.614 62.3061C130.678 61.8693 130.339 61.9649 129.743 61.9407C129.455 61.9285 129.605 61.7549 129.578 61.7388C129.145 61.5002 128.857 61.8381 128.783 61.9078C128.516 62.1638 128.207 61.8795 128.023 62.0495C127.838 62.2183 128.28 62.4515 127.716 62.4615C127.554 62.31 127.963 61.8958 127.535 61.8394C125.901 61.6339 122.891 61.9371 121.581 61.9324C120.289 61.934 119.865 61.8879 119.098 61.9147C117.722 61.9583 118.244 61.6792 117.404 61.5006C116.562 61.3188 116.935 62.0787 116.804 62.231C116.674 62.3832 116.551 62.2125 116.396 62.2911C116.241 62.3697 116.56 62.4964 116.204 62.5087C115.848 62.5217 114.894 62.1771 114.787 62.0026C114.55 61.6331 115.005 61.295 114.075 61.3594C114.021 61.3633 114.18 61.5697 113.975 61.5746C112.341 61.6064 110.657 61.4677 109.025 61.4331C108.8 61.4285 108.977 61.6643 108.846 61.664C107.473 61.6583 107.996 61.3461 107.307 60.8619C107.411 61.4159 106.969 61.7008 105.944 61.5809C105.328 61.5081 105.463 61.2869 105.085 61.0724C104.972 61.0078 104.514 61.1123 104.449 60.9919C104.237 60.5987 104.692 60.2512 103.629 60.2718C103.582 60.2732 103.702 60.4894 103.542 60.4798C102.506 60.4171 102.436 60.025 101.333 59.8158C100.461 59.6509 98.8972 59.6369 97.8996 59.5043C97.8198 60.1063 96.9047 59.8085 96.599 59.3288C95.9589 59.2327 95.2745 59.0831 94.6468 59.0229C94.4307 59.0019 94.5375 59.2009 94.5072 59.2145C94.0399 59.4285 93.8384 58.9748 93.7038 58.9323C92.2369 58.4873 90.9691 58.5375 89.6126 57.9295C89.5645 57.9077 89.5747 57.4789 89.1291 57.6941C89.0999 57.7092 89.5259 58.0015 88.8563 57.866C88.189 57.7313 86.8828 57.6583 86.0074 57.2418C85.7953 57.1416 85.3147 56.6705 84.7994 56.8153C84.7304 56.8352 84.7665 56.969 84.6631 57.0121C84.3294 57.1482 84.2823 56.6967 83.8623 56.9616C83.4424 57.2262 82.683 57.3086 81.822 56.8149C81.7943 56.7998 81.6644 56.4146 81.3729 56.3395C80.9071 56.2199 80.2309 56.1019 79.7489 55.9602C79.5182 55.8922 79.7244 55.7337 79.6853 55.7185C78.1688 55.155 77.0165 54.9998 75.3425 54.5465C75.0348 54.4637 74.2604 53.9093 73.6073 53.9265C72.888 53.9426 73.2139 55.1452 71.8166 54.401C71.2505 54.0987 70.9501 52.6081 69.6633 52.8518C67.6733 51.9327 65.67 51.5053 63.7499 50.4181C63.6635 50.3694 63.5238 49.912 63.3115 49.8244C62.9959 49.6949 62.7554 49.7745 62.5256 49.6844C61.563 49.3112 60.7709 48.7848 59.8724 48.3806C59.5311 48.2262 59.5744 48.4426 59.1656 48.2555C58.7559 48.0667 58.5895 47.7271 57.9963 47.555C57.5485 47.4255 56.9234 47.6393 56.3559 47.4061C56.5499 46.9799 56.1798 46.8001 55.5784 46.3381C55.4633 46.2492 55.6757 46.1786 55.6253 46.1291C55.4223 45.925 55.1341 45.922 54.9488 45.7166C54.9037 45.6669 54.9778 45.5255 54.9454 45.477C54.6729 45.0601 53.8688 45.0198 53.7295 45.0121C53.1978 44.9831 53.1083 44.6916 52.7467 44.5895C52.3814 44.4845 52.7987 44.8636 52.3978 44.6949C51.566 44.3446 50.6004 43.7274 49.837 43.2524C49.5328 43.062 49.8538 43.0132 49.8129 42.9818C49.2182 42.5409 48.4554 42.3101 48.3497 41.7288C47.3107 42.3522 48.0333 41.3932 47.0417 40.9745C46.9636 40.9417 46.5786 41.3062 46.7998 41.5525C47.0215 41.799 47.5165 41.9413 47.8234 42.2896C47.895 42.3719 48.137 43.1154 48.1923 43.1862C48.6181 43.7398 49.1184 43.1371 49.1699 43.12C49.7447 42.9442 50.0877 43.7782 50.2372 43.9128C50.911 44.526 51.6243 44.8256 52.2167 45.3088C52.6018 45.6216 52.3892 46.0848 52.7331 46.2636C53.8806 46.8554 54.6097 46.4465 55.394 47.5617C55.5613 47.7979 55.0738 48.1712 56.1021 48.2152C56.1671 48.2185 56.9625 48.1795 57.2055 48.5844C57.236 48.6354 57.1617 48.7792 57.2149 48.8212C57.5734 49.0999 57.897 49.1169 58.3065 49.3862C58.719 49.6568 59.1983 49.9894 59.7226 50.1755C60.038 50.2879 60.5524 50.1942 60.7276 50.1936C61.2237 50.1883 61.5193 50.7045 61.8796 50.5837C62.2413 50.4619 61.9023 49.8808 62.6397 50.026C62.4942 50.4213 62.3769 50.8412 62.246 51.2454C63.7224 51.8815 65.2519 52.3728 66.7437 52.9825C66.929 53.0586 66.6554 53.1936 66.8523 53.2806C67.6846 53.6462 68.4837 53.779 69.3466 54.1671C70.0118 54.4673 70.6814 54.9632 71.383 55.2732C71.9812 54.9744 72.9997 55.4978 73.7913 55.7129C74.0688 55.7888 74.0908 55.6607 74.2978 55.6846C75.0776 55.7763 74.6035 56.0683 74.784 56.1973C75.5624 56.7472 75.9276 55.8546 76.9384 56.1925C76.9919 56.2103 77.5031 56.9023 77.5859 56.9602C78.1064 57.334 77.7333 56.8183 78.1071 56.8906C78.7899 57.0214 79.284 57.0384 80.023 57.4049C80.2379 57.5124 80.6995 57.9743 81.2088 57.8578C81.2757 57.8426 81.2884 57.6703 81.3379 57.6736C82.2298 57.746 82.1134 58.2648 82.5547 58.5691C82.9967 58.8733 83.8437 58.7121 84.0226 58.6481C84.4911 58.4847 83.7447 58.4562 83.7297 58.4242C83.5552 58.0485 84.0891 58.2437 84.5145 58.3231C84.703 57.8325 85.2799 58.0091 84.9553 58.4072C84.9186 58.4504 84.6043 58.3213 84.5145 58.3231C84.7556 58.9126 85.3912 59.1393 86.2174 58.8459C86.604 58.7076 86.3491 58.3796 87.34 58.7116C87.79 58.8611 87.5308 59.1699 87.9159 59.3594C88.7949 59.7916 90.0868 59.7324 91.0368 59.9851C91.3824 60.0771 91.0015 60.1985 91.2365 60.2679C91.861 60.4525 92.4478 60.4207 93.0754 60.6215C93.1322 60.6399 92.9503 60.8142 93.1494 60.856C94.6603 61.176 95.9881 61.2853 97.5796 61.5521C98.3471 61.6817 99.6891 62.0127 100.491 62.1102C101.886 62.2846 103.601 62.2187 104.781 62.4407C105.547 62.584 105.352 62.7666 105.666 62.9465C106.273 63.2954 107.453 62.9381 107.61 62.8788C107.615 62.8771 106.962 62.7551 107.325 62.6893C107.554 62.4931 107.603 62.877 107.61 62.8788C107.714 62.8424 109.054 62.9371 109.312 63.0011C109.453 63.0368 109.354 63.2231 109.428 63.238C111.174 63.5869 112.98 63.7874 114.776 63.8156C114.808 63.8137 114.775 63.5927 114.85 63.5911C115.903 63.563 116.566 63.8678 117.419 64.0699C118.27 64.2712 118.958 64.2457 119.49 63.8901C120.146 63.962 121.085 63.8232 121.62 63.734C122.153 63.6451 122.22 64.0707 122.269 64.0802C123.77 64.3738 124.603 64.1351 126.148 64.0844C126.892 64.0601 128.325 64.0921 129.119 64.1103C129.757 64.1263 130.132 64.0113 130.711 64.0485C130.789 64.0534 130.719 64.2461 130.743 64.2523C131.396 64.4476 131.064 64.0001 131.192 63.9111C131.656 63.5859 131.926 63.4124 132.774 63.4996C132.968 63.5198 133.571 64.1461 133.921 64.1583C134.374 64.1729 134.186 63.9483 134.658 63.9678C134.698 63.9691 134.702 64.1169 134.989 64.0858C136.38 63.9371 137.783 63.7009 139.236 63.5198C139.43 63.495 139.214 63.7604 139.494 63.728C140.773 63.5812 142.268 63.326 143.471 62.9747C143.787 62.8837 143.554 62.7633 143.614 62.7018C143.982 62.3287 144.66 62.6182 144.76 62.6039C146.795 62.3305 148.403 61.6052 150.294 60.9578C150.526 60.879 150.776 60.8014 151.049 60.7261C151.149 60.6999 152.267 60.7832 152.54 60.2715C152.556 60.238 152.799 59.7264 153.241 59.8637C153.269 59.8722 153.088 60.1538 153.514 59.9836C153.921 59.8199 154.786 59.6702 155.257 59.272C155.417 59.1426 155.726 58.6158 156.406 58.7265C156.448 58.7359 157.582 59.1219 157.769 58.5369C157.797 58.4416 157.573 57.9592 158.321 58.0004C158.465 58.0088 158.269 58.196 158.629 58.1566C159.181 58.0967 159.843 57.7354 160.592 57.7434C160.725 57.7449 161.336 57.9262 161.62 57.5519C161.666 57.4926 161.501 57.3602 161.694 57.2784C162.615 56.8891 163.693 56.6765 164.687 56.2433C165.015 56.0976 164.756 55.8792 165.092 55.6965C165.427 55.5138 166.139 55.2197 166.565 55.2265C166.991 55.2334 166.698 55.7963 167.292 55.6544C169.864 55.0413 172.323 54.0396 174.775 53.292C175.147 53.1788 174.881 53.4241 175.434 53.2683C177.532 52.6759 181.012 51.8576 182.71 51.0346C184.039 50.383 182.217 50.6651 183.261 50.2621C183.766 50.068 184.471 50.4226 184.602 50.4042C185.877 50.232 186.712 49.7652 187.814 49.5447C188.046 49.4983 187.878 49.7644 188.074 49.7227C188.745 49.5821 189.42 49.3042 190.065 49.1522C190.354 49.0845 190.343 49.2563 190.605 49.1744C191.228 48.9813 191.791 48.7632 192.354 48.4587C192.406 48.4308 191.981 48.3314 192.441 48.2041C193.185 47.9985 194.081 47.6112 194.992 47.5391C195.263 47.5184 195.365 47.8774 195.859 47.4855C195.963 47.4036 195.702 47.0073 196.449 47.2171C196.578 47.2507 197.793 47.4822 198.237 47.0239C198.356 46.9029 198.624 46.4578 198.948 46.4363C198.992 46.4348 198.872 46.6712 199.134 46.6262C200.055 46.464 201.003 46.2075 201.958 46.0384C202.213 45.9937 201.889 46.2866 202.267 46.2135C203.305 46.0139 204.554 45.6577 205.541 45.3552C205.905 45.2435 205.61 45.1373 205.632 45.1127C205.994 44.7138 206.345 45.0524 206.494 45.0416C207.419 44.9695 208.062 44.6203 208.889 44.4799C209.118 44.4404 209.002 44.6684 209.051 44.6749C209.556 44.7324 209.129 44.4709 209.416 44.3645C210.219 44.0653 211.149 43.8676 211.996 43.7004C212.308 43.6392 212.01 43.9396 212.289 43.8822C213.946 43.5458 215.635 43.1474 217.214 42.6751C217.511 42.5859 217.284 42.4565 217.338 42.4038C217.713 42.0363 218.431 42.2711 218.585 42.2751C219.285 42.2937 219.511 42.0875 220.105 41.9907C223.003 41.52 226.538 40.6983 229.241 40.1138C232.775 39.3507 235.482 38.6901 238.897 38.1547C239.113 38.1208 238.935 38.3867 239.121 38.3605C241.507 38.0155 243.893 37.5451 246.287 37.2611C246.484 37.2374 246.233 37.4968 246.55 37.4662C247.19 37.4064 248.036 37.2734 248.683 37.1126C249 37.0343 248.542 36.9069 248.862 36.832C249.608 36.6573 250.412 36.5335 251.183 36.4689C251.512 36.442 251.049 36.7292 251.473 36.677C254.408 36.3218 257.224 36.0419 260.182 35.4771C260.382 35.4388 260.519 34.9662 260.954 35.0162C260.997 35.14 261.009 35.2892 261.034 35.4233C265.298 35.1267 269.477 34.7306 273.739 34.6952C273.918 34.694 273.609 34.937 273.956 34.9361C275.912 34.9324 277.926 35.053 279.903 34.941C280.104 34.9311 280.012 34.4951 280.626 34.6048C280.736 34.6234 281.643 34.7554 281.862 34.8708C281.892 34.8877 281.711 35.0707 281.997 35.1037C283.61 35.2867 285.418 35.4871 286.988 35.6735C287.242 35.7033 287.017 35.4422 287.199 35.462C288.614 35.6314 289.865 36.1181 291.181 36.3578C292.031 36.5149 291.853 36.0665 292.409 35.8884C292.49 35.8629 292.979 36.0506 293.084 35.8682C293.354 35.4083 293.33 34.7723 293.646 34.2932C293.716 34.1882 294.358 34.6076 294.063 34.1609C294.044 34.1296 293.567 33.8264 293.471 33.6838C293.405 33.5841 293.648 33.4496 293.493 33.2945C293.335 33.1393 293.065 33.2281 292.78 33.0169C292.491 32.8059 292.718 32.6219 292.062 32.3771ZM124.051 63.3187C124.547 63.1168 124.619 63.8646 124.082 63.6835C124.056 63.6739 124.026 63.3285 124.051 63.3187ZM65.4557 51.8356C66.183 51.7774 66.4125 52.3909 65.8926 52.4562C65.3686 52.5188 65.2338 51.8524 65.4557 51.8356ZM59.4048 48.8845C60.1969 48.975 59.8531 49.9851 59.2102 49.441C59.1727 49.4096 59.3585 48.879 59.4048 48.8845ZM290.38 35.0996C290.389 35.0911 290.752 35.1898 290.767 35.2052C290.893 35.4909 290.153 35.2891 290.38 35.0996ZM53.6108 45.5718C53.8856 45.5631 54.399 46.0377 54.056 46.0511C53.7785 46.0618 53.2669 45.5825 53.6108 45.5718ZM149.5 59.2382C149.501 59.2318 149.564 59.2031 149.629 59.1826C149.691 59.163 149.758 59.1522 149.767 59.1831C149.788 59.2601 149.746 59.3181 149.69 59.3468C149.596 59.3942 149.467 59.3715 149.5 59.2382ZM44.1527 39.3635C45.5121 40.3433 46.8456 40.214 45.3306 39.2282C45.057 39.0476 45.7314 39.8722 45.3493 39.688C44.6474 39.3475 44.5792 38.6053 43.7907 38.3633C43.6452 38.3193 44.0717 39.3091 44.1543 39.3663C44.1537 39.3654 44.1532 39.3644 44.1527 39.3635ZM124.34 62.4218C124.35 62.4121 124.743 62.4035 124.753 62.4132C124.966 62.6509 124.172 62.6685 124.34 62.4218ZM165.173 53.5765C165.186 53.5504 166.057 53.2648 166.093 53.2742C166.663 53.5066 164.902 54.085 165.173 53.5765ZM97.8814 59.5176C97.4958 59.2101 96.9928 59.0939 96.601 59.3289C97.027 59.3883 97.4538 59.46 97.8814 59.5176ZM25.2686 34.3131C25.1829 33.5336 24.9183 32.5415 24.6754 31.7956C24.5996 31.5618 24.4932 31.7085 24.435 31.5482C24.3213 31.2347 24.3263 30.9211 24.2037 30.6133C24.1625 30.5114 23.9822 30.6834 23.9436 30.5757C23.7338 29.985 23.674 29.3992 23.51 28.7914C22.7015 25.7975 22.0418 22.8283 21.3483 19.7735C21.1198 18.7662 20.6925 17.5709 20.5701 16.5083C20.556 16.3842 20.751 16.4218 20.7614 16.3956C20.9184 15.9865 20.577 16.179 20.482 15.9504C20.4031 15.7597 20.3309 15.5629 20.2652 15.3623L18.873 16.7631C19.665 16.8127 20.4722 16.9662 21.1809 17.1571C21.5625 17.2604 21.1063 17.5468 21.5344 17.4185C21.564 17.41 21.502 17.1992 21.6121 17.1987C21.8617 17.1981 22.3122 17.3186 22.5018 17.3386C22.8673 17.3762 22.9264 17.3893 23.2671 17.4514C23.7332 17.5345 24.3046 17.5433 24.7955 17.681C24.9002 17.711 24.7219 17.8815 24.8855 17.9471C25.0492 18.0127 25.5023 18.0808 25.6627 18.063C25.8232 18.0451 25.7879 17.878 25.8214 17.8476C26.0988 17.5896 26.5409 18.1028 26.6059 18.1257C27.7938 18.531 28.8853 18.4921 30.0312 18.709C30.901 18.8741 31.8165 19.1277 32.6463 19.2732C33.6351 19.4458 34.4911 19.4967 35.4457 19.6958C35.5465 19.7166 35.3843 19.926 35.5073 19.9518C36.8143 20.2264 38.122 20.4469 39.4579 20.537C39.592 20.5458 39.4615 20.3105 39.5977 20.3071C40.4306 20.2911 41.7745 20.1287 42.0833 21.1044C42.6327 21.1722 43.2985 21.2608 43.8178 21.1739C44.1526 21.118 43.8903 20.839 44.2571 21.0062C44.3399 21.0436 44.1905 21.2164 44.3174 21.2579C44.6674 21.3721 45.05 21.4329 45.4193 21.5182L45.9885 19.7334C45.8106 19.6427 45.638 19.5464 45.4798 19.4349C45.3868 19.3688 45.4885 19.2208 45.473 19.1785C45.3381 18.8324 44.7559 19.0344 44.6549 19.0221C43.8877 18.9238 43.436 18.616 42.8089 18.3339C42.6633 18.2685 42.934 18.1313 42.7975 18.0606C42.0882 17.697 41.3302 17.371 40.5777 17.1411C40.4101 17.0905 40.4704 17.3411 40.3859 17.3264C40.0147 17.259 40.1009 16.8776 39.7479 16.8063C39.6737 16.7908 39.6391 16.9657 39.6189 16.9774C39.3024 17.1608 39.3128 16.6995 39.2674 16.6683C38.6972 16.2655 38.1139 16.484 37.5376 16.1501C37.4688 16.1098 37.723 15.9852 37.5241 15.884C36.1998 15.2084 34.7472 14.6069 33.338 14.1521C33.119 14.0811 33.1984 14.299 33.1769 14.3115C32.8313 14.5019 32.8711 14.0521 32.81 14.0064C32.3239 13.656 31.6758 13.7506 31.5244 13.1234C29.1881 12.2428 27.0545 10.9487 24.6208 10.3292C24.59 10.3209 24.5537 10.5347 24.4928 10.5173C23.7582 10.309 24.0258 10.0737 23.7386 9.50346C23.6661 9.36009 23.1178 9.63704 23.0723 9.65492C22.906 9.72138 22.892 10.0579 22.844 10.0635C22.4511 10.1002 22.9322 9.18713 22.5135 8.99428C22.4997 8.98981 22.4755 9.18745 22.4325 9.18843C22.2985 9.19202 22.2217 9.07375 22.0876 9.08395C21.7799 9.10878 21.4836 9.52371 21.2318 9.08717C21.2003 9.03106 21.5167 8.53313 21.1313 8.3863C20.9774 8.32822 20.3218 8.01576 20.121 7.96515C19.9205 7.91461 19.9686 8.14407 19.9521 8.14543C19.3503 8.14294 19.4959 8.32351 19.0925 8.54394C18.6898 8.76312 19.1249 7.99874 19.0642 7.86316C19.0031 7.72774 18.5524 7.74671 18.4328 7.7704C18.3134 7.79414 18.3751 7.95428 18.2786 7.9544C17.6398 7.95157 18.2283 7.45258 18.1123 7.24617C17.8394 6.75824 17.2483 7.20169 16.8459 7.08678C16.737 7.05565 16.8818 6.95932 16.7971 6.90512C16.4606 6.69223 16.1602 6.77731 15.8299 6.42082C15.7758 6.3626 15.6093 5.85599 15.276 6.01835C15.2285 6.04202 15.2467 6.22865 15.0788 6.19134C14.8277 6.13585 14.4016 5.97888 14.1788 5.81686C14.0144 5.69717 14.3335 5.55022 14.0708 5.52068C13.954 5.50771 14.0766 5.7359 13.8626 5.6997C13.6496 5.66395 13.1682 5.43506 12.9861 5.34543C12.8045 5.25586 12.9897 5.11824 12.9806 5.09902C12.9233 4.98669 12.611 4.7357 12.5797 4.72157C11.0165 3.97565 9.42285 3.61848 7.93796 2.81148C7.82131 2.74841 7.99056 2.5913 7.97368 2.57968C7.59943 2.30919 7.68689 2.97401 7.32001 3.0144C7.54252 2.63997 7.34001 2.63318 7.06992 2.45672C6.93991 2.37136 7.08608 2.25397 7.08049 2.2325C6.97972 1.90579 6.69799 2.13841 6.63272 2.18248C6.39207 2.34435 6.36495 2.00989 6.20243 2.11732C6.0405 2.22366 6.15354 2.54366 5.87678 2.41298C5.86358 2.23626 6.23927 1.96302 6.05559 1.80629C5.36281 1.21437 3.74312 0.819599 3.08887 0.555138C2.70032 0.398102 2.4741 0.291698 2.2712 0.205921L1.86295 0.000213623L1.69235 0.456856C1.64937 0.600471 1.61471 0.732319 1.58374 0.896976C1.4457 1.63149 1.24632 1.27898 0.970377 1.67166C0.694028 2.06561 1.46664 2.08685 1.59653 2.20002C1.72674 2.31201 1.54905 2.32768 1.60635 2.4321C1.66371 2.53625 1.82151 2.40475 1.79262 2.59513C1.76367 2.7856 1.33128 3.18861 1.15227 3.19987C0.773113 3.22344 0.496356 2.88464 0.460734 3.40228C0.458912 3.43213 0.673076 3.40469 0.656742 3.51585C0.520929 4.39677 0.241073 5.26569 0.0891879 6.14013C0.0685949 6.26045 0.307981 6.22652 0.298318 6.29732C0.27747 6.45109 0.249523 6.55701 0.213712 6.63065L0.193556 6.51339C0.351092 6.78146 0.0580202 6.88609 0.000143819 7.3336C0.370133 6.93099 0.766676 6.90294 1.11053 7.33879C1.31738 7.60067 1.09628 7.7002 1.09807 7.9725C1.09841 8.05434 1.37116 8.14112 1.31011 8.24297C1.11128 8.57691 0.654833 8.65074 1.13406 9.00288C1.15555 9.01797 1.26271 8.83303 1.32553 8.89408C1.73236 9.28809 1.47491 9.57391 1.81151 10.0802C2.07532 10.4771 2.77714 11.0017 3.13947 11.4053C3.61068 11.0235 3.81544 11.5119 3.6132 11.9325C3.84262 12.1989 4.05719 12.5126 4.31146 12.7447C4.39882 12.8247 4.49008 12.6562 4.5141 12.6562C4.88766 12.6514 4.66075 13.0219 4.69478 13.0914C5.07766 13.8346 5.73233 14.1729 5.97679 14.9765C5.98534 15.0051 5.68089 15.2996 6.0523 15.2758C6.07736 15.2735 6.06927 14.9514 6.30773 15.2332C6.54625 15.5149 7.15188 15.9245 7.31283 16.4484C7.35197 16.575 7.27504 17.0324 7.64041 17.0666C7.68963 17.0707 7.76235 16.9675 7.84511 16.9643C8.1102 16.956 7.82696 17.2851 8.22521 17.2076C8.62346 17.1302 9.07217 17.2652 9.19293 17.826C9.19732 17.8434 9.00638 18.1473 9.11045 18.2721C9.27681 18.4711 9.55855 18.7182 9.72327 18.933C9.80205 19.036 9.58579 19.0994 9.5966 19.1195C10.0399 19.879 10.5686 20.2533 11.2066 20.9397C11.3238 21.0653 11.4009 21.6289 11.7828 21.7513C12.2015 21.8862 12.7829 20.9588 13.1038 21.769C13.2339 22.0953 12.4672 23.2345 13.3732 23.2968C13.9639 24.3269 14.9052 24.9715 15.4414 26.0482C15.4656 26.0965 15.2814 26.4527 15.362 26.5479C15.4821 26.6889 15.6788 26.6643 15.7689 26.7616C16.1497 27.1667 16.3463 27.6557 16.6924 28.0627C16.8234 28.2174 16.9187 28.0533 17.0751 28.2379C17.2312 28.4224 17.1474 28.692 17.437 28.8813C17.6563 29.0238 18.1819 28.9274 18.4272 29.1522C18.0663 29.4494 18.2125 29.6212 18.3615 30.0129C18.3899 30.0884 18.2109 30.1233 18.2177 30.1641C18.2428 30.3325 18.4334 30.3578 18.448 30.5249C18.4518 30.5654 18.3269 30.6648 18.3229 30.7035C18.2839 31.0357 18.8081 31.1242 18.8988 31.1388C19.2447 31.1964 19.1551 31.4192 19.3506 31.5178C19.5458 31.6162 19.4563 31.3113 19.6429 31.4585C20.0297 31.7638 20.3875 32.2646 20.6921 32.6434C20.8129 32.7952 20.5635 32.8218 20.5769 32.8466C20.7809 33.1961 21.2089 33.3765 21.011 33.8128C22.0472 33.3574 21.0758 34.0689 21.6014 34.386C21.6432 34.4106 22.0877 34.1369 22.0412 33.9534C21.9946 33.7699 21.7051 33.6623 21.6509 33.3996C21.6378 33.3376 21.8206 32.7813 21.8165 32.7281C21.7836 32.3116 21.1418 32.7493 21.0968 32.761C20.6058 32.8786 20.7737 32.2421 20.7377 32.137C20.5731 31.6563 20.2362 31.4015 20.0826 31.0119C19.9814 30.7576 20.3661 30.4251 20.227 30.2719C19.7647 29.7627 19.0588 30.0095 19.1459 29.1221C19.164 28.9322 19.6864 28.6995 19.0369 28.5763C18.996 28.5686 18.4544 28.5234 18.5226 28.2001C18.5313 28.1594 18.6594 28.0606 18.6484 28.0244C18.5724 27.7839 18.3738 27.7388 18.2641 27.4977C18.1544 27.2567 18.0365 26.9558 17.8125 26.7577C17.6776 26.6381 17.3001 26.6441 17.1897 26.6225C16.8748 26.5643 16.9917 26.1475 16.6975 26.1887C16.4014 26.2298 16.2715 26.7021 15.8984 26.4954C16.2209 26.2255 16.5406 25.9339 16.8596 25.6556C16.3191 24.9864 15.6916 24.4027 15.1757 23.7108C15.1121 23.6247 15.3576 23.5721 15.2939 23.4763C15.0247 23.0726 14.6379 22.8384 14.3799 22.4032C14.181 22.0658 14.1078 21.5829 13.9056 21.2255C13.3738 21.3256 13.132 20.7499 12.8281 20.4317C12.7218 20.3201 12.6268 20.4072 12.5267 20.3469C12.1515 20.1177 12.6053 20.0085 12.5886 19.8784C12.5162 19.3212 11.7321 19.88 11.4 19.4154C11.3821 19.391 11.5594 18.7843 11.5533 18.7246C11.5186 18.3415 11.3796 18.7921 11.2253 18.6558C10.9435 18.407 10.689 18.2798 10.5409 17.8456C10.4983 17.7185 10.5639 17.2829 10.218 17.2413C10.1726 17.2357 10.0499 17.354 10.0261 17.3396C9.60633 17.0703 10.0187 16.7331 9.99566 16.4101C9.97254 16.0872 9.42723 15.9857 9.2917 15.9842C8.93956 15.9784 9.3035 16.1899 9.28965 16.2158C9.12369 16.5236 8.98091 16.2508 8.81726 16.0849C8.38484 16.3796 8.21055 16.1051 8.64928 15.9117C8.69753 15.891 8.76987 16.063 8.81726 16.0849C9.0964 15.6097 8.92943 15.2888 8.31027 15.2734C8.02023 15.2663 7.9208 15.5643 7.65277 15.0648C7.53095 14.8383 7.87475 14.6945 7.81448 14.4578C7.67656 13.9171 7.00362 13.5995 6.72127 13.1514C6.61879 12.9888 6.88857 13.0147 6.82389 12.8994C6.65271 12.593 6.34814 12.4425 6.19358 12.1212C6.17978 12.092 6.38968 12.0261 6.32513 11.939C5.839 11.2766 5.29519 10.7937 4.76504 10.1197C4.50895 9.79397 4.1431 9.13991 3.86117 8.81546C3.3735 8.25239 2.57453 7.71489 2.24118 7.16896C2.02307 6.81344 2.24149 6.75844 2.24302 6.53205C2.24694 6.09443 1.48947 5.91578 1.37972 5.89777C1.37621 5.89734 1.5572 6.20849 1.35676 6.12344C1.1149 6.1717 1.38143 5.90153 1.37972 5.89777C1.35484 5.89348 1.28101 5.82602 1.19298 5.73417L1.41597 7.0314C1.46788 6.79906 1.56337 6.47804 1.61688 6.39869C1.66162 6.33257 1.83324 6.4351 1.85306 6.39946C2.32009 5.55088 2.66897 4.66117 2.88793 3.71561C2.88957 3.69823 2.67428 3.65347 2.68072 3.61346C2.7655 3.05205 3.13222 2.79672 3.4286 2.40919C3.72488 2.0217 3.79019 1.65785 3.52087 1.28024C3.54905 1.22285 3.57213 1.15849 3.591 1.08974L1.43517 2.02429C1.73305 2.14225 2.12807 2.18532 2.376 2.20877C2.6791 2.23743 2.53794 2.64042 2.5574 2.65862C3.16152 3.23243 3.67735 3.20179 4.43651 3.50914C4.79774 3.65461 5.47299 4.03294 5.83621 4.2511C6.12298 4.42416 6.34676 4.4174 6.59881 4.6034C6.63294 4.62846 6.5158 4.78293 6.52426 4.79484C6.74064 5.14358 6.78449 4.65444 6.88321 4.60887C7.24153 4.44284 7.45221 4.36354 7.7914 4.67509C7.86973 4.74674 7.85898 5.47511 8.01014 5.5875C8.20719 5.73251 8.2248 5.47776 8.42858 5.63512C8.4461 5.64838 8.3805 5.78038 8.5239 5.83916C9.18874 6.11378 9.93654 6.36324 10.609 6.68867C10.7011 6.7326 10.4846 6.89029 10.6161 6.95727C11.233 7.27139 11.9255 7.58025 12.5834 7.76237C12.7457 7.80653 12.7196 7.61443 12.7726 7.58533C13.0962 7.41059 13.2026 7.92961 13.2462 7.95861C14.2815 8.66052 15.3009 8.70379 16.3667 9.39632C16.4243 9.43473 16.7118 10.0709 17.0894 9.81227C17.115 9.79526 17.4941 9.52738 17.5662 9.86287C17.5707 9.88383 17.3526 10.0112 17.5912 10.0977C17.8298 10.1843 18.1419 10.4798 18.5527 10.4185C18.6826 10.3995 19.0864 10.144 19.2512 10.5714C19.2613 10.6006 19.4201 11.4687 19.7927 11.0914C19.8536 11.0291 20.046 10.5371 20.2891 10.9465C20.3352 11.0254 20.1626 11.0755 20.3111 11.2246C20.5384 11.4538 20.9612 11.4927 21.2006 11.8613C21.2421 11.9262 21.3431 12.3667 21.6576 12.2122C21.7069 12.188 21.7206 12.0005 21.835 12.0314C22.3793 12.1776 22.8586 12.5276 23.422 12.6526C23.6214 12.6972 23.6475 12.3959 23.8686 12.4135C24.0897 12.4313 24.5016 12.5399 24.6453 12.7492C24.789 12.9585 24.3831 13.2712 24.6647 13.4406C25.8888 14.1769 27.2778 14.5226 28.5821 15.0794C28.7756 15.162 28.5494 15.2367 28.8296 15.3689C29.8625 15.8571 31.5909 16.8193 32.6357 16.92C33.4727 17.0008 32.6525 16.3921 33.2509 16.5435C33.5394 16.6171 33.6069 17.2287 33.6642 17.2733C34.2213 17.7151 34.755 17.7033 35.2899 18.0281C35.4003 18.0953 35.1966 18.2369 35.2916 18.2919C35.6152 18.4815 36.0114 18.5586 36.3281 18.7235C36.47 18.7979 36.375 18.9339 36.514 18.9839C36.8458 19.1054 37.1575 19.1731 37.5334 19.1775C37.5677 19.178 37.4608 18.9053 37.7007 19.0073C38.0888 19.1729 38.6275 19.2544 39.0033 19.5988C39.1145 19.7015 38.9638 20.0429 39.3526 19.938C39.4341 19.9163 39.546 19.4745 39.7118 19.9769C39.7401 20.0607 40.0722 20.7882 40.4828 20.6065C40.5911 20.5587 40.9261 20.3092 41.0593 20.4339C41.0768 20.452 40.9076 20.5949 41.0298 20.6725C41.4619 20.9432 41.9523 21.1452 42.3981 21.4192C42.5169 21.4927 42.2426 21.5949 42.4225 21.6985C42.9172 21.9836 43.5842 22.2321 44.1164 22.4054C44.3128 22.4689 44.2559 22.2536 44.2772 22.2429C44.6222 22.0667 44.5795 22.499 44.6419 22.5539C44.6538 22.5643 44.6658 22.5743 44.6778 22.584L46.001 18.4351C45.5583 18.23 45.1635 18.3384 44.738 18.2078C44.6168 18.1711 44.7408 17.9953 44.7194 17.9735C44.4956 17.7577 44.6207 18.139 44.4518 18.1466C43.9784 18.1689 43.4763 18.0582 43.0228 17.9472C42.8563 17.9061 43.0875 17.7188 42.9376 17.6845C42.0509 17.4774 41.1177 17.3234 40.2221 17.2818C40.0534 17.2743 40.1243 17.4656 40.0827 17.4983C39.795 17.7282 39.5198 17.2887 39.447 17.238C39.1159 17.0069 38.9467 17.1323 38.6326 17.0437C37.0984 16.608 35.1523 16.345 33.6672 16.1292C31.7323 15.8469 30.2117 15.7292 28.3889 15.3413C28.2731 15.3169 28.4335 15.1106 28.3341 15.0866C27.0495 14.7872 25.7577 14.6359 24.4726 14.3251C24.367 14.3 24.5614 14.1124 24.3934 14.0648C24.049 13.9657 23.6027 13.8937 23.2352 13.896C23.0561 13.8967 23.2529 14.1263 23.0733 14.1232C22.6549 14.1164 22.2177 14.0499 21.808 13.9366C21.6338 13.888 21.9428 13.7169 21.7131 13.6709C20.985 13.5229 20.2637 13.3726 19.5353 13.2529L15.989 12.708L16.7592 16.0464C16.9411 16.8743 17.1641 17.6958 17.4823 18.512C17.5232 18.6166 17.9914 18.6241 17.9502 18.8717C17.8288 18.9134 17.6818 18.9411 17.5499 18.9747C17.923 21.2689 18.5192 23.4953 18.9895 25.7772C19.0093 25.8734 18.7385 25.7533 18.7756 25.9398C18.9899 27.0194 19.1286 28.0813 19.581 29.1401C19.6255 29.2452 20.0337 29.1072 20.0333 29.4426C20.0329 29.5019 20.072 29.9994 20.0055 30.143C19.9951 30.1627 19.7822 30.1121 19.8071 30.27C19.9552 31.1871 20.1861 32.1333 20.4832 33.0196C20.5315 33.1626 20.7093 32.9656 20.7455 33.0671C21.0009 33.7872 20.9999 34.6249 21.3274 35.2968C21.5473 35.7464 21.8731 35.5004 22.2768 35.6834C22.3338 35.7093 22.399 36.0015 22.6082 35.9765C23.1345 35.9143 23.6746 35.6612 24.2388 35.6117C24.3603 35.6008 24.3088 36.0193 24.5511 35.7302C24.5671 35.7101 24.607 35.4063 24.6909 35.317C24.7488 35.2549 24.9758 35.3021 25.0427 35.1854C25.1095 35.0688 24.9123 34.9934 24.9815 34.8082C25.052 34.6227 25.3048 34.6489 25.2686 34.3131ZM3.73934 2.34083C4.06636 2.26649 3.78968 2.96226 3.60295 2.6795C3.59427 2.66502 3.72268 2.3442 3.73934 2.34083ZM15.2498 24.7533C14.7758 24.6817 15.0119 24.1958 15.3637 24.2328C15.7152 24.2698 15.3938 24.7754 15.2498 24.7533ZM17.2777 27.7459C16.8227 27.5852 17.6196 26.8828 17.7182 27.358C17.7243 27.3854 17.3043 27.7554 17.2777 27.7459ZM22.1496 34.4946C22.1601 34.4963 22.2108 34.7056 22.2021 34.7125C21.991 34.8705 21.8897 34.4519 22.1496 34.4946ZM19.2718 30.7299C19.0807 30.718 18.9866 30.328 19.2242 30.3427C19.4154 30.3546 19.5097 30.7449 19.2718 30.7299ZM16.6833 7.41373C16.6917 7.40536 16.8361 7.46067 16.8069 7.51661C16.7127 7.69654 16.5416 7.55485 16.6833 7.41373ZM23.0028 35.5351C22.4186 34.8508 21.3928 34.9596 22.0726 35.6707C22.1957 35.7995 22.058 35.1977 22.259 35.3271C22.6262 35.5642 22.3611 36.1185 22.8525 36.2695C22.9419 36.2965 23.0376 35.5729 23.0027 35.5331C23.0027 35.5337 23.0027 35.5344 23.0028 35.5351ZM4.25372 1.58882C4.26269 1.58206 4.46062 1.66274 4.46117 1.67379C4.46707 1.93777 4.06829 1.77536 4.25372 1.58882ZM25.0545 10.7537C25.074 10.7395 25.5325 10.9286 25.5391 10.953C25.6118 11.4137 24.6844 11.0324 25.0545 10.7537ZM3.15746 11.4021C3.1124 11.7327 3.2616 11.9698 3.6123 11.9318C3.45737 11.759 3.31221 11.5766 3.15746 11.4021Z" fill="#FFE035"/>
</svg>
