<svg width="188" height="146" viewBox="0 0 188 146" fill="none" xmlns="http://www.w3.org/2000/svg">
<path d="M86.0632 38.6124C93.4542 32.5349 101.945 27.5919 110.422 23.2246C114.773 20.983 119.437 18.9462 123.975 17.1228C127.557 15.6818 131.235 12.4017 135.202 12.598C136.363 12.6553 136.285 10.8462 135.13 10.7932C130.893 10.5984 127.276 13.8914 123.534 15.4469C118.644 17.4794 113.566 19.628 108.932 22.1976C100.9 26.6508 91.8356 31.0682 85.3843 37.7831C84.9187 38.2658 85.5146 39.0636 86.0632 38.6124Z" fill="#13102F"/>
<path d="M116.163 29.8334C112.307 32.4546 108.295 34.8008 104.398 37.3633C101.791 39.0764 97.2791 43.1242 93.9818 43.3562C93.3787 43.3992 93.4604 44.2916 94.0548 44.2844C96.9023 44.25 100.081 41.6217 102.454 40.2179C106.824 37.6354 111.332 35.093 115.53 32.2526C119.684 29.4438 124.147 27.2207 128.712 25.1581C132.549 23.4236 137.477 22.2204 140.942 19.8198C141.934 19.1322 140.857 17.581 139.869 18.28C136.265 20.8238 131.19 22.0929 127.159 23.975C123.421 25.7211 119.585 27.5072 116.163 29.8334Z" fill="#13102F"/>
<path d="M116.459 43.5512C113.014 45.7026 109.521 49.0042 105.664 50.2403C105.056 50.4351 105.404 51.369 105.994 51.2802C109.389 50.7674 111.84 48.3668 114.672 46.5892C118.306 44.3075 122.044 42.4239 125.858 40.4845C129.948 38.4047 133.91 36.1731 138.065 34.1893C140.169 33.1852 142.265 32.1224 144.314 31.0166C145.545 30.352 146.804 29.315 148.136 28.6704C148.303 28.9096 148.613 29.0343 148.942 28.8352C149.462 28.52 149.777 28.3166 150.266 27.9471C151.001 27.3913 150.568 26.0793 149.6 26.2182C146.583 26.6479 144.012 28.9898 141.392 30.385C136.554 32.9632 131.578 35.1189 126.854 37.9005C123.443 39.9087 119.828 41.4471 116.459 43.5512Z" fill="#13102F"/>
<path d="M134.832 48.2135C131.912 50.2947 128.822 51.8904 125.768 53.7395C122.988 55.424 119.051 57.1772 116.713 59.6136C116.185 60.1637 116.932 60.9729 117.521 60.4817C120.105 58.326 123.676 56.9709 126.568 55.2149C129.421 53.4817 132.41 52.1138 135.163 50.1988C138.323 47.9987 141.56 46.3214 144.962 44.561C147.628 43.1816 150.626 40.983 153.489 40.1322C154.673 39.7812 154.003 38.0667 152.844 38.3532C149.293 39.2312 146.01 41.9312 142.769 43.5569C139.966 44.9621 137.406 46.3801 134.832 48.2135Z" fill="#13102F"/>
<path d="M141.745 56.4266C139.322 58.4663 136.307 59.4976 134.033 61.6805C131.414 64.1972 128.623 66.8456 125.09 68.1763C124.501 68.3983 124.838 69.4296 125.446 69.2376C128.115 68.3954 130.935 66.5978 133.185 64.9348C133.96 64.3619 137.041 61.394 137.059 61.3826C138.386 60.4759 139.919 59.986 141.242 59.0421C143.937 57.117 146.1 54.8396 149.072 53.2855C151.011 52.2714 152.978 50.3764 155.025 49.7934C156.192 49.4611 155.578 47.8354 154.455 48.0488C152.786 48.3653 151.673 49.6903 150.275 50.5712C147.168 52.5235 144.574 54.0446 141.745 56.4266Z" fill="#13102F"/>
<path d="M19.62 71.9378C23.8211 68.672 28.6023 65.8273 33.0212 62.828C35.4175 61.2022 37.715 60.2583 40.2889 58.9219C42.7497 57.6428 44.7493 55.6748 47.2115 54.4172C51.7822 52.081 56.5448 50.4295 61.3059 48.6691C64.3225 47.5533 67.4536 46.5635 70.5317 45.6526C70.9256 45.5365 72.1216 45.22 73.2389 44.9794C72.8536 44.2933 72.4855 43.6029 72.1388 42.9067C70.6349 43.3551 69.1824 43.9366 68.1368 44.2417C62.6265 45.8459 56.3929 47.6593 51.3682 50.3493C48.7212 51.7673 46.0427 52.7972 43.6034 54.5604C40.6556 56.6903 37.3827 57.9264 34.3203 59.8172C31.2995 61.6821 28.303 63.8507 25.5127 66.0393C23.347 67.7381 20.8032 69.1518 18.8781 71.0869C18.3653 71.6011 19.0414 72.3861 19.62 71.9378Z" fill="#13102F"/>
<path d="M63.9309 55.3813C59.2513 57.3723 54.7509 60.3301 50.1831 62.7049C44.8332 65.4866 38.9878 68.1135 34.1206 71.6786C31.4264 73.6524 27.0605 76.2937 26.3616 79.856C26.267 80.3344 26.6065 80.681 27.0835 80.6208C27.2167 80.6037 27.3499 80.5865 27.4831 80.5707C27.8999 80.5177 28.0417 80.0092 27.6722 79.7758C26.9302 79.3074 38.8947 70.7891 39.6653 70.3766C44.435 67.8328 49.1948 65.2774 54.0275 62.8525C58.0324 60.8429 61.8754 58.521 65.9175 56.6905C68.2494 55.6348 70.2561 54.5648 72.8086 54.075C74.5675 53.7369 76.0959 53.5565 77.6915 52.6842C78.8761 52.2201 78.0625 50.3122 76.9997 50.8851C74.9872 51.9708 72.747 51.9708 70.587 52.5825C68.2881 53.2356 66.1224 54.4488 63.9309 55.3813Z" fill="#13102F"/>
<path d="M54.9315 71.694C50.3781 73.652 46.7714 76.309 42.9055 79.4259C42.3726 79.8556 34.7955 86.1264 34.9717 86.7867C34.8327 86.2682 34.0378 86.4731 34.0693 86.9815C34.0807 87.1763 34.0936 87.3712 34.1065 87.566C34.1251 87.8696 34.4331 88.0157 34.6966 88.0085C36.6332 87.957 38.3305 85.6509 39.5624 84.4205C43.6704 80.3211 48.9357 75.9066 54.3013 73.6764C59.0954 71.6825 63.4684 68.8665 68.1508 66.6149C73.3517 64.114 78.9909 62.6759 84.1746 60.1965C85.14 59.8441 84.4123 58.3244 83.4398 58.7441C78.3377 60.9485 72.9864 62.418 67.9875 64.886C63.6159 67.046 59.3747 69.7818 54.9315 71.694Z" fill="#13102F"/>
<path d="M67.7861 78.3445C62.8702 81.7893 57.6665 84.6956 52.785 88.2163C49.2886 90.7373 45.2981 92.7354 42.3732 95.8766C41.9478 96.3335 42.6826 96.9179 43.1123 96.4882C44.7896 94.8166 46.6918 94.0589 48.5925 92.7497C51.069 91.0467 53.5069 89.2777 55.9563 87.536C60.4137 84.3661 65.1792 81.5831 69.7957 78.651C73.9595 76.0055 78.7307 73.8269 83.2584 72.0536C86.845 70.6499 89.8816 68.2937 93.547 67.0332C94.4666 66.7037 93.8779 65.3931 92.977 65.6553C88.667 66.9057 84.6478 69.4424 80.5355 71.24C76.204 73.1336 71.6606 75.6302 67.7861 78.3445Z" fill="#13102F"/>
<path d="M80.3418 85.3186C70.344 90.9019 60.7458 97.114 51.8952 104.459C51.4311 104.844 51.9239 105.563 52.4409 105.231C56.0576 102.909 59.4323 100.219 62.9516 97.7528C67.1126 94.8351 71.6789 92.8241 75.9244 90.1499C79.7503 87.7392 83.7021 85.7425 87.5939 83.4722C88.9947 82.6544 92.0886 79.7854 94.0982 79.7295C94.1741 79.7854 94.2672 79.8283 94.389 79.8298C94.5623 79.8312 94.737 79.8341 94.9103 79.8369C95.257 79.8412 95.4847 79.5963 95.532 79.2683L95.5721 78.9875C95.6093 78.7297 95.4389 78.3731 95.2011 78.2556C93.478 77.3976 91.3624 79.0377 89.9529 79.91C86.7989 81.858 83.5876 83.5066 80.3418 85.3186Z" fill="#13102F"/>
<path d="M187.074 61.7407C187.114 61.7206 187.154 61.7006 187.194 61.6805C187.631 61.4557 187.704 60.9099 187.512 60.506C187.07 59.5735 186.359 58.919 185.498 58.6769C185.791 57.627 185.069 56.779 184.138 56.3149C184.215 55.9654 184.139 55.6074 183.854 55.2894C183.238 54.6018 182.568 53.8885 181.836 53.2712C182.599 52.787 183.078 52.1554 183.002 51.2845C182.987 51.1155 182.952 50.9379 182.893 50.7502C181.899 47.5718 176.012 43.6901 173.656 41.3683C165.869 33.698 158.927 25.2213 152.369 16.4897C149.03 12.0436 145.798 7.52025 142.572 2.99257C140.379 -0.0869959 139.101 -0.523865 135.718 0.487379C131.761 1.67051 127.79 2.65167 123.9 4.074C116.474 6.78975 109.334 10.2489 102.462 14.1463C95.817 17.9134 89.3556 22.1461 83.7823 27.4028C81.0193 30.0083 78.9954 33.6364 76.2195 36.0901C73.8375 38.1956 70.3483 37.9722 67.4119 38.5881C53.2144 41.5702 39.4136 46.4245 26.4608 52.9546C20.1499 56.1373 13.2717 59.5578 7.72417 63.9852C4.43548 66.6093 5.82773 69.8292 8.06078 72.6868C6.83181 73.4459 5.54269 74.0862 4.47558 75.1562C4.00147 75.6317 4.18338 76.355 4.58587 76.7876C4.85229 77.0741 5.13304 77.3491 5.40232 77.6327C3.17357 78.9161 1.60371 79.7526 3.28816 81.8625C3.45145 82.0659 3.63909 82.2564 3.8124 82.454C2.5863 83.0542 1.63092 84.137 0.39623 84.9406C-0.30276 85.3961 -0.0105598 86.4618 0.755751 86.6279C3.36694 87.1937 6.52242 90.2647 8.6065 91.8675C11.2664 93.9143 13.7744 96.1115 16.3498 98.2672C21.9919 102.987 26.8862 108.302 31.5715 113.924C39.6872 123.662 47.7285 134.736 57.6733 142.706C58.8937 143.684 60.8317 145.429 62.5462 145.197C64.7263 144.9 67.2658 141.42 68.6667 140.042C71.5214 137.235 74.6897 134.82 77.49 131.972C80.2602 129.153 83.0776 126.337 86.0956 123.78C91.8207 118.93 98.4396 115.145 104.947 111.498C110.576 108.345 116.702 107.201 122.506 104.628C122.562 105.137 123.255 105.402 123.701 104.998C124.765 104.031 127.247 103.616 128.581 102.98C130.426 102.1 132.308 101.315 134.134 100.407C137.075 98.9433 140.342 97.5038 143.038 95.6217C148.957 91.4865 154.906 86.9387 160.548 82.4154C167.064 77.1915 174.171 72.5206 181.34 68.2236C182.813 67.3412 186.966 65.6525 187.731 63.9437C188.349 62.5643 187.806 62.2392 187.074 61.7407ZM182.96 57.6513C183.053 58.1168 180.456 59.2412 180.507 59.2212C179.176 59.7125 177.838 60.1909 176.495 60.6478C173.913 61.5244 171.557 62.6259 169.141 63.8821C163.772 66.6737 158.498 70.2145 153.762 73.92C148.377 78.1326 143.102 82.4311 137.712 86.625C134.965 88.7621 132.113 90.5612 129.231 92.3187C130.344 91.3733 131.417 90.2389 132.505 89.0285C137.673 83.2834 142.202 77.4952 148.774 73.1423C155.25 68.8538 162.038 65.8888 169.033 62.5958C172.001 61.1978 175.028 60.1794 178.157 59.1983C179.554 58.76 181.582 58.5021 182.96 57.6513ZM181.469 55.964C179.674 57.024 176.121 57.5253 174.694 57.9908C172.382 58.7428 170.252 59.5635 168.045 60.6005C162.284 63.3091 156.337 65.535 150.984 69.0314C145.591 72.555 140.472 76.3336 136.185 81.1893C133.243 84.5223 129.943 90.1773 125.547 91.9907C127.31 90.1501 128.677 87.9543 130.178 85.8845C134.367 80.1064 139.856 75.3839 145.646 71.21C151.733 66.8213 158.216 62.9797 164.984 59.7383C168.443 58.081 171.978 56.5814 175.574 55.245C176.562 54.8769 178.193 54.6033 179.677 54.1664C180.277 54.7494 180.89 55.351 181.469 55.964ZM95.8772 22.4712C103.238 18.5952 110.315 14.4314 117.986 11.157C121.067 9.84211 124.106 8.4742 127.074 6.91723C130.093 5.33161 136.103 0.828281 139.395 3.2948C141.949 5.20986 143.991 8.76497 145.957 11.2773C148.142 14.0704 150.728 16.4868 152.62 19.5062C156.56 25.7928 161.675 30.8576 166.404 36.5771C168.897 39.5922 171.481 42.4182 173.999 45.3603C175.903 47.5847 178.832 49.0357 180.862 51.2C166.971 54.2409 154.015 60.6679 142.598 68.9999C139.706 71.1098 137.351 73.7181 134.674 76.0714C131.604 78.7686 129.827 81.3697 127.317 84.5696C126.252 85.9289 124.968 87.0863 123.875 88.4212C123.476 88.9111 123.08 89.4926 122.671 90.0856C122.535 89.7247 122.35 89.3451 122.132 88.9111C120.856 86.3558 119.331 83.8735 117.701 81.5287C113.505 75.4913 109.207 69.5327 104.249 64.0654C99.4294 58.7499 95.0149 53.1552 89.6679 48.2866C85.3035 44.3132 82.4417 40.8254 77.4212 38.1885C78.0801 37.2732 78.6216 36.2132 79.2117 35.414C83.2409 29.9653 89.93 25.6009 95.8772 22.4712ZM8.40454 68.0703C10.5774 66.1825 12.4452 64.0712 14.6912 62.2478C17.934 59.6165 21.2428 58.1527 24.8007 56.0442C30.6892 52.5521 36.9557 49.5714 43.3225 47.0347C51.073 43.9465 59.6256 41.1878 67.9419 40.3442C70.3196 40.1035 73.3934 40.8641 75.6136 39.8471C75.7841 39.7683 75.9416 39.6666 76.0963 39.5607C93.6126 54.831 109.797 71.707 120.922 92.2743C120.909 92.2872 120.895 92.2972 120.882 92.3086C120.697 92.2599 120.518 92.237 120.33 92.174C119.647 91.9448 119.091 92.7326 119.316 93.2841C116.58 94.2996 111.96 92.9661 109.131 92.9331C102.75 92.8572 97.2379 97.3391 92.1645 100.757C86.4795 104.587 79.1501 107.35 74.5207 112.536C72.0255 115.332 69.8426 118.446 67.3904 121.294C66.4522 122.384 65.5885 123.812 64.5988 124.833C63.4099 126.061 64.6389 126.595 62.0907 125.92C61.2141 125.688 59.9794 124.671 59.2217 124.16C55.8399 121.881 53.372 118.554 50.5044 115.676C47.1885 112.349 43.4386 109.367 40.4435 105.736C38.1918 103.007 36.6535 99.8042 34.1354 97.2904C30.5058 93.6665 27.4191 89.8851 24.0946 86.0163C21.6596 83.1831 18.5829 80.9987 16.1006 78.2057C15.7325 77.7903 9.70369 70.8763 8.40597 68.0717C8.40311 68.0703 8.40454 68.0703 8.40454 68.0703ZM118.294 95.424C116.212 97.5253 111.932 97.4737 109.39 98.3546C107.592 98.9777 105.924 99.8658 104.222 100.676C98.6688 103.323 93.7773 105.691 88.8457 109.361C83.4787 113.356 78.8994 118.072 73.826 122.388C71.232 124.595 68.6896 126.866 66.2259 129.218C65.2061 130.192 64.5515 131.365 63.2595 131.282C62.5706 131.237 60.5982 129.027 60.0825 128.473C59.9995 128.384 59.915 128.297 59.8319 128.208C59.8634 128.224 59.8892 128.246 59.9207 128.261C63.1249 129.846 64.9153 128.077 66.9493 125.87C69.0391 123.603 71.1561 121.36 73.3304 119.174C77.6705 114.812 82.2382 110.661 87.2014 107.015C93.4865 102.395 100.455 98.5809 107.955 96.355C111.349 95.3495 114.935 95.7893 118.294 95.424ZM9.38141 74.2538C10.4084 75.3982 11.4569 76.4467 12.2332 77.3205C17.0087 82.699 21.83 88.0359 26.6814 93.3457C32.6257 99.8529 38.6201 106.313 44.626 112.761C41.3774 109.793 38.03 106.88 35.1925 103.568C26.647 93.5892 16.2395 85.2887 7.01515 75.9569C7.76427 75.3395 8.59361 74.8181 9.38141 74.2538ZM29.4745 107.851C24.7979 102.918 19.7388 98.4649 14.5608 94.0719C12.0212 91.9176 9.34273 89.888 6.57112 88.0459C5.26768 87.1794 4.06736 86.0722 2.688 85.3703C3.39702 84.7028 4.19914 83.9537 4.82365 83.5526C7.98056 86.7081 12.2189 89.262 15.3515 92.3401C20.5409 97.4393 25.6874 102.54 30.0016 108.423C30.0159 108.441 30.0317 108.46 30.046 108.479C29.8512 108.274 29.6693 108.056 29.4745 107.851ZM26.69 100.957C22.7023 96.0471 17.8094 91.6125 12.9924 87.5045C11.0243 85.8258 9.03621 84.2516 7.01515 82.6431C6.47802 82.2148 4.9454 81.2079 4.64174 80.5433C4.65893 80.4888 4.67038 80.463 4.69044 80.3986C4.71622 80.3141 6.22879 79.247 6.64417 78.9233C13.8933 86.3142 22.1953 92.9074 29.105 100.582C36.3341 108.613 44.4627 115.653 51.8637 123.527C54.8989 126.757 58.0114 129.947 61.2528 132.937C62.2096 133.821 62.6121 134.612 63.9227 134.42C65.981 134.119 68.1281 130.838 69.5662 129.494C73.9019 125.438 78.2907 121.426 82.6565 117.416C86.6614 113.738 91.2492 109.928 95.9903 107.251C100.66 104.614 106.076 101.774 111.262 100.29C114.005 99.5048 117.491 99.108 119.643 97.372C119.669 97.5425 119.694 97.7272 119.719 97.8834C119.812 98.4692 119.925 99.0622 120.031 99.6538C112.44 101.447 104.859 105.141 98.0629 108.709C88.85 113.546 80.8632 120.399 73.0611 127.152C69.4129 130.311 66.0856 134.328 62.1795 137.136C60.4507 138.379 59.8878 137.7 58.3594 136.239C57.278 135.205 56.3169 134.04 55.3128 132.933C53.3834 130.806 51.6087 128.544 49.6679 126.429C46.0612 122.5 41.9016 119.147 38.4425 115.063C34.4763 110.381 30.5574 105.718 26.69 100.957ZM103.888 109.596C98.1016 112.853 92.5212 116.279 87.1842 120.251C81.1468 124.744 76.0376 130.412 70.3927 135.36C68.8815 136.684 67.4993 138.148 66.0641 139.552C64.5057 141.076 63.3913 142.983 61.1984 142.362C58.6144 141.632 56.1708 138.168 54.217 136.364C48.3458 130.936 43.4328 124.578 38.421 118.33C39.8519 119.821 41.3029 121.288 42.7825 122.695C46.8834 126.589 50.4585 130.775 54.2586 134.956C56.5145 137.438 59.5225 142.069 62.996 139.367C67.1713 136.119 70.6849 131.826 74.7155 128.365C79.13 124.574 83.4314 120.926 88.1066 117.436C97.6046 110.348 108.776 104.196 120.466 101.699C120.567 102.125 120.683 102.541 120.794 102.961C115.168 105.37 109.328 106.533 103.888 109.596ZM121.839 95.5486C121.834 95.4742 121.781 94.9786 121.725 94.6377C121.837 94.5947 121.95 94.5617 122.061 94.5145C123.489 94.8339 124.772 94.7236 125.961 94.3039C124.62 95.1204 123.278 95.9526 121.942 96.8263C121.897 96.4037 121.864 95.9826 121.839 95.5486ZM122.508 99.9345C122.393 99.3702 122.28 98.8044 122.171 98.2544C122.278 98.2658 122.39 98.2586 122.505 98.2085C136.48 92.2026 147.406 81.0389 159.419 72.0766C165.513 67.5303 172.213 64.1456 179.333 61.6089C180.481 61.2007 182.929 60.8469 184.362 60.0061C184.728 60.1379 185.175 60.3427 185.404 60.5948C185.146 60.6263 184.908 60.771 184.771 60.9816C184.754 60.9916 184.745 60.9887 184.726 61.0002C183.464 61.8109 181.92 62.3466 180.558 62.9596C177.301 64.4235 174.229 66.0306 171.229 67.9901C164.814 72.1797 158.424 76.5685 152.243 81.1047C147.103 84.8776 141.433 87.8913 136.328 91.7328C134.044 93.4517 131.742 95.1118 129.283 96.6086C127.448 97.7244 124.324 98.432 122.508 99.9345ZM183.804 64.7343C180.959 66.5076 178.086 68.2006 175.281 70.0555C168.594 74.4801 162.124 78.9963 155.704 83.7947C150.615 87.5991 145.301 91.9849 139.825 95.1504C136.146 97.2761 132.344 99.0622 128.518 100.901C127.204 101.533 124.533 102.243 123.195 103.471C123.272 103.246 123.302 102.997 123.209 102.716C123.095 102.371 123.017 101.996 122.921 101.632C123.106 101.338 123.098 100.963 122.698 100.787C122.697 100.782 122.695 100.778 122.695 100.775C125.331 101.755 129.685 98.3503 131.859 97.0283C134.064 95.6876 136.022 94.1578 138.113 92.6639C142.546 89.4969 147.213 86.6408 151.726 83.6214C157.282 79.9044 162.989 76.1574 168.314 72.1339C173.709 68.0574 179.475 65.5365 185.389 62.5872C186.093 63.5025 186.077 63.3192 183.804 64.7343Z" fill="#13102F"/>
</svg>
