<svg width="43" height="68" viewBox="0 0 43 68" fill="none" xmlns="http://www.w3.org/2000/svg">
<path d="M36.9902 31.3214C35.8692 28.4864 30.0471 27.0334 24.0781 26.9484C25.1171 25.8484 26.0482 24.7774 26.4862 23.0954C27.8272 17.9414 20.0502 10.8724 18.9042 11.5554C17.6742 12.2884 14.8391 20.0404 14.8331 22.2484C14.8271 24.2334 15.8561 26.1914 17.4411 27.4504C14.3211 28.0014 11.7381 29.0034 10.5401 30.4544C10.2091 30.4454 6.62013 61.9064 7.19013 63.3544C7.71313 64.6824 9.11315 64.9444 10.3431 65.4184C13.9131 66.7954 17.6962 67.1984 21.4952 67.3824C25.6802 67.5844 38.0251 65.9854 39.0531 64.5184C39.8191 63.4274 37.3612 32.2594 36.9902 31.3214ZM19.7771 26.9544C19.3201 26.8794 18.8031 26.2314 18.3731 25.9444C12.9331 22.3104 18.6901 14.3874 19.4161 12.8734C22.3681 14.1904 24.6041 17.0064 25.2171 20.1804C25.5741 22.0264 25.3501 24.0964 24.1181 25.5174C23.7261 25.9694 23.1831 26.3624 22.5861 26.3204C21.1581 26.2204 22.0511 24.3414 21.6321 23.4814C21.4241 23.0534 20.7411 23.1244 20.5471 23.5194C20.0451 24.5394 20.6972 25.6664 20.3702 26.5284C20.2332 26.8904 20.0201 26.9954 19.7771 26.9544ZM12.3111 30.7194C12.8801 29.4014 16.4951 28.8244 20.6991 28.8044C20.6991 28.8044 20.7081 28.8064 20.7121 28.8064C20.7191 28.8074 20.7262 28.8054 20.7322 28.8044C20.7492 28.8044 20.7662 28.8044 20.7832 28.8044C20.8902 29.7334 20.9541 30.6564 21.2821 31.5584C21.4961 32.1494 22.3731 32.1394 22.5211 31.5034C22.7141 30.6734 22.6411 29.7284 22.5301 28.8304C28.5111 29.0204 34.9521 30.2304 35.3631 31.9964C34.8651 33.1024 34.0181 33.7874 32.8231 34.0504C28.5811 35.9814 8.90113 38.6164 12.3111 30.7194ZM37.2792 61.5394C37.0242 63.2514 36.6502 63.0734 35.0462 63.4724C34.3752 63.6394 33.6911 63.7804 33.0151 63.9324C28.7061 64.9004 24.2351 65.5464 19.8161 65.0194C18.3681 64.8464 16.9051 64.7844 15.4621 64.5564C13.9851 64.3224 10.7581 63.8984 9.73515 62.8024C8.88615 61.8934 9.24314 59.1624 9.26914 57.8324C9.29814 56.3324 9.47314 54.8034 9.57114 53.3064C9.82614 49.3974 10.1012 45.4844 10.3522 41.5804C10.4812 39.5684 10.7731 37.5414 11.0021 35.5164C15.0601 39.5344 28.2401 38.4734 34.1861 35.3994C34.3821 38.7694 34.8361 42.2584 35.5861 45.5104C36.3991 49.0334 36.4161 52.6574 36.8101 56.2454C36.9831 57.8094 37.5092 59.9914 37.2792 61.5394Z" fill="#13102F"/>
<path d="M7.53115 12.3494C6.77415 11.4184 5.59716 11.1334 4.67516 10.4084C3.63116 9.58742 2.45615 8.93242 1.28615 8.30242C0.393151 7.82142 -0.493838 9.18742 0.322162 9.80842C1.40016 10.6294 2.53414 11.3404 3.57714 12.2064C4.34114 12.8414 5.30117 13.1214 6.02517 13.8044C7.01317 14.7384 8.37615 13.3874 7.53115 12.3494Z" fill="#13102F"/>
<path d="M9.912 8.92237C9.559 8.39537 9.065 8.10838 8.54 7.77238C8.045 7.45538 7.69201 7.08138 7.30501 6.64138C6.68301 5.93338 5.78699 5.38037 5.38799 4.51537C5.28599 4.29437 5.05398 4.08838 4.79698 4.08038L4.34599 4.06637C3.69699 4.04637 3.55798 4.94637 4.01698 5.27637C4.20198 6.26937 5.067 6.98037 5.7 7.76737C6.541 8.81337 7.58701 9.40737 8.58901 10.2604C9.44301 10.9884 10.481 9.77037 9.912 8.92237Z" fill="#13102F"/>
<path d="M13.0823 2.28841C12.8633 1.33941 11.6004 1.57242 11.6194 2.50942C11.6404 3.51442 12.0304 4.40342 12.4174 5.31542C12.7854 6.18042 12.9254 7.15441 13.5114 7.90241C13.7464 8.20241 14.2133 8.09541 14.4033 7.81841C15.5603 6.13741 13.4583 3.91941 13.0823 2.28841Z" fill="#13102F"/>
<path d="M19.459 0.611357C19.31 -0.330643 18.056 -0.0956316 17.912 0.716368C17.79 1.40037 17.832 2.12536 17.819 2.81836C17.804 3.58736 17.74 4.38636 17.841 5.14836C17.956 6.01236 19.381 6.38336 19.52 5.33636C19.714 3.86736 19.691 2.07436 19.459 0.611357Z" fill="#13102F"/>
<path d="M25.4533 1.33438C25.3613 1.78638 24.9923 2.07938 24.8503 2.52138C24.7383 2.86838 24.7863 3.25438 24.6293 3.58238C24.3703 4.12538 23.8583 4.68038 23.4453 5.11238C23.0063 5.56938 23.5733 6.43537 24.1443 6.04237C24.7943 5.59437 25.4303 5.02838 25.8833 4.37738C26.1863 3.94338 26.1844 3.44638 26.4214 2.99439C26.6444 2.56739 26.9283 2.28539 27.0233 1.78539C27.2173 0.761385 25.6643 0.297381 25.4533 1.33438Z" fill="#13102F"/>
<path d="M30.9583 2.97838C29.3023 4.11338 28.1383 5.58738 26.9853 7.21438C26.6193 7.73038 27.3153 8.28238 27.7843 7.92038C28.5933 7.29538 29.2483 6.53137 29.9133 5.76237C30.5193 5.06237 31.3753 4.67738 31.9753 3.97738C32.5303 3.33038 31.6003 2.53838 30.9583 2.97838Z" fill="#13102F"/>
<path d="M36.7404 6.25042C35.4554 6.15242 34.4244 6.79243 33.4444 7.57043C32.3594 8.43143 31.3734 9.82043 30.0834 10.3204C29.9274 10.3804 29.8094 10.5424 29.7904 10.7074C29.7784 10.8104 29.7674 10.9134 29.7554 11.0154C29.6994 11.5034 30.4644 11.8054 30.6294 11.2814C30.6604 11.1834 31.9954 10.8054 32.1284 10.7314C32.6314 10.4504 33.1044 10.0444 33.5544 9.68243C34.2534 9.11943 35.3924 7.89143 36.3884 7.98843C37.5234 8.09943 37.8684 6.33642 36.7404 6.25042Z" fill="#13102F"/>
<path d="M41.0633 11.4444C39.9733 11.9604 38.7773 12.1374 37.7773 12.8284C37.1503 13.2624 36.6173 13.2064 35.9283 13.4364C35.6853 13.5174 35.5443 13.7294 35.3213 13.8314C34.9473 14.0014 34.4203 14.0264 34.0323 14.0924C33.4613 14.1884 33.4513 15.1284 34.0193 15.2384C34.4463 15.3214 34.8713 15.4194 35.3093 15.4034C35.9203 15.3824 35.8243 15.1964 36.2823 15.1284C36.9953 15.0234 37.5023 15.1524 38.1773 14.7914C38.9753 14.3644 39.5573 14.0224 40.4433 13.7844C41.0963 13.6094 41.5393 13.3724 41.9893 12.8664C42.5213 12.2664 41.8843 11.0554 41.0633 11.4444Z" fill="#13102F"/>
</svg>
