<svg width="130" height="87" viewBox="0 0 130 87" fill="none" xmlns="http://www.w3.org/2000/svg">
<path d="M126.733 24.5784C123.795 19.4194 120.645 15.0914 115.373 12.1384C110.327 9.31244 104.668 7.75543 98.9275 7.21043C86.0855 5.99243 73.9275 9.17245 62.0185 13.5754C60.4025 11.1114 58.5195 8.84142 56.6525 6.56742C55.0215 4.58142 53.0305 1.33845 50.6185 0.25245C45.9915 -1.83155 45.9435 9.59442 45.5265 12.2444C44.4705 12.3554 29.7325 16.9964 29.3685 17.7064C26.7725 18.1754 25.1455 15.6534 23.1625 14.4224C21.2905 13.2614 19.4795 12.2764 17.7525 10.9094C15.3925 9.04043 14.9695 10.2344 15.3715 12.9624C15.7445 15.4974 15.9485 18.0524 16.1395 20.6064C16.9035 30.8404 17.3985 42.0134 25.1775 49.7034C17.3475 52.4054 7.65051 54.8504 1.55951 60.9284C-0.877489 63.3604 -0.548489 65.7004 3.18551 66.2414C7.61751 66.8834 12.3625 64.4684 16.3725 62.9424C14.3905 64.3914 9.99951 68.2294 13.2345 70.5654C15.1665 71.9604 18.6585 71.2794 20.7855 70.7734C29.1145 68.7904 38.0295 63.6014 44.8675 58.5324C48.4295 55.8914 50.2135 55.2624 54.5895 56.3944C58.6915 57.4554 62.9565 57.9514 67.1725 58.3474C71.6945 58.7724 76.2575 58.9234 80.7865 58.5214C83.1255 58.3134 85.4545 57.9624 87.7415 57.4254C89.0095 57.1274 91.3515 56.8984 92.3215 55.9764C94.0865 57.2234 90.2185 58.4054 89.2315 58.8684C87.0575 59.8884 84.8495 60.8134 82.7065 61.9014C80.7085 62.9154 64.7005 71.8474 73.3885 73.7424C76.1395 74.3424 79.1505 73.1284 81.6725 72.1634C85.8575 70.5624 90.1005 69.0874 94.1985 67.2674C98.1755 65.5014 101.593 63.0864 105.289 60.8524C108.542 58.8854 112.333 57.9314 115.597 55.7014C118.906 58.5294 114.857 64.3714 112.245 65.9174C109.845 67.3384 106.718 67.9234 104.044 68.6414C99.8065 69.7794 95.5375 70.8164 91.2965 71.9484C87.1095 73.0664 82.5025 73.9774 79.0535 76.8274C75.8585 79.4674 76.7665 82.8614 80.3655 84.5184C83.5795 85.9984 87.6075 86.2184 91.0945 86.4574C99.7655 87.0514 109.343 85.3444 116.379 79.9654C120.77 76.6084 124.133 71.5814 125.344 66.1704C126.643 60.3644 124.85 55.3634 122.367 50.1864C128.911 43.6094 131.5 32.9484 126.733 24.5784ZM11.0795 63.3134C9.73051 63.6944 6.31851 64.8234 3.60251 63.6424C4.69051 64.1154 8.74651 61.5664 8.93251 60.7224C9.21351 59.4494 2.51151 62.4034 2.99351 63.1204C-0.257489 58.2804 24.2705 51.3234 26.6185 50.3404C28.0015 51.4654 29.7275 53.2694 31.3475 53.9904C23.7785 57.1894 19.0295 61.0684 11.0795 63.3134ZM42.0745 58.3824C37.9675 60.9414 27.1785 70.2654 15.8215 69.1814C17.0535 69.2994 20.2685 67.2704 20.4285 66.2774C20.5945 65.2444 14.5165 67.7794 15.2255 68.2994C9.55351 64.1424 33.3785 55.7324 33.9245 53.7834C38.0075 54.7874 43.3945 54.4534 47.4255 53.5434C45.7705 53.9174 47.8945 54.7564 42.0745 58.3824ZM34.9605 53.3814C17.4705 50.6954 18.5485 25.5394 17.0705 12.2894C18.8455 13.5774 27.1445 19.8644 29.3535 19.5994C29.5495 21.6184 30.8055 29.5704 34.0305 27.6984C35.7395 26.7064 31.9605 20.2224 31.3165 19.0124C31.3165 19.0124 33.9325 18.5104 34.2335 18.3754C34.4565 20.6944 37.3535 30.4704 40.9825 29.3524C43.5535 28.5604 42.1115 26.1094 41.2565 24.8874C39.6305 22.5634 38.3685 19.4914 37.8305 16.7154C38.5665 16.4164 39.3125 16.1564 40.0725 15.9204C40.4045 18.0064 42.0295 23.9054 45.0345 23.0914C48.6425 22.1144 44.3505 16.8024 43.6515 15.0364C44.7025 14.8464 46.6655 15.0614 47.4875 14.3044C48.2965 13.5584 48.8135 3.75043 49.8125 1.39643C51.9645 3.14843 60.3425 13.5474 61.9125 16.4504C64.7795 21.7494 66.7945 28.9354 66.0375 34.9634C65.2545 41.1924 60.2615 46.5354 54.9885 49.3224C50.1735 51.8664 40.4645 54.2264 34.9605 53.3814ZM79.0555 78.9764C79.6135 77.0914 91.4975 73.6694 93.0905 73.2434C93.1215 73.2884 96.1455 83.4434 96.3575 83.9674C96.3275 83.9674 76.7885 86.6304 79.0555 78.9764ZM99.0415 83.5114C99.0305 81.7914 97.8495 79.6124 97.3265 78.0174C96.8965 76.7084 96.5335 73.8454 95.5685 72.8274C96.4275 72.5784 99.2175 71.9624 100.087 71.7544C100.848 72.8704 101.391 74.1434 101.794 75.4274C102.542 77.8124 101.924 80.6214 102.654 82.8414C101.467 83.1324 100.262 83.3574 99.0415 83.5114ZM105.003 82.2514C105.255 79.1984 104.818 73.5474 102.419 71.2584C104.321 70.8544 106.65 70.1594 108.525 69.6574C110.763 72.4354 110.295 76.2454 111.334 79.4094C109.682 80.3214 106.766 81.6064 105.003 82.2514ZM123.676 63.9424C123.359 66.9404 121.983 69.6644 120.301 72.1194C119.593 73.1534 116.36 78.5594 114.926 78.1354C113.888 77.8284 114.038 76.4294 113.791 75.5794C113.341 74.0344 112.585 72.6374 111.766 71.2604C109.927 68.1674 111.179 68.6804 113.642 66.9794C115.681 65.5704 116.89 63.3104 117.269 60.8944C117.693 58.1914 116.077 55.1094 118.095 53.1094C120.813 50.4154 122.082 52.4364 123.019 55.3474C123.9 58.0874 123.976 61.0974 123.676 63.9424ZM120.462 48.8224C117.641 51.1174 114.693 53.2734 111.551 55.1114C108.636 56.8164 105.647 57.8444 102.831 59.7694C96.7455 63.9294 90.3985 67.5034 83.5255 70.2114C80.9075 71.2424 77.5565 72.8014 74.6685 72.3214C70.8255 71.6824 73.5895 68.8414 75.5245 67.7624C81.9315 64.1914 88.4435 60.8484 94.7215 57.0224C93.3355 55.0294 82.2185 48.7004 84.0545 33.3704C84.4895 29.7394 86.8325 26.3234 89.9575 24.3054C91.6625 23.2044 93.8635 22.1224 95.8025 21.5354C97.1495 21.1274 101.441 21.3664 102.147 20.5594C104.284 18.1154 94.2625 19.3914 92.7865 20.0314C88.7165 21.7984 86.1425 25.6494 83.7925 29.4044C78.0515 38.5784 86.6805 55.8984 91.0725 54.2974C66.4575 63.2674 53.1845 53.2184 50.1255 53.0604C56.8655 50.7384 63.3425 46.5064 66.2565 39.7424C69.5565 32.0804 66.6045 21.5874 62.6625 14.6174C66.2325 13.7504 71.2005 11.7514 74.7515 10.8134C72.8615 12.8664 69.7615 16.5744 68.9635 19.3004C68.5775 20.6184 68.3795 26.6844 71.0355 23.9084C71.8075 23.1024 79.4325 12.0384 80.0885 9.77543C81.1755 9.59843 83.1895 9.39343 84.2845 9.26743C82.9015 11.0424 73.2135 28.7544 79.7425 26.9744C82.1505 26.3184 87.0435 11.1804 89.6105 8.46842C91.3725 8.35242 94.1765 8.55343 95.9445 8.51643C94.3335 10.4464 90.8815 13.0744 89.5795 15.2544C88.8265 16.5154 87.1245 20.7094 89.9865 20.5814C91.6485 20.5074 93.6265 16.5024 94.5535 15.2504C96.0605 13.2134 100.619 8.89144 100.626 8.86744C102.568 9.14944 116.801 9.05343 125.098 23.9304C129.987 32.7014 128.448 42.3264 120.462 48.8224Z" fill="#13102F"/>
<path d="M45.7633 41.2164C45.9093 41.6574 45.5783 42.0664 45.1433 42.1104C43.6543 42.2594 41.8123 42.2394 40.2843 41.6604C40.2793 41.6734 40.2813 41.6854 40.2763 41.6994C39.5103 43.4594 45.8163 43.0014 46.7593 42.8044C49.3863 42.2584 50.4603 39.5634 50.1633 37.0954C49.7863 38.6234 49.0413 40.0984 48.0583 40.8314C47.6803 41.1134 47.2233 40.8404 47.0613 40.4764C46.6393 39.5314 45.9503 38.6784 46.0683 37.6144C46.2273 36.1784 46.2883 34.7704 46.3533 33.3274C44.3983 33.4094 42.1473 33.9324 40.8383 35.3534C41.8033 36.5054 43.3943 36.6834 44.4563 37.7194C45.3913 38.6324 45.3773 40.0454 45.7633 41.2164Z" fill="#13102F"/>
<path d="M56.9925 23.3025C56.8885 22.8905 56.6035 22.7105 56.2935 22.6985C57.5015 26.6345 58.2885 31.7095 55.0055 32.1025C52.3365 32.4215 49.4775 28.2315 48.6315 25.5085C48.4375 25.5895 48.2775 25.7465 48.2455 25.9935C48.1455 26.7585 48.4965 27.1095 48.7675 27.7795C49.1415 28.7015 49.4335 29.6415 50.0175 30.4875C50.9605 31.8525 53.2295 33.7765 54.9925 33.6895C56.7645 33.6015 57.6715 31.9185 58.0065 30.3795C58.5505 27.8835 57.5995 25.6985 56.9925 23.3025Z" fill="#13102F"/>
<path d="M32.4754 31.9164C32.1844 31.5794 31.7984 31.5144 31.4644 31.6144C31.8754 32.4504 32.2204 33.3174 32.5234 34.1104C33.1474 35.7424 34.0004 38.2274 32.8474 39.8274C30.0184 43.7514 24.4504 36.9494 23.6744 33.6594C23.5284 33.7084 23.4044 33.8194 23.3434 34.0304C22.8294 35.8324 24.6364 38.5344 25.7574 39.8614C27.1644 41.5274 29.4644 42.9644 31.7334 42.2974C36.1384 41.0034 34.6334 34.4204 32.4754 31.9164Z" fill="#13102F"/>
</svg>
