<svg width="67" height="71" viewBox="0 0 67 71" fill="none" xmlns="http://www.w3.org/2000/svg">
<path d="M52.1739 40.0682C52.0779 38.5322 51.7469 37.1292 51.1219 35.9322C51.1299 35.1442 50.6789 34.3702 49.5739 33.6542C39.4239 27.0762 24.2209 28.3822 14.3759 30.1432C8.05186 31.2752 -0.947155 34.9242 0.0808455 39.1222C-0.134155 44.2112 4.79887 59.0272 5.70887 61.4592C9.96387 72.8412 15.5889 70.2052 27.1059 69.6392C35.4799 69.2272 40.9498 69.7692 45.3478 62.0522C45.8818 61.1152 46.5179 59.9123 47.1839 58.5343C53.7489 59.4553 64.8369 57.3942 66.4699 49.9142C68.1329 42.2902 58.4979 38.1372 52.1739 40.0682ZM51.8369 45.0083C52.7209 44.9853 53.6229 45.0382 54.4829 45.1822C56.7429 45.5622 60.5728 47.5602 58.8788 50.5452C57.8588 52.3422 54.8738 53.3512 53.0118 53.8312C51.7198 54.1642 50.4409 54.1612 49.1379 54.0982C50.2859 51.2172 51.3119 48.0393 51.8369 45.0083ZM48.0529 37.3912C47.9799 37.3222 47.8979 37.2643 47.7929 37.2413C40.1469 35.5593 32.3198 35.4632 24.5548 36.1152C20.5548 36.4512 16.6539 37.0032 12.7179 37.8132C9.96087 38.3802 6.29786 38.8462 4.19986 40.8742C4.19686 40.8772 4.19584 40.8812 4.19284 40.8842C-9.15616 29.4472 54.2479 25.7882 48.0529 37.3912ZM45.0839 38.6532C40.4299 37.7522 35.8309 38.3073 31.1449 38.0513C30.7929 38.0323 30.8299 37.4462 31.1739 37.4362C35.8339 37.3122 40.6489 36.7482 45.2339 37.8352C45.7509 37.9582 45.6129 38.7562 45.0839 38.6532ZM27.6819 37.8292C27.6599 37.8022 27.6389 37.7763 27.6169 37.7503C27.6299 37.7773 27.6549 37.7922 27.6729 37.8152C27.4189 37.5622 27.5438 37.1002 27.9218 37.0672C28.2628 37.0372 28.5789 37.5063 28.2929 37.7753C28.2919 37.7773 28.2919 37.7762 28.2909 37.7792C28.1609 38.0502 27.8349 38.0222 27.6729 37.8152C27.6779 37.8182 27.6779 37.8242 27.6819 37.8292ZM17.7809 39.1952C15.9759 39.5402 14.1419 39.6873 12.3289 39.9783C10.4149 40.2853 8.89684 41.0543 7.11084 41.5943C6.91384 41.6533 6.69286 41.4593 6.79886 41.2543C7.46886 39.9623 9.57886 39.6272 10.8669 39.3542C13.1249 38.8762 15.4389 38.7362 17.7029 38.2922C18.2739 38.1792 18.3489 39.0862 17.7809 39.1952ZM45.1259 58.1723C39.7109 69.3743 30.0629 68.2022 18.5519 68.4152C7.34585 68.6222 6.99887 62.2652 4.12287 51.6642C3.88987 50.8072 2.56987 45.3282 1.67887 41.4202C2.72087 42.3172 4.27887 43.2232 6.48887 44.1192C15.9559 47.9572 30.2049 45.5192 40.1319 43.3482C42.7519 42.7752 49.2999 39.9712 50.8089 37.0762C51.0239 42.7152 47.0459 54.1993 45.1259 58.1723ZM64.0389 51.6672C61.2449 56.2492 53.2169 57.6362 47.8949 57.0162C48.1089 56.5452 48.3229 56.0553 48.5349 55.5563C52.4109 55.9743 60.0269 54.3392 60.5229 49.7252C61.0079 45.2142 55.7289 43.6473 51.9919 44.0043C52.1259 43.0233 52.2018 42.0632 52.2058 41.1412C58.2638 40.6232 68.7449 43.9492 64.0389 51.6672Z" fill="#13102F"/>
<path d="M8.84698 57.3592C8.48798 56.0862 7.77697 54.8592 7.34997 53.5942C6.56997 51.2872 6.02197 48.9602 5.37897 46.6202C5.29097 46.2982 4.81397 46.3292 4.73697 46.6412C4.36997 48.1322 4.96997 50.0602 5.40097 51.4862C6.02697 53.5582 6.60798 56.9202 8.18298 58.5052C8.40798 58.7322 8.82598 58.7022 8.93698 58.3662C9.09798 57.8812 8.97398 57.8112 8.84698 57.3592Z" fill="#13102F"/>
<path d="M9.23086 59.5203C8.74286 59.5203 8.81785 60.2762 9.30285 60.2762C9.79085 60.2762 9.71586 59.5203 9.23086 59.5203Z" fill="#13102F"/>
<path d="M13.6488 65.7032C13.3858 65.4932 13.1038 65.3522 12.8278 65.1652C12.4988 64.9412 12.2118 64.5703 11.9358 64.2793C11.6718 64.0013 11.5138 63.6773 11.3248 63.3353C11.0918 62.9123 10.4918 62.2682 10.3918 61.8252C10.3058 61.4422 9.70381 61.3322 9.63981 61.7952C9.57181 62.2852 9.7258 62.6993 9.9358 63.1373C10.1908 63.6673 10.4408 64.2852 10.7738 64.7722C11.0238 65.1382 11.3778 65.4623 11.6878 65.7843C12.0458 66.1543 12.5178 66.3133 12.9228 66.6193C13.5218 67.0723 14.2388 66.1742 13.6488 65.7032Z" fill="#13102F"/>
<path d="M25.557 14.3562C24.296 10.3182 20.053 4.95518 24.16 1.19218C24.823 0.585181 23.854 -0.417824 23.191 0.187176C20.688 2.47118 20.729 5.58318 21.702 8.66418C22.441 11.0042 23.885 13.0912 24.465 15.4752C25.215 18.5522 24.318 20.9472 23.776 23.8742C23.672 24.4342 24.555 24.6282 24.738 24.0992C25.46 22.0062 26.155 21.5512 26.128 19.3632C26.105 17.6572 26.071 16.0042 25.557 14.3562Z" fill="#13102F"/>
<path d="M31.8758 17.3192C30.8768 15.1662 29.3928 13.2852 28.8398 10.9352C28.4848 9.42823 28.3978 7.82524 28.4388 6.28324C28.4798 4.75824 28.8868 3.33822 28.6788 1.81622C28.6438 1.56122 28.2648 1.60222 28.2028 1.81622C27.1688 5.39522 26.6088 8.99023 27.9118 12.6382C28.7228 14.9102 30.3798 16.8172 31.0768 19.1322C31.6678 21.0952 31.1128 22.1992 30.2998 23.9672C29.9918 24.6372 29.7318 24.7972 29.5378 25.5352C29.3048 26.4212 30.6818 26.7772 30.9178 25.8882C31.3398 24.3002 32.6658 23.7522 32.8528 22.0492C33.0308 20.4242 32.5488 18.7702 31.8758 17.3192Z" fill="#13102F"/>
<path d="M18.907 16.4522C17.903 15.0272 16.336 13.4842 15.685 11.8432C14.688 9.33119 16.477 8.23018 16.275 5.99118C16.24 5.59918 15.603 5.62819 15.584 6.01819C15.502 7.68519 14.073 8.76419 14.102 10.4552C14.122 11.6212 14.832 12.6882 15.44 13.6212C16.529 15.2942 18.063 16.9012 18.87 18.7372C19.878 21.0302 18.909 23.1682 18.914 25.5172V25.5192C18.914 25.5222 18.914 25.5242 18.914 25.5262H18.915C18.935 26.1192 19.961 26.3312 20.058 25.6312C20.555 22.0582 21.109 19.5782 18.907 16.4522Z" fill="#13102F"/>
</svg>
