<svg width="53" height="83" viewBox="0 0 53 83" fill="none" xmlns="http://www.w3.org/2000/svg">
<path d="M48.7752 29.3014C49.6462 26.4364 50.1972 23.6104 50.5652 20.6474C50.7552 19.1144 51.0582 17.5904 51.4112 16.0894C51.7282 14.7404 52.4742 13.3204 52.3132 11.9224C52.3062 11.8574 52.2832 11.8054 52.2602 11.7534C52.3102 11.5744 52.3512 11.3894 52.3802 11.1954C52.8542 7.98038 48.7362 6.36835 46.4202 5.31235C42.9602 3.73635 38.9792 3.00235 35.2852 2.14835C34.9482 2.07035 34.6282 2.00138 34.3002 1.92838C34.2252 1.85638 34.1482 1.79337 34.0692 1.74637C33.9132 1.65337 33.6722 1.62337 33.5202 1.75437C14.7812 -2.28363 11.5182 1.89937 11.5142 2.00037C11.4442 2.04737 11.3712 2.09436 11.3022 2.14136C9.6962 3.25536 8.84119 4.41337 9.07219 5.79437C8.97019 6.89537 9.17419 7.99037 9.13719 9.13437C9.08619 10.6944 9.07821 12.2484 9.01921 13.8104C8.92121 16.3954 8.91819 18.9634 8.95619 21.5514C9.00419 24.7974 8.92521 28.7554 11.2602 31.3034C12.9772 33.1774 15.4532 34.6554 17.7892 35.6304C21.0262 36.9804 24.9132 37.1474 28.3652 37.5414C30.1172 37.7414 31.8772 37.7834 33.6082 38.0634C34.8212 38.2594 36.1672 38.4874 37.3922 38.5164C39.6502 38.5694 42.7882 38.4154 44.7112 37.0824C47.4742 35.1664 47.8702 32.2794 48.7752 29.3014ZM46.2652 6.39337C47.4022 6.92337 48.5052 7.52237 49.5502 8.20737C52.4342 10.0974 51.1262 12.9934 48.4812 14.1734C48.5022 13.0264 47.9202 12.0814 46.9822 11.2644C45.5812 10.0444 44.1192 10.2554 42.4782 10.2704C41.9002 8.72436 39.8932 8.23437 38.3842 7.99137C36.7692 7.73137 35.4162 7.56435 35.3252 5.51035C35.3012 4.96535 35.4612 4.49036 35.3362 3.94336C35.2872 3.73036 35.1982 3.46336 35.0832 3.18836C38.9192 3.89036 42.7482 4.75437 46.2652 6.39337ZM32.6632 3.66437C33.0292 3.50337 33.4242 3.11537 33.7572 2.98337C33.7772 3.00737 33.7922 3.02835 33.8272 3.05835C35.0352 4.08835 33.8872 5.94135 34.4642 7.22235C35.6362 9.82735 41.1952 8.12136 41.5682 10.8184C41.6092 11.1134 41.8032 11.3244 42.1152 11.3304C44.1082 11.3684 48.0342 11.3934 47.3312 14.6114C47.3302 14.6144 47.3322 14.6164 47.3312 14.6204C44.3572 15.6384 41.0842 15.7054 37.9772 15.5564C31.8162 15.2604 25.7972 13.9803 19.9382 12.1183C17.8482 11.4543 15.6632 10.7084 13.7802 9.57236C13.3452 9.31036 12.8022 8.95837 12.2672 8.54337C13.8282 6.41137 17.7502 6.37636 19.9412 7.10336C21.0602 7.47536 21.7302 7.97036 22.9082 7.39636C24.5112 6.61436 25.7012 5.42235 27.4852 4.92035C29.2422 4.42535 30.9522 4.41637 32.6632 3.66437ZM12.2202 2.55435C12.2362 2.54735 12.2492 2.53537 12.2652 2.52637C12.7142 2.24437 13.1882 1.99438 13.6672 1.77738C14.5122 1.55738 15.5182 1.46437 16.0122 1.36637C17.9192 0.991365 19.4502 0.807355 21.3662 1.09336C24.1402 1.50736 26.9262 1.73538 29.6862 2.23438C30.5422 2.38938 31.4062 2.53835 32.2722 2.68735C30.6782 3.55535 28.7482 3.57038 26.9862 4.08338C25.1652 4.61338 23.7722 6.23136 21.9082 6.42536C20.7462 6.54636 19.8202 5.99735 18.6592 5.83035C17.6492 5.68535 16.4082 5.72037 15.4042 5.90637C13.9122 6.18237 12.4762 6.79236 11.6802 8.05536C10.5832 7.07136 9.72821 5.82937 10.2812 4.54837C10.6202 3.76237 11.3592 3.10235 12.2202 2.55435Z" fill="#13102F"/>
<path d="M20.2623 8.55428C19.5123 8.12428 18.1763 8.1133 17.3273 8.1903C16.4243 8.2723 15.5583 8.1953 14.8933 8.9453C14.7213 9.1383 14.9033 9.5183 15.1723 9.3583C15.9773 8.8793 16.6333 8.84828 17.5363 8.81228C18.3953 8.77828 19.2733 8.98028 20.1243 9.06728C20.4023 9.09628 20.4853 8.68128 20.2623 8.55428Z" fill="#13102F"/>
<path d="M25.504 8.65336C26.154 7.53936 28.02 7.08836 29.179 6.70136C29.733 6.51636 30.287 6.33038 30.867 6.24238C31.365 6.16638 32.1 5.90637 32.59 5.98237C32.821 6.01837 32.947 5.66536 32.746 5.54536C32.225 5.23636 31.859 5.36136 31.276 5.45136C30.395 5.58836 29.619 5.77538 28.775 6.07438C27.591 6.49438 25.544 7.10836 25.105 8.43336C25.028 8.66636 25.367 8.88936 25.504 8.65336Z" fill="#13102F"/>
<path d="M36.2 11.0143C36.941 11.1883 37.604 11.3333 38.288 11.6923C39.239 12.1903 39.706 12.8693 40.368 13.5973C40.635 13.8903 41.206 13.5463 41.039 13.1733C40.522 12.0183 40.034 11.6453 38.88 11.0483C38.346 10.7723 37.834 10.5333 37.243 10.4143C36.329 10.2303 34.922 10.3813 34.519 9.34832C34.419 9.09332 33.979 9.23434 34.059 9.50134C34.373 10.5403 35.198 10.7783 36.2 11.0143Z" fill="#13102F"/>
<path d="M44.0253 13.6353C44.0863 13.9813 43.8623 14.2754 43.9043 14.6134C43.9273 14.8014 44.1573 14.9824 44.3473 14.8794C45.3403 14.3404 44.6313 12.6324 43.8333 12.2494C43.5923 12.1344 43.4333 12.4714 43.5663 12.6464C43.7453 12.8814 43.9733 13.3423 44.0253 13.6353Z" fill="#13102F"/>
<path d="M36.547 14.0384C36.039 13.8324 35.405 14.1764 34.856 14.1734C34.494 14.1714 34.133 14.1274 33.772 14.1494C33.445 14.1694 32.944 14.2504 32.632 14.1294C32.379 14.0304 32.2451 14.3674 32.4631 14.5034C32.9601 14.8124 33.676 14.7004 34.227 14.7674C35.059 14.8674 35.894 14.9474 36.599 14.4224C36.736 14.3204 36.701 14.1014 36.547 14.0384Z" fill="#13102F"/>
<path d="M38.9932 64.3674C38.4792 62.8034 38.0312 61.2354 37.4402 59.7004C37.4722 59.4924 37.4912 59.2844 37.4892 59.0734C37.4722 56.4134 35.0492 54.9494 32.6832 54.5224C29.1762 53.8894 25.8222 54.4954 22.5212 55.7004C19.8152 56.6884 16.6482 57.7584 13.9482 59.2754C9.17918 61.4154 4.77718 65.0154 1.85318 68.9614C0.776181 70.4154 -0.492809 72.5654 0.195191 74.3694C0.197191 74.3774 0.191184 74.3834 0.194184 74.3914C0.889184 76.5344 2.89018 78.9244 4.29218 80.6694C5.53218 82.2134 6.33519 82.7754 8.30319 82.7914C13.7122 82.8334 18.8752 80.6714 23.6822 78.3694C28.8502 75.8954 34.2852 72.8624 38.0932 68.5024C39.4592 66.9394 39.6412 66.3404 38.9932 64.3674ZM1.85819 70.8314C3.80819 67.2494 7.34118 64.1144 11.2502 61.8014C11.3102 61.8124 11.3742 61.8194 11.4412 61.7824C21.6972 56.0014 27.8532 55.3014 31.4622 55.6384C33.2202 55.8024 35.5732 56.4674 36.0902 58.3644C29.5392 57.1244 21.8692 60.2394 16.2472 63.2704C13.1602 64.9344 10.1102 66.7134 7.45517 69.0224C5.81617 70.4494 2.98818 72.7334 2.60318 75.0864C1.19518 74.4584 0.569186 73.1994 1.85819 70.8314ZM36.1572 59.6114C35.7782 61.5574 33.4472 63.3554 32.1122 64.4994C29.1452 67.0394 25.7112 69.0284 22.2102 70.7204C18.2822 72.6184 14.5272 74.5724 10.1722 75.2764C8.50218 75.5464 5.49219 75.8904 3.41119 75.3604C4.05019 72.5204 8.14818 69.6894 10.3062 68.1384C12.5752 66.5074 15.0182 65.1574 17.4982 63.8754C22.8042 61.1304 30.0652 58.1764 36.1572 59.6114Z" fill="#13102F"/>
</svg>
