<svg width="288" height="290" viewBox="0 0 288 290" fill="none" xmlns="http://www.w3.org/2000/svg">
<path d="M91.6512 27.2598C90.2594 23.4455 86.0322 26.4411 84.354 29.1488C83.5123 27.0282 81.9127 25.0778 79.8669 24.318C77.778 23.5418 75.5028 24.1765 74.6231 26.3322C71.3503 34.3539 81.8303 40.7094 86.0892 45.7079C86.5798 46.2837 87.4239 45.9407 87.5507 45.2648C88.1705 41.9787 89.2949 38.6902 90.4775 35.5694C91.3926 33.1559 92.6069 29.8798 91.6512 27.2598Z" fill="#13102F"/>
<path d="M111.981 6.22199C111.638 0.742979 104.705 4.21553 102.172 7.06714C102.288 4.65763 101.695 2.0063 99.5083 0.604431C97.315 -0.799959 94.1575 0.415497 92.8373 2.47989C91.1085 5.18286 92.3827 8.60882 93.7316 11.1153C95.707 14.7856 96.889 18.961 99.0338 22.5142C99.2505 22.8731 99.7636 23.1641 100.17 22.8945C105.302 19.49 112.416 13.1646 111.981 6.22199ZM108.704 11.8219C106.923 15.1824 103.264 18.6398 100.065 20.912C98.4583 18.039 97.2751 14.6974 95.8851 11.7438C94.6632 9.14791 93.3965 7.73092 94.2871 4.57073C94.4639 1.40172 96.3733 1.04275 100.015 3.49508C100.145 3.68527 100.274 3.87672 100.404 4.06691C100.951 5.05817 101.07 6.4084 101.155 7.50042C101.175 7.75989 101.331 7.9123 101.514 7.9652C101.511 7.97024 101.507 7.97527 101.504 7.9803C100.982 8.93378 102.404 9.8671 102.916 8.90355C103.871 7.10366 105.943 5.21057 108.073 5.26347C111.746 5.35542 109.776 9.79783 108.704 11.8219Z" fill="#13102F"/>
<path d="M212.656 63.4483C211.784 62.8634 211.096 62.852 210.089 62.6203C208.341 62.2177 206.966 61.1264 205.723 59.8426C203.247 57.2827 201.188 53.4011 200.507 49.8169C200.439 49.4561 200.109 49.1408 199.747 49.1333C199.728 49.1333 199.71 49.132 199.69 49.132C199.325 48.88 198.692 48.9775 198.588 49.5219C198.06 52.249 197.208 55.1381 195.877 57.5334C194.423 60.1528 192.335 61.8809 190.249 63.8977C189.818 64.3143 189.987 65.0258 190.445 65.3208C193.236 67.116 195.463 68.0845 197.483 71.1027C199.584 74.2425 200.423 77.7266 201.34 81.3842C201.554 82.2362 202.771 82.1577 203.074 81.4336C204.16 78.8395 204.16 76.0137 205.498 73.3816C207.21 70.0139 209.309 66.8514 212.608 65.0004C213.116 64.7156 213.129 63.7673 212.656 63.4483ZM205.277 69.7177C204.259 71.3521 203.219 73.3006 202.569 75.135C202.348 75.7605 202.22 76.4264 202.114 77.0999C201.271 74.2703 200.22 71.6484 198.341 69.1606C196.519 66.7488 194.567 65.7246 192.297 64.3598C195.745 60.8668 198.419 57.3118 199.511 52.4591C199.969 53.8226 200.653 55.4963 200.694 55.5875C201.423 57.1599 202.257 58.6462 203.319 60.0021C204.369 61.3416 205.452 62.6532 206.932 63.4673C207.837 63.9648 209.008 64.1041 210.052 64.3801C208.141 65.7942 206.54 67.6882 205.277 69.7177Z" fill="#13102F"/>
<path d="M170.64 17.0103C169.731 16.4431 169.012 16.432 167.962 16.2074C166.138 15.817 164.703 14.7575 163.407 13.5139C160.823 11.0316 158.674 7.26762 157.963 3.79214C157.892 3.44226 157.548 3.13658 157.171 3.12921C157.151 3.12921 157.132 3.12798 157.111 3.12798C156.73 2.88368 156.07 2.97821 155.961 3.5061C155.41 6.15046 154.521 8.95196 153.132 11.2747C151.615 13.8147 149.436 15.4904 147.26 17.4461C146.81 17.85 146.987 18.5399 147.464 18.826C150.377 20.5668 152.7 21.5059 154.808 24.4326C157.001 27.4772 157.876 30.8557 158.833 34.4024C159.056 35.2286 160.326 35.1537 160.642 34.4503C161.775 31.9348 161.775 29.1947 163.172 26.6424C164.958 23.3769 167.148 20.3102 170.592 18.5154C171.12 18.2391 171.135 17.3184 170.64 17.0103Z" fill="#13102F"/>
<path d="M140.482 105.244C141.337 105.183 145.765 101.555 145.22 101.379C144.877 101.268 142.06 99.4136 141.665 99.0632C141.863 97.2323 141.915 88.9778 141.508 86.7927C141.454 86.5051 140.992 86.5277 140.94 86.804C140.558 88.8635 140.876 99.5593 140.945 99.6246C141.203 100.124 143.645 101.732 143.783 101.836C143.694 101.978 140.958 104.173 140.256 104.654C139.983 104.842 140.17 105.267 140.482 105.244Z" fill="#13102F"/>
<path d="M114.108 93.141C113.028 92.5959 110.328 92.0999 109.793 93.6232C109.719 93.8342 109.952 94.0351 110.143 93.8932C111.364 92.9852 113.339 93.5453 114.425 94.3754C114.89 94.7308 115.225 95.1289 115.494 95.5622C115.2 95.4316 114.902 95.3298 114.642 95.2658C113.445 94.9694 112.044 94.8978 111.039 95.7078C110.804 95.8975 110.945 96.3621 111.263 96.3508C111.632 96.3383 111.942 96.1147 112.303 96.0381C112.819 95.9264 113.439 95.9929 113.964 96.0783C114.613 96.1825 115.899 96.5882 116.152 97.3153C116.188 97.4195 116.256 97.4886 116.336 97.5325C116.484 97.8842 117.077 97.8817 117.072 97.4333C117.05 95.6061 115.677 93.9321 114.108 93.141Z" fill="#13102F"/>
<path d="M166.739 97.0265C166.741 97.0215 166.742 97.0152 166.743 97.0089C166.767 96.9889 166.797 96.9763 166.815 96.9499C167.568 95.7644 168.878 95.0511 170.231 94.7987C170.683 94.7146 171.352 94.854 171.75 94.7121C171.858 94.6731 171.916 94.6292 171.989 94.5476C172.847 93.5793 171.1 93.7011 170.906 93.72C170.005 93.8129 168.91 94.0151 168.161 94.5463C168.077 94.6053 167.988 94.6669 167.896 94.7296C169.002 93.4399 170.695 92.5169 172.167 92.92C172.305 93.0657 172.523 93.1172 172.73 92.9401L172.795 92.8848C173.06 92.6588 172.995 92.2105 172.658 92.0912C171.14 91.5537 169.522 92.1715 168.326 93.1435C167.267 94.0038 165.932 95.5685 166.181 97.0328C166.226 97.3141 166.698 97.3066 166.739 97.0265Z" fill="#13102F"/>
<path d="M122.022 86.5479C123.946 86.0418 125.681 85.0936 127.663 84.6842C129.438 84.3175 131.224 84.3665 133.002 84.6541C133.436 84.7244 133.618 84.207 133.394 83.9094C133.402 83.7725 133.372 83.6344 133.257 83.5352C131.42 81.9578 128.608 82.042 126.178 82.8972C124.929 83.1685 123.761 83.7712 122.729 84.8751C122.636 84.9743 122.598 85.0899 122.594 85.2029C122.386 85.3975 122.181 85.601 121.985 85.8258C121.919 85.9024 121.9 85.9865 121.912 86.0644C121.887 86.0857 121.858 86.1045 121.834 86.1272C121.679 86.2703 121.774 86.6119 122.022 86.5479Z" fill="#13102F"/>
<path d="M147.651 84.1494C149.227 84.1142 150.79 83.7965 152.402 83.8405C154.183 83.8882 157.306 84.0753 158.794 85.1566C159.352 85.5609 159.904 84.8326 159.554 84.3453C159.546 84.2474 159.516 84.1507 159.431 84.0665C156.859 81.5034 150.257 80.5063 147.636 83.4298C147.6 83.47 147.578 83.5115 147.566 83.5529C147.536 83.5667 147.503 83.5768 147.473 83.5906C147.187 83.7275 147.379 84.1557 147.651 84.1494Z" fill="#13102F"/>
<path d="M198.141 124.966C197.503 123.949 196.862 122.933 196.288 121.879C195.179 119.842 194.123 117.343 194.31 114.967C194.481 112.802 195.709 110.498 196.423 108.434C198.711 105.288 195.742 101.23 192.968 99.6536C190.714 98.3726 188.134 97.7309 185.836 96.5341C183.169 95.1452 181.575 93.4222 180.544 90.5602C179.621 88.0009 179.454 85.1929 179.242 82.5004C179.02 79.661 178.753 76.8279 178.365 74.0048C177.641 68.7304 176.068 63.6154 173.144 59.1108C171.663 56.8303 170.12 54.7017 167.84 53.1784C165.378 51.5332 163.237 51.1289 160.493 51.7379C159.659 51.0661 159.058 50.3289 158.09 49.7588C156.78 48.989 155.408 48.3083 153.962 47.8123C150.839 46.7411 147.457 46.5276 144.182 46.5351C136.89 46.5502 129.317 47.5134 122.737 50.8011C116.925 53.7046 111.844 57.5838 108.462 63.2487C105.139 68.817 104.592 75.9061 103.273 82.1287C102.459 85.9702 101.414 89.7879 100.504 93.6068C100.092 95.3361 99.6722 97.0566 99.1322 98.7506C98.7981 99.8005 98.4616 100.862 98.0032 101.865C97.8613 102.177 97.683 102.472 97.5021 102.765C94.9139 106.326 90.6768 105.066 86.9307 106.137C83.7786 107.038 82.0757 110.799 82.6358 113.848C82.951 115.565 83.9192 117.049 85.3006 118.128C85.9461 118.631 86.726 119.071 87.4719 119.406C88.0961 119.688 89.0154 120.043 89.5378 120.506C88.3561 121.19 87.3225 122.08 86.52 123.13C85.4664 123.258 84.3764 123.309 83.4772 123.617C81.6801 124.23 79.9358 125.256 78.7767 126.792C76.9658 129.19 77.8009 131.694 80.4645 132.992C81.0937 133.298 81.9237 133.318 82.5077 133.642C82.8681 133.843 83.0929 134.03 83.2248 134.212C83.0565 134.194 82.8844 134.264 82.8053 134.474C82.5517 135.14 82.2453 135.836 81.9389 136.546C81.5609 137.079 81.3109 137.681 81.223 138.308C80.4658 140.36 80.0652 142.463 81.2431 144.376C82.8882 147.046 85.1336 147.994 88.1815 147.537C89.7902 147.295 90.997 146.516 92.3558 145.68C93.52 144.965 94.6364 144.725 95.803 144.626C98.8069 147.313 104.414 146.714 107.829 144.427C108.641 143.882 109.421 143.184 110.134 142.391C113.294 143.293 117.02 141.54 119.669 139.625C120.963 138.688 122.014 137.322 122.65 135.807C122.65 135.925 122.651 136.043 122.651 136.161C122.652 136.381 122.767 136.514 122.915 136.583C123.092 138.858 124.647 141.041 125.984 142.782C127.323 144.524 128.754 146.11 130.652 147.285C135.29 150.159 140.3 151.698 145.695 150.14C149.41 149.066 153.686 147.056 155.816 143.699C157.16 141.581 158.042 139.207 158.924 136.877C159.292 135.905 159.436 132.649 160.254 132.162C161.267 131.558 164.423 133.519 165.37 133.993C168.928 135.775 172.236 138.02 175.841 139.713C179.627 141.49 183.713 142.631 187.872 143.073C190.456 143.348 193.122 143.346 195.589 142.528C198.055 141.711 200.313 139.98 201.292 137.574C202.366 134.931 201.776 131.875 200.587 129.281C199.898 127.773 199.021 126.369 198.141 124.966ZM120.383 72.0206C130.642 77.6969 144.034 71.1629 150.386 62.3797C150.72 61.9176 151.378 62.4852 151.059 62.9448C145.125 71.4844 129.765 79.6597 120.114 72.4401C119.886 72.268 120.136 71.8825 120.383 72.0206ZM157.878 136.896C157.064 139.128 156.204 141.376 154.988 143.423C152.763 147.17 148.753 148.647 144.649 149.423C139.896 150.322 135.747 148.966 131.663 146.635C129.799 145.571 128.278 144.042 126.985 142.356C125.649 140.616 124.087 138.535 123.671 136.303C123.697 136.239 123.715 136.166 123.714 136.085C123.702 131.133 123.852 126.14 123.806 121.168C123.829 119.981 123.825 118.791 123.737 117.623C123.729 117.368 123.716 117.114 123.706 116.859C124.796 118.095 125.933 119.295 127.08 120.523C131.56 125.32 136.834 127.78 143.411 127.536C146.031 127.44 148.258 126.119 150.314 124.589C153.106 122.512 155.606 119.971 157.74 117.21C158.045 116.814 158.307 116.395 158.561 115.972C158.415 117.734 158.552 119.624 158.62 121.387C158.629 121.819 158.636 122.249 158.636 122.675C158.638 125.714 158.639 128.752 158.64 131.791C158.601 131.884 158.588 131.991 158.636 132.118C158.639 132.123 158.639 132.129 158.642 132.135V132.371C158.642 132.528 158.702 132.651 158.786 132.751C158.955 134.096 158.304 135.728 157.878 136.896ZM175.647 99.0458C174.509 101.495 172.744 103.769 169.7 103.329C168.643 103.176 167.405 102.575 166.577 101.876C166.073 101.452 165.893 100.794 165.349 100.432C164.687 99.9926 164.084 101.073 164.745 101.51C164.525 101.364 164.972 102.035 165.206 102.337C164.823 103.354 164.129 104.252 163.715 105.222C163.149 106.544 162.664 107.668 161.833 108.881C160.563 110.737 159.151 112.566 158.04 114.509C156.478 117.237 154.22 119.935 151.84 122.021C149.553 124.025 146.669 126.183 143.537 126.418C137.232 126.891 131.684 124.073 127.574 119.39C125.656 117.205 123.46 115.321 121.827 112.912C121.349 112.207 116.946 104.927 117.372 104.812C117.613 104.748 117.686 104.488 117.628 104.284C117.737 104.176 117.848 104.068 117.954 103.948C118.468 103.376 117.65 102.494 117.133 103.069C113.298 107.34 107.546 103.209 105.904 98.9616C104.889 96.3395 105.634 93.6031 107.922 91.9065C109.49 90.7448 111.124 90.8742 112.773 91.2698C113.471 91.5925 114.196 91.806 114.91 91.8474C114.94 91.855 114.971 91.8638 115.002 91.8713C115.07 91.8889 115.131 91.8776 115.185 91.8525C116.294 91.8449 117.362 91.3966 118.237 90.2375C120.568 87.1507 120.469 82.896 120.752 79.2127C124.133 80.623 127.647 80.7686 131.32 80.3391C135.498 79.8506 139.601 79.1172 143.528 77.5688C149.166 75.3448 153.797 70.9996 156.656 65.7114C156.337 70.53 157.2 75.7202 158.865 80.1483C159.723 82.4301 161.004 84.6516 162.504 86.5717C163.586 87.9544 164.977 89.8394 166.725 90.5238C166.104 91.0839 165.618 91.7645 165.363 92.5582C165.226 92.9865 165.908 93.2627 166.1 92.8496C167.078 90.7423 170.107 89.4225 172.265 89.862C176.347 90.6908 177.166 95.7744 175.647 99.0458Z" fill="#13102F"/>
<path d="M100.282 281.724C98.3691 281.6 95.9064 281.678 93.9838 281.651C91.6392 281.619 89.3109 281.272 86.9826 281.333C84.9005 281.387 83.1122 281.119 81.0778 280.87C79.66 280.697 78.4343 280.83 77.2224 281.608C73.4801 284.006 69.2179 285.82 65.0398 287.369C63.0217 288.118 60.652 288.345 58.5158 288.478C56.401 288.609 54.2033 288.733 52.0898 288.786C46.9761 288.914 42.5167 287.521 37.6831 286.015C35.4088 285.307 32.8972 284.992 30.6882 284.142C28.4328 283.274 26.2639 282.161 24.0211 281.253C19.6157 279.469 15.4715 277.306 12.062 273.983C8.73405 270.74 6.43088 266.123 4.50446 261.93C3.62664 260.02 3.04144 257.782 2.36833 255.779C1.50307 253.2 1.15017 250.648 1.22427 247.929C1.36366 242.833 2.88068 237.955 4.75812 233.249C5.48022 231.436 6.62176 229.789 7.5473 228.07C8.75037 225.833 10.5399 224.36 12.1486 222.459C13.3542 221.033 14.7607 219.769 15.9248 218.328C17.2648 216.671 18.5194 214.994 20.0941 213.534C22.9624 210.871 25.1375 207.499 27.4821 204.392C30.4747 200.427 33.348 196.419 36.6634 192.707C37.9569 191.259 39.499 190.086 40.7071 188.569C41.2496 187.889 41.7808 187.199 42.3283 186.521C43.1559 185.499 44.1417 184.73 45.0133 183.769C46.357 182.29 47.5601 180.71 48.9528 179.251C50.7209 177.399 52.4402 175.514 54.2159 173.666C57.7045 170.038 61.1731 166.404 64.8715 163C66.499 161.501 67.6041 159.615 69.3773 158.251C71.2824 156.786 73.2164 155.278 74.9318 153.592C78.5285 150.061 83.3496 147.858 87.9044 145.756C90.3721 144.617 92.5095 143.273 95.1831 142.623C97.1937 142.133 100.059 140.886 102.139 141.778C102.16 142.099 102.572 142.404 102.935 142.159C103.018 142.103 103.101 142.048 103.184 141.991C103.438 141.819 103.392 141.386 103.151 141.23C101.938 140.45 100.539 140.449 99.1452 140.642C97.107 140.925 94.8779 141.529 92.9289 142.186C90.8857 142.873 89.061 144.135 87.0981 145.023C84.5928 146.155 82.1013 147.394 79.7001 148.737C75.9716 150.826 73.1385 154.039 69.8006 156.669C66.4212 159.333 63.9522 162.777 60.7085 165.607C57.0427 168.804 53.5591 172.566 50.3354 176.204C47.2938 179.639 44.0061 182.816 41.1328 186.369C38.144 190.065 34.6352 193.281 31.669 197.03C28.7404 200.729 26.1597 204.705 23.2613 208.416C21.9553 210.089 20.4596 211.74 18.9212 213.196C17.256 214.771 15.9575 216.659 14.4066 218.324C13.3052 219.507 12.229 220.718 11.1829 221.959C9.72864 223.686 7.94034 225.004 6.82895 227.017C5.77281 228.93 4.52581 230.786 3.69822 232.81C2.70613 235.234 1.86597 237.752 1.16774 240.275C-0.051659 244.679 -0.467341 249.661 0.657869 254.132C1.74289 258.442 3.43827 262.67 5.55431 266.564C7.61511 270.355 9.83289 274.025 13.2751 276.732C17.0626 279.711 21.473 281.361 25.8294 283.349C30.6367 285.543 35.7052 286.645 40.746 288.206C43.2589 288.984 45.7843 289.769 48.4241 289.959C50.8993 290.137 53.2728 289.684 55.7191 289.646C58.0951 289.608 60.3556 289.551 62.7153 289.151C65.1528 288.738 67.1772 287.569 69.464 286.711C71.7948 285.838 74.3014 284.943 76.4288 283.629C77.9182 282.709 78.6528 281.829 80.6571 281.982C81.6178 282.056 82.5458 282.356 83.5002 282.47C84.7121 282.615 85.9076 282.48 87.1208 282.469C88.5813 282.455 90.0079 282.695 91.4684 282.749C94.1697 282.847 97.637 282.446 100.323 282.618C100.323 282.618 101.013 281.772 100.282 281.724Z" fill="#13102F"/>
<path d="M107.668 204.034C104.019 204.101 100.372 203.427 97.3778 202.148C93.8515 200.643 91.4415 198.152 89.8504 195.166C89.8228 195.127 89.7914 195.094 89.7638 195.054C87.988 192.49 87.2358 189.418 87.2998 186.327C87.3061 186.044 87.3112 185.754 87.3187 185.46C87.2321 184.1 87.2283 182.735 87.2961 181.386C87.0952 181.267 86.7624 181.348 86.7523 181.633C86.7436 181.903 86.5313 182.148 86.4698 182.424C86.2965 183.188 86.3781 184.047 86.3568 184.822C86.2952 187.141 86.5891 188.928 87.0387 191.17C87.3062 192.502 87.8311 193.874 88.5306 195.17C88.5029 196.059 88.7001 197.012 88.8093 197.843C88.9789 199.128 89.3079 200.427 89.5754 201.696C90.3075 205.173 90.9895 208.651 91.6186 212.15C92.8368 218.922 93.8715 225.716 95.0997 232.491C95.1926 233.004 95.965 232.994 96.0165 232.462C96.3304 229.266 94.9629 225.848 94.5849 222.676C94.1968 219.414 93.604 216.158 92.9309 212.943C92.2691 209.782 91.8597 206.566 91.1389 203.419C91.0573 203.064 90.2146 199.562 89.76 197.127C90.5637 198.21 91.4943 199.171 92.504 199.913C95.2479 201.931 98.5821 203.294 101.94 203.757C104.325 204.086 106.506 204.294 108.921 204.242C109.02 204.239 109.118 204.227 109.216 204.22C108.713 204.174 108.194 204.114 107.668 204.034Z" fill="#13102F"/>
<path d="M100.661 282.046C100.688 281.928 100.67 281.831 100.636 281.744C100.495 277.06 100.485 253.707 101.018 249.348C101.06 248.999 100.86 248.704 100.488 248.694C96.3801 248.576 88.535 248.304 87.8367 247.181C86.3875 244.846 82.2019 238.47 80.327 236.473C78.496 234.523 76.4804 232.569 74.3794 230.905C72.1039 229.104 69.5872 227.99 67.0982 226.541C63.1311 224.232 59.2808 221.512 55.0135 219.799C55.016 219.733 55.0148 219.668 54.9934 219.597C54.7737 218.877 54.1307 218.255 53.6811 217.655C53.0017 216.748 52.4253 215.773 51.7446 214.871C50.9334 213.797 50.1296 212.702 49.2958 211.643C48.4946 210.626 46.9185 209.215 46.5292 207.95C46.5254 207.955 46.5217 207.96 46.5179 207.964C46.3798 207.369 45.404 207.503 45.5258 208.205C45.669 209.031 46.4551 209.851 46.9374 210.513C47.8579 211.778 48.8437 213.004 49.7743 214.262C50.5679 215.333 51.2787 216.441 52.0623 217.514C52.429 218.017 53.0205 218.584 53.4538 219.172C51.5261 218.4 49.6826 217.504 47.6557 216.908C45.0247 216.132 42.3034 215.958 39.6624 215.238C39.3434 215.151 39.1588 215.598 39.4765 215.726C41.9153 216.709 44.5488 216.858 47.0027 217.691C49.0409 218.385 50.8706 219.323 52.8271 220.164C55.5058 221.316 57.9157 222.206 60.3671 223.869C61.9896 224.969 63.71 225.95 65.4544 226.866C67.7977 228.097 70.337 229.32 72.4756 230.879C74.6293 232.449 76.4026 234.388 78.3554 236.178C80.4274 238.078 82.227 240.215 83.7666 242.564C84.539 243.743 85.2874 244.993 85.9304 246.247C86.2268 246.824 86.8447 247.6 87.1034 248.269C86.3825 250.709 86.2431 253.225 86.0146 255.765C85.7345 258.865 84.814 272.292 85.0338 275.843C85.1644 277.953 85.9204 279.771 85.8802 281.856C85.8689 282.45 86.8597 282.495 86.9891 281.91C87.3269 280.389 86.4629 278.553 86.2921 276.975C88.8828 276.828 91.4987 277.206 94.0945 277.011C95.6492 276.894 97.5467 277.05 99.0524 276.697C99.2948 276.641 99.4329 276.421 99.443 276.209C99.4304 278.187 99.4317 280.163 99.4983 282.135C99.5221 282.831 100.508 282.729 100.639 282.136C100.647 282.106 100.655 282.076 100.661 282.046ZM88.8426 248.608C90.9022 248.877 97.8293 249.614 99.9127 249.722C99.8059 250.605 99.7293 251.502 99.6489 252.396C97.3282 252.26 94.9798 252.062 92.6867 251.755C90.8959 251.516 89.1604 251.825 87.3947 251.806C87.509 250.871 87.1184 248.384 88.8426 248.608ZM87.2992 252.652C89.0938 252.921 91.1119 252.51 92.9065 252.768C95.0966 253.083 97.3382 253.239 99.5535 253.348C99.4631 254.492 99.4003 255.641 99.3526 256.793C96.8033 256.971 94.2125 256.48 91.6544 256.623C90.4288 256.692 89.2081 256.759 87.9724 256.76C87.5981 256.76 87.2804 256.703 86.9878 256.74C87.0682 255.378 87.1586 254.013 87.2992 252.652ZM86.9175 257.88C86.9263 257.729 86.9363 257.577 86.9451 257.425C87.9561 257.315 89.2269 257.628 90.2027 257.592C91.176 257.557 92.1417 257.52 93.1137 257.495C95.1117 257.443 97.3257 257.972 99.325 257.683C99.2722 259.344 99.276 261 99.3099 262.646C98.4735 262.524 96.3738 262.499 96.2721 262.491C95.0929 262.412 93.9237 262.186 92.747 262.113C90.7829 261.992 88.6329 262.051 86.66 262.268C86.7442 260.807 86.8346 259.346 86.9175 257.88ZM86.4478 266.613C86.493 265.401 86.5583 264.194 86.6249 262.986C88.6028 263.332 90.6535 262.917 92.649 263.069C94.9082 263.24 97.077 263.453 99.3325 263.5C99.3475 263.996 99.3488 264.496 99.3727 264.988C99.4016 265.581 99.4204 266.175 99.438 266.767C97.3483 266.647 95.1908 266.683 93.1187 266.745C90.9336 266.809 88.5764 266.747 86.4215 267.189C86.4315 266.997 86.4415 266.805 86.4478 266.613ZM86.3988 267.707C88.3717 267.992 90.5569 267.801 92.5323 267.741C94.799 267.672 97.1687 267.605 99.4606 267.723C99.4782 268.651 99.4781 269.579 99.4781 270.507C98.589 270.661 97.4576 270.549 96.581 270.612C95.3114 270.702 94.0443 270.644 92.7709 270.647C90.5694 270.65 88.4094 270.791 86.2255 270.956C86.2783 269.869 86.3448 268.784 86.3988 267.707ZM100.134 275.62C98.1332 275.465 88.1733 275.337 86.0409 275.883C85.9229 274.32 86.1338 273.108 86.2004 271.522C88.2775 272.078 90.911 271.605 93.0182 271.626C95.0288 271.645 97.4676 271.913 99.4819 271.541C99.4757 273.093 99.4568 274.645 99.4455 276.196C99.4505 275.985 100.415 275.641 100.134 275.62Z" fill="#13102F"/>
<path d="M93.0723 217.507C92.9606 216.934 92.1669 217.071 92.1066 217.599C91.6445 221.656 90.3572 224.959 88.2701 228.459C86.3612 231.657 83.2883 234.453 80.6548 237.047C80.1224 237.572 80.8733 238.456 81.4196 237.933C84.3444 235.126 87.5857 232.12 89.6025 228.568C91.4084 225.385 93.8183 221.314 93.0723 217.507Z" fill="#13102F"/>
<path d="M160.927 127.852C160.855 127.449 160.21 127.489 160.141 127.873C159.612 130.843 160.043 133.984 159.73 136.988C159.465 139.546 158.455 142.137 157.22 144.366C155.917 146.713 154.457 149.104 152.25 150.749C149.853 152.536 146.342 153.401 143.451 153.855C136.872 154.886 131.006 151.939 126.417 147.388C124.589 145.575 123.046 142.993 122.293 140.52C121.909 139.26 121.647 137.913 121.433 136.612C121.323 135.945 121.219 131.098 121.114 131.126C121.527 131.014 121.473 130.378 121.022 130.445C120.981 130.451 120.94 130.458 120.899 130.464C120.741 130.488 120.626 130.618 120.604 130.771C119.076 140.798 124.447 149.879 133.721 153.905C138.379 155.927 143.899 155.407 148.563 153.75C150.964 152.898 152.9 151.84 154.66 150.008C156.137 148.47 157.223 146.831 158.216 144.971C159.381 142.791 160.419 140.381 160.804 137.91C161.026 136.482 160.942 135.03 161.052 133.595C161.196 131.723 161.256 129.698 160.927 127.852Z" fill="#13102F"/>
<path d="M198.701 144.185C197.533 142.158 194.057 141.708 191.992 141.317C190.097 140.956 188.184 140.993 186.292 140.561C184.711 140.2 183.756 139.373 182.301 138.732C181.819 138.52 182 138.481 181.474 138.403C181.185 138.36 180.939 138.768 181.257 138.923C182.374 139.467 183.153 140.538 184.34 141.035C185.548 141.541 186.983 141.899 188.265 142.099C190.052 142.378 191.715 142.434 193.484 142.888C194.733 143.208 196.934 143.458 197.645 144.729C198.018 145.399 199.084 144.848 198.701 144.185Z" fill="#13102F"/>
<path d="M144.652 106.946C144.182 108.084 144.196 109.095 143.414 110.156C142.383 111.555 140.744 111.761 139.183 111.244C137.167 110.574 136.395 108.893 135.985 106.907C135.91 106.548 135.374 106.502 135.316 106.9C134.948 109.44 136.941 111.885 139.331 112.461C140.607 112.767 142.216 112.763 143.296 111.938C144.95 110.675 144.957 109.105 145.678 107.371C145.952 106.711 144.926 106.284 144.652 106.946Z" fill="#13102F"/>
<path d="M118.108 103.565C118.242 103.298 117.96 103.049 117.715 103.229C116.928 103.804 116.897 105.045 116.908 105.928C116.919 107.069 117.175 108.187 117.733 109.173C117.832 109.349 118.14 109.37 118.201 109.145C118.686 107.356 117.184 105.398 118.108 103.565Z" fill="#13102F"/>
<path d="M165.407 100.713C165.321 100.41 164.855 100.457 164.803 100.755C164.66 101.549 164.68 102.387 164.608 103.194C164.516 104.22 164.068 105.194 164.135 106.233C164.152 106.506 164.467 106.609 164.636 106.386C165.766 104.889 165.898 102.464 165.407 100.713Z" fill="#13102F"/>
<path d="M115.102 100.481C113.364 100.642 111.489 100.609 110.163 99.233C109.037 98.0651 108.541 96.4375 108.967 94.8715C109.022 94.6694 108.758 94.5827 108.647 94.7372C107.578 96.1989 108.455 98.3677 109.443 99.6009C110.607 101.053 113.696 102.336 115.348 101.084C115.618 100.877 115.427 100.451 115.102 100.481Z" fill="#13102F"/>
<path d="M175.027 94.4056C174.978 94.4182 174.929 94.4308 174.88 94.4433C174.655 94.5023 174.483 94.81 174.637 95.0197C174.85 95.3086 173.906 96.9449 173.744 97.2325C173.216 98.1706 172.543 99.1426 171.574 99.6801C169.728 100.705 168.162 99.6788 166.53 98.9391C166.274 98.8236 166.085 99.1941 166.253 99.3774C167.681 100.935 170.046 101.561 172.005 100.542C173.844 99.5846 175.557 97.0027 175.59 94.9055C175.595 94.6166 175.337 94.3253 175.027 94.4056Z" fill="#13102F"/>
<path d="M164.674 100.749C164.075 102.798 163.437 104.806 162.676 106.802C162.09 108.34 160.887 110.018 160.843 111.697C160.835 111.988 161.254 112.079 161.416 111.874C161.896 111.269 162.017 110.568 162.313 109.86C162.747 108.822 163.272 107.843 163.662 106.78C164.384 104.813 165.137 102.918 165.276 100.804C165.299 100.442 164.765 100.437 164.674 100.749Z" fill="#13102F"/>
<path d="M196.402 215.994C195.322 217.031 194.169 218.108 192.712 218.45C191.256 218.792 189.437 218.069 189.141 216.602C188.795 214.891 190.576 213.521 192.221 212.934C189.703 208.446 187.149 203.909 183.618 200.166C180.085 196.424 175.416 193.5 170.286 193.097C166.438 192.795 162.382 194.171 159.701 196.856C157.763 195.119 155.778 193.611 153.31 193.254C149.186 192.655 145.54 195.693 143.894 198.765C142.172 201.977 141.825 205.644 141.599 209.433C140.966 220.003 140.929 230.693 141.465 241.297H140.789C141.219 234.586 140.47 227.917 138.555 221.459C138.008 219.609 137.218 217.324 135.953 215.205C136.05 214.182 136.035 213.158 135.884 212.153C136.8 208.357 134.803 204.205 131.606 201.932C131.577 201.91 131.545 201.893 131.515 201.872C131.601 196.076 132.561 191.041 134.42 186.513C134.5 186.316 134.626 186.067 134.772 185.795C138.521 188.191 142.663 189.767 146.328 190.106C152.422 190.67 158.464 188.9 164.326 187.145C162.295 183.874 160.265 180.606 158.235 177.335C161.811 179.163 165.539 180.69 169.369 181.895C170.035 182.105 170.739 182.306 171.42 182.157C172.207 181.983 172.815 181.375 173.374 180.795C176.097 177.972 178.819 175.149 181.542 172.326C179.279 170.7 177.172 168.856 175.259 166.829C178.769 166.711 182.278 166.593 185.788 166.475C186.03 159.656 186.867 152.857 188.288 146.184C172.456 144.369 155.825 142.655 141.087 148.718C140.109 149.121 138.981 149.803 139.036 150.86C140.763 152.681 139.988 156.176 137.652 157.097C135.317 158.017 132.367 155.99 132.387 153.481C127.238 156.696 123.522 162.376 123.336 168.443C123.141 174.769 127.672 180.804 133.45 184.903C133.255 185.272 133.082 185.618 132.961 185.914C131.123 190.391 130.131 195.329 129.961 200.949C126.97 199.447 123.428 199.091 120.076 199.489C116.084 199.963 112.28 201.403 108.522 202.831C109.214 204.006 109.595 205.721 108.531 206.573C107.62 207.304 106.167 206.826 105.466 205.891C104.764 204.957 104.613 203.733 104.485 202.571C96.4102 205.201 88.9569 209.714 82.8838 215.65C86.2908 217.591 89.6965 219.532 93.1036 221.472C94.063 222.019 95.0375 222.572 96.1087 222.844C99.0574 223.592 102.063 222.105 104.742 220.665C103.415 222.712 102.086 224.759 100.759 226.807C103.714 228.473 106.972 229.599 110.325 230.112C111.027 230.22 111.785 230.292 112.412 229.958C112.886 229.704 113.218 229.252 113.532 228.815C114.793 227.062 116.052 225.308 117.313 223.554C117.277 226.194 116.808 228.829 115.929 231.318C121.637 230.542 127.43 228.637 131.499 224.559C131.876 224.181 132.232 223.781 132.57 223.362C132.883 224.844 133.203 226.319 133.521 227.77C134.489 232.198 135.477 236.736 136.167 241.297H123.334L131.812 284.897H151.19L159.063 241.297H143.045C142.506 230.724 142.543 220.066 143.174 209.527C143.39 205.922 143.714 202.442 145.285 199.511C146.68 196.909 149.708 194.332 153.084 194.816C155.137 195.113 156.909 196.472 158.662 198.045C158.294 198.539 157.969 199.066 157.693 199.624C153.437 203.399 151.304 209.617 151.817 215.412C152.467 222.757 156.593 229.384 161.561 234.833C162.742 231.666 164.444 228.693 166.576 226.071C166.374 228.828 166.173 231.585 165.971 234.343C165.921 235.03 165.874 235.746 166.133 236.385C166.475 237.228 167.278 237.779 168.056 238.25C171.77 240.498 175.894 242.068 180.164 242.856C180.541 239.756 180.918 236.655 181.294 233.553C182.744 237.168 184.475 241.096 187.985 242.782C189.26 243.395 190.672 243.651 192.063 243.902C197.002 244.794 201.943 245.684 206.882 246.575C205.789 235.76 202.172 225.207 196.402 215.994ZM135.059 227.431C134.638 225.509 134.211 223.549 133.807 221.582C134.538 220.367 135.109 219.056 135.486 217.702C136.173 219.169 136.667 220.645 137.041 221.906C138.912 228.217 139.627 234.736 139.195 241.295H137.762C137.063 236.606 136.05 231.962 135.059 227.431Z" fill="#13102F"/>
<path d="M100.382 254.802C108.011 255.503 115.747 255.037 123.237 253.427C127.495 252.511 131.691 251.225 136.025 250.796C136.437 252.732 134.65 254.406 132.937 255.4C130.346 256.902 127.476 257.918 124.519 258.381C130.841 259.015 137.259 258.675 143.478 257.375C143.938 259.209 142.423 260.934 140.873 262.018C135.318 265.903 128.166 266.446 121.399 266.86C128.753 267.648 136.19 265.917 143.046 263.138C142.929 264.47 142.426 265.766 141.613 266.828C140.328 268.508 138.369 269.526 136.409 270.319C131.461 272.318 126.129 273.205 120.812 273.658C127.765 273.934 134.751 273.374 141.572 271.992C140.936 273.993 138.736 274.992 136.735 275.635C131.821 277.214 126.681 278.091 121.52 278.229C126.042 279.083 130.729 279.059 135.242 278.16C134.51 279.219 133.161 279.633 131.901 279.892C126.739 280.952 121.374 280.584 116.198 279.598C111.021 278.613 105.983 277.025 100.902 275.632C100.58 275.544 100.052 275.677 100.195 275.979" fill="white"/>
<path d="M100.382 254.802C108.011 255.503 115.747 255.037 123.237 253.427C127.495 252.511 131.691 251.225 136.025 250.796C136.437 252.732 134.65 254.406 132.937 255.4C130.346 256.902 127.476 257.918 124.519 258.381C130.841 259.015 137.259 258.675 143.478 257.375C143.938 259.209 142.423 260.934 140.873 262.018C135.318 265.903 128.166 266.446 121.399 266.86C128.753 267.648 136.19 265.917 143.046 263.138C142.929 264.47 142.426 265.766 141.613 266.828C140.328 268.508 138.369 269.526 136.409 270.319C131.461 272.318 126.129 273.205 120.812 273.658C127.765 273.934 134.751 273.374 141.572 271.992C140.936 273.993 138.736 274.992 136.735 275.635C131.821 277.214 126.681 278.091 121.52 278.229C126.042 279.083 130.729 279.059 135.242 278.16C134.51 279.219 133.161 279.633 131.901 279.892C126.739 280.952 121.374 280.584 116.198 279.598C111.021 278.613 105.983 277.025 100.902 275.632C100.58 275.544 100.052 275.677 100.195 275.979" stroke="#13102F" stroke-width="0.6735" stroke-miterlimit="10"/>
<path d="M186.839 281.724C188.752 281.6 191.215 281.678 193.137 281.651C195.482 281.619 197.81 281.272 200.139 281.333C202.221 281.387 204.009 281.119 206.043 280.87C207.461 280.697 208.687 280.83 209.899 281.608C213.641 284.006 217.903 285.82 222.081 287.369C224.099 288.118 226.469 288.345 228.605 288.478C230.72 288.609 232.918 288.733 235.031 288.786C240.145 288.914 244.604 287.521 249.438 286.015C251.712 285.307 254.224 284.992 256.433 284.142C258.688 283.274 260.857 282.161 263.1 281.253C267.506 279.469 271.65 277.306 275.059 273.983C278.387 270.74 280.69 266.123 282.617 261.93C283.495 260.02 284.08 257.782 284.753 255.779C285.618 253.2 285.971 250.648 285.897 247.929C285.758 242.833 284.24 237.955 282.363 233.249C281.641 231.436 280.499 229.789 279.574 228.07C278.371 225.833 276.581 224.36 274.973 222.459C273.767 221.033 272.36 219.769 271.196 218.328C269.856 216.671 268.602 214.994 267.027 213.534C264.159 210.871 261.984 207.499 259.639 204.392C256.646 200.427 253.773 196.419 250.458 192.707C249.164 191.259 247.622 190.086 246.414 188.569C245.872 187.889 245.34 187.199 244.793 186.521C243.965 185.499 242.979 184.73 242.108 183.769C240.764 182.29 239.56 180.71 238.167 179.251C236.399 177.399 234.68 175.514 232.904 173.666C229.415 170.038 225.947 166.404 222.248 163C220.621 161.501 219.516 159.615 217.743 158.251C215.837 156.786 213.904 155.278 212.188 153.592C208.591 150.061 203.77 147.858 199.216 145.756C196.748 144.617 194.61 143.273 191.937 142.623C189.926 142.133 187.06 140.886 184.981 141.778C184.959 142.099 184.548 142.404 184.185 142.159C184.102 142.103 184.019 142.048 183.936 141.991C183.682 141.819 183.728 141.386 183.969 141.23C185.182 140.45 186.581 140.449 187.975 140.642C190.013 140.925 192.242 141.529 194.191 142.186C196.234 142.873 198.059 144.135 200.022 145.023C202.527 146.155 205.019 147.394 207.42 148.737C211.148 150.826 213.981 154.039 217.319 156.669C220.699 159.333 223.168 162.777 226.411 165.607C230.077 168.804 233.561 172.566 236.784 176.204C239.826 179.639 243.114 182.816 245.987 186.369C248.976 190.065 252.485 193.281 255.451 197.03C258.379 200.729 260.96 204.705 263.859 208.416C265.165 210.089 266.66 211.74 268.199 213.196C269.864 214.771 271.162 216.659 272.713 218.324C273.815 219.507 274.891 220.718 275.937 221.959C277.391 223.686 279.18 225.004 280.291 227.017C281.347 228.93 282.594 230.786 283.422 232.81C284.414 235.234 285.254 237.752 285.952 240.275C287.172 244.679 287.587 249.661 286.462 254.132C285.377 258.442 283.682 262.67 281.566 266.564C279.506 270.355 277.287 274.025 273.845 276.732C270.057 279.711 265.647 281.361 261.289 283.349C256.482 285.543 251.413 286.645 246.373 288.206C243.86 288.984 241.334 289.769 238.695 289.959C236.219 290.137 233.846 289.684 231.4 289.646C229.024 289.608 226.763 289.551 224.403 289.151C221.966 288.738 219.941 287.569 217.655 286.711C215.324 285.838 212.817 284.943 210.69 283.629C209.201 282.709 208.466 281.829 206.462 281.982C205.501 282.056 204.573 282.356 203.618 282.47C202.407 282.615 201.211 282.48 199.998 282.469C198.537 282.455 197.111 282.695 195.65 282.749C192.949 282.847 189.482 282.446 186.795 282.618C186.795 282.618 186.109 281.772 186.839 281.724Z" fill="#13102F"/>
<path d="M179.455 204.034C183.104 204.101 186.751 203.427 189.745 202.148C193.271 200.643 195.681 198.152 197.272 195.166C197.3 195.127 197.331 195.094 197.359 195.054C199.135 192.49 199.887 189.418 199.823 186.327C199.816 186.044 199.811 185.754 199.804 185.46C199.891 184.1 199.894 182.735 199.826 181.386C200.027 181.267 200.36 181.348 200.37 181.633C200.379 181.903 200.59 182.148 200.653 182.424C200.826 183.188 200.744 184.047 200.766 184.822C200.827 187.141 200.533 188.928 200.084 191.17C199.816 192.502 199.292 193.874 198.592 195.17C198.62 196.059 198.423 197.012 198.313 197.843C198.144 199.128 197.815 200.427 197.547 201.696C196.815 205.173 196.133 208.651 195.504 212.15C194.286 218.922 193.251 225.716 192.023 232.491C191.93 233.004 191.159 232.994 191.106 232.462C190.792 229.266 192.16 225.848 192.538 222.676C192.926 219.414 193.517 216.158 194.192 212.943C194.853 209.782 195.263 206.566 195.984 203.419C196.065 203.064 196.908 199.562 197.363 197.127C196.559 198.21 195.628 199.171 194.619 199.913C191.875 201.931 188.54 203.294 185.182 203.757C182.798 204.086 180.616 204.294 178.201 204.242C178.102 204.239 178.004 204.227 177.906 204.22C178.41 204.174 178.928 204.114 179.455 204.034Z" fill="#13102F"/>
<path d="M186.481 282.136C186.611 282.729 187.597 282.831 187.621 282.135C187.687 280.162 187.689 278.185 187.676 276.209C187.686 276.421 187.826 276.641 188.067 276.697C189.572 277.05 191.471 276.894 193.025 277.011C195.619 277.206 198.236 276.828 200.827 276.975C200.656 278.553 199.792 280.389 200.13 281.91C200.259 282.495 201.25 282.449 201.239 281.856C201.197 279.773 201.955 277.953 202.085 275.843C202.305 272.291 201.385 258.865 201.105 255.765C200.875 253.225 200.737 250.708 200.016 248.269C200.276 247.6 200.892 246.825 201.189 246.247C201.833 244.994 202.58 243.743 203.354 242.564C204.893 240.215 206.693 238.078 208.765 236.178C210.718 234.386 212.491 232.449 214.645 230.879C216.783 229.319 219.323 228.097 221.666 226.866C223.41 225.95 225.131 224.97 226.753 223.869C229.205 222.207 231.615 221.316 234.292 220.164C236.249 219.323 238.078 218.385 240.116 217.691C242.57 216.856 245.204 216.709 247.643 215.726C247.96 215.598 247.776 215.151 247.457 215.238C244.817 215.96 242.094 216.133 239.463 216.908C237.437 217.506 235.592 218.4 233.665 219.172C234.099 218.586 234.69 218.018 235.057 217.514C235.84 216.441 236.551 215.334 237.345 214.262C238.277 213.004 239.261 211.778 240.182 210.513C240.664 209.851 241.45 209.031 241.593 208.205C241.715 207.503 240.739 207.369 240.601 207.964C240.597 207.959 240.594 207.954 240.59 207.95C240.201 209.215 238.625 210.626 237.823 211.643C236.989 212.702 236.186 213.796 235.374 214.871C234.694 215.773 234.117 216.747 233.438 217.655C232.988 218.255 232.347 218.878 232.126 219.597C232.104 219.668 232.103 219.733 232.106 219.799C227.838 221.512 223.988 224.231 220.021 226.541C217.532 227.99 215.014 229.106 212.74 230.905C210.639 232.568 208.623 234.523 206.792 236.473C204.917 238.471 200.732 244.846 199.282 247.181C198.585 248.304 190.739 248.576 186.631 248.694C186.261 248.704 186.059 248.999 186.101 249.348C186.634 253.707 186.624 277.06 186.483 281.744C186.449 281.831 186.432 281.926 186.458 282.046C186.467 282.076 186.474 282.106 186.481 282.136ZM199.728 251.806C197.962 251.825 196.228 251.516 194.436 251.755C192.143 252.062 189.796 252.26 187.474 252.396C187.394 251.502 187.317 250.605 187.21 249.722C189.294 249.614 196.221 248.877 198.28 248.608C200.003 248.384 199.613 250.871 199.728 251.806ZM200.134 256.74C199.84 256.705 199.523 256.761 199.148 256.76C197.912 256.759 196.692 256.692 195.466 256.623C192.908 256.479 190.317 256.97 187.768 256.793C187.72 255.642 187.657 254.492 187.567 253.348C189.782 253.24 192.022 253.083 194.213 252.768C196.007 252.51 198.025 252.921 199.82 252.652C199.963 254.013 200.053 255.378 200.134 256.74ZM200.462 262.269C198.49 262.052 196.34 261.993 194.375 262.115C193.198 262.188 192.03 262.415 190.85 262.493C190.748 262.499 188.648 262.525 187.812 262.647C187.846 261.001 187.849 259.344 187.797 257.684C189.796 257.972 192.01 257.444 194.008 257.496C194.979 257.521 195.946 257.559 196.919 257.594C197.895 257.63 199.166 257.316 200.176 257.427C200.185 257.577 200.195 257.731 200.204 257.881C200.287 259.346 200.377 260.807 200.462 262.269ZM200.699 267.189C198.545 266.749 196.187 266.81 194.003 266.745C191.931 266.683 189.775 266.647 187.685 266.767C187.702 266.173 187.721 265.581 187.75 264.988C187.774 264.496 187.775 263.996 187.79 263.5C190.046 263.452 192.215 263.24 194.474 263.069C196.469 262.917 198.52 263.332 200.498 262.986C200.565 264.194 200.63 265.401 200.675 266.613C200.68 266.805 200.691 266.997 200.699 267.189ZM200.896 270.956C198.712 270.791 196.552 270.652 194.351 270.647C193.077 270.644 191.811 270.702 190.541 270.612C189.664 270.55 188.533 270.661 187.643 270.507C187.643 269.579 187.643 268.651 187.661 267.723C189.952 267.605 192.323 267.672 194.589 267.741C196.565 267.8 198.75 267.992 200.723 267.707C200.777 268.784 200.843 269.869 200.896 270.956ZM187.676 276.196C187.666 274.645 187.647 273.093 187.64 271.541C189.653 271.913 192.092 271.645 194.103 271.626C196.211 271.606 198.844 272.08 200.921 271.522C200.988 273.109 201.199 274.32 201.081 275.883C198.948 275.337 188.988 275.465 186.988 275.62C186.707 275.641 187.671 275.985 187.676 276.196Z" fill="#13102F"/>
<path d="M194.049 217.507C194.161 216.934 194.955 217.071 195.015 217.599C195.477 221.656 196.763 224.959 198.852 228.459C200.76 231.657 203.833 234.453 206.467 237.047C206.999 237.572 206.248 238.456 205.703 237.933C202.779 235.126 199.537 232.12 197.52 228.568C195.713 225.385 193.303 221.314 194.049 217.507Z" fill="#13102F"/>
<path d="M186.343 255.239C178.713 255.94 170.978 255.474 163.488 253.864C159.229 252.948 155.034 251.662 150.7 251.233C150.287 253.169 152.075 254.843 153.788 255.837C156.379 257.339 159.248 258.355 162.206 258.818C155.884 259.452 149.465 259.112 143.247 257.812C142.787 259.646 144.302 261.371 145.851 262.455C151.407 266.34 158.559 266.883 165.325 267.299C157.971 268.086 150.534 266.354 143.679 263.576C143.797 264.909 144.299 266.205 145.112 267.266C146.396 268.946 148.355 269.965 150.316 270.757C155.264 272.756 160.596 273.643 165.913 274.096C158.959 274.373 151.973 273.812 145.153 272.43C145.788 274.432 147.99 275.43 149.989 276.073C154.904 277.653 160.045 278.529 165.205 278.667C160.682 279.521 155.996 279.498 151.482 278.598C152.214 279.657 153.563 280.071 154.824 280.33C159.985 281.39 165.35 281.022 170.527 280.036C175.703 279.052 180.742 277.463 185.823 276.07C186.144 275.983 186.673 276.116 186.531 276.417" fill="white"/>
<path d="M186.343 255.239C178.713 255.94 170.978 255.474 163.488 253.864C159.229 252.948 155.034 251.662 150.7 251.233C150.287 253.169 152.075 254.843 153.788 255.837C156.379 257.339 159.248 258.355 162.206 258.818C155.884 259.452 149.465 259.112 143.247 257.812C142.787 259.646 144.302 261.371 145.851 262.455C151.407 266.34 158.559 266.883 165.325 267.299C157.971 268.086 150.534 266.354 143.679 263.576C143.797 264.909 144.299 266.205 145.112 267.266C146.396 268.946 148.355 269.965 150.316 270.757C155.264 272.756 160.596 273.643 165.913 274.096C158.959 274.373 151.973 273.812 145.153 272.43C145.788 274.432 147.99 275.43 149.989 276.073C154.904 277.653 160.045 278.529 165.205 278.667C160.682 279.521 155.996 279.498 151.482 278.598C152.214 279.657 153.563 280.071 154.824 280.33C159.985 281.39 165.35 281.022 170.527 280.036C175.703 279.052 180.742 277.463 185.823 276.07C186.144 275.983 186.673 276.116 186.531 276.417" stroke="#13102F" stroke-width="0.6735" stroke-miterlimit="10"/>
<path d="M134.57 92.3021C133.5 90.7147 130.577 89.5983 128.784 89.2027C126.747 88.7544 124.508 89.0118 122.691 90.0655C122.469 90.1948 122.583 90.4661 122.764 90.5264C122.762 90.5289 122.761 90.5314 122.76 90.5339C122.769 90.5351 122.775 90.5339 122.784 90.5339C122.804 90.5389 122.824 90.5364 122.845 90.5351C123.248 90.5653 123.48 90.4259 123.893 90.2953C125.087 89.916 126.363 89.7377 127.614 89.8545C128.881 89.9725 130.011 90.4108 131.117 91.0136C131.569 91.2598 132.234 91.5498 132.809 91.8952C130.103 91.5147 127.437 91.0814 124.94 92.7655C124.484 93.0731 124.86 93.8241 125.351 93.534C128.273 91.806 131.078 92.6273 134.177 92.9551C134.497 92.9903 134.747 92.5658 134.57 92.3021Z" fill="#13102F"/>
<path d="M147.527 92.3021C148.597 90.7147 151.519 89.5983 153.313 89.2027C155.35 88.7544 157.589 89.0118 159.406 90.0655C159.628 90.1948 159.514 90.4661 159.333 90.5264C159.334 90.5289 159.335 90.5314 159.337 90.5339C159.328 90.5351 159.322 90.5339 159.313 90.5339C159.293 90.5389 159.271 90.5364 159.251 90.5351C158.848 90.5653 158.616 90.4259 158.204 90.2953C157.01 89.916 155.734 89.7377 154.483 89.8545C153.216 89.9725 152.086 90.4108 150.979 91.0136C150.527 91.2598 149.863 91.5498 149.288 91.8952C151.994 91.5147 154.66 91.0814 157.157 92.7655C157.612 93.0731 157.237 93.8241 156.746 93.534C153.824 91.806 151.018 92.6273 147.92 92.9551C147.6 92.9903 147.349 92.5658 147.527 92.3021Z" fill="#13102F"/>
</svg>
