<svg width="259" height="366" viewBox="0 0 259 366" fill="none" xmlns="http://www.w3.org/2000/svg">
<path d="M202.376 63.0164C202.856 60.3954 202.594 53.6654 202.541 53.0664C202.481 53.0734 202.42 53.0764 202.36 53.0824C202.307 52.8864 190.577 53.1014 190.478 53.1034C190.424 53.3814 190.243 67.0654 187.282 67.8594C187.627 64.1594 183.276 62.7294 183.006 66.2224C182.88 67.8484 184.691 69.6224 186.293 69.6844C187.894 69.7464 190.616 68.2864 191.913 62.9544C192.518 60.4654 192.589 57.7084 192.66 55.1434C193.403 55.1014 199.206 55.1544 200.172 55.1884C200.023 57.0894 200.084 58.9864 200.005 60.8854C199.936 62.5444 200.271 65.3674 199.447 67.1164C199.048 67.5654 198.546 67.9824 198.025 68.1694C199.537 64.9634 193.741 63.2684 193.665 66.7714C193.629 68.4024 195.535 70.0724 197.138 70.0464C198.739 70.0194 201.295 68.9174 202.376 63.0164Z" fill="#13102F"/>
<path d="M24.3762 172.016C24.8562 169.395 24.5942 162.665 24.5412 162.066C24.4812 162.073 24.4202 162.076 24.3602 162.082C24.3072 161.886 12.5772 162.101 12.4782 162.103C12.4242 162.381 12.2432 176.065 9.28222 176.859C9.62722 173.159 5.27622 171.729 5.00622 175.222C4.88022 176.848 6.69124 178.622 8.29324 178.684C9.89424 178.746 12.6162 177.286 13.9132 171.954C14.5182 169.465 14.5892 166.708 14.6602 164.143C15.4032 164.101 21.2062 164.154 22.1722 164.188C22.0232 166.089 22.0842 167.986 22.0052 169.885C21.9362 171.544 22.2712 174.367 21.4472 176.116C21.0482 176.565 20.5462 176.982 20.0252 177.169C21.5372 173.963 15.7412 172.268 15.6652 175.771C15.6292 177.402 17.5352 179.072 19.1382 179.046C20.7392 179.019 23.2952 177.917 24.3762 172.016Z" fill="#13102F"/>
<path d="M99.1913 126.231C82.3966 113.768 48.7726 124.481 41.927 143.727C33.3502 167.844 42.9065 197.633 62.7869 213.58C81.1442 228.305 113.089 218.986 119.751 195.984C126.147 173.907 117.995 140.184 99.1913 126.231ZM46.9291 186.749C39.4298 167.787 37.2417 137.507 60.7902 129.292C84.1693 121.135 101.395 141.32 106.627 161.709C111.485 180.641 110.553 211.51 86.7977 216.531C67.8547 220.532 53.1798 202.552 46.9291 186.749Z" fill="#13102F"/>
<path d="M86.8868 148.88C79.6427 140.305 63.5968 137.109 57.1514 147.993C49.9486 160.154 51.6761 178.175 60.3444 189.058C68.8228 199.699 85.5408 201.798 93.5074 189.465C101.22 177.523 95.3824 158.932 86.8868 148.88ZM60.3301 182.696C55.787 173.103 53.6575 160.957 58.9651 151.135C65.464 139.109 74.3654 149.227 78.0197 157.865C81.2163 165.424 84.8895 179.927 80.8008 187.946C75.4409 198.466 63.9924 190.43 60.3301 182.696Z" fill="#13102F"/>
<path d="M177.319 86.028C163.351 76.1285 134.994 85.1618 129.035 100.805C121.57 120.408 129.271 144.399 145.792 157.082C161.048 168.792 187.979 160.906 193.826 142.226C199.437 124.3 192.957 97.1095 177.319 86.028ZM132.766 135.551C126.675 120.295 125.167 95.8235 145.032 88.9215C164.757 82.0683 179.003 98.2095 183.177 114.645C187.051 129.907 185.933 154.886 165.927 159.206C149.973 162.653 137.844 148.266 132.766 135.551Z" fill="#13102F"/>
<path d="M164.428 106.631C158.556 98.7046 148.338 100.096 144.124 109.088C143.986 109.383 144.018 109.639 144.135 109.841C142.115 115.277 143.082 122.743 144.409 127.488C146.488 134.917 157.297 146.751 165.462 139.326C169.88 135.307 169.648 127.671 169.412 122.323C169.177 116.902 167.692 111.034 164.428 106.631ZM157.659 138.424C150.33 136.753 146.955 129.394 145.75 122.728C144.981 118.462 144.878 112.311 147.41 108.196C149.973 105.668 152.845 102.89 156.887 103.97C160.998 105.068 163.311 109.64 164.774 113.229C167.467 119.827 169.488 141.118 157.659 138.424Z" fill="#13102F"/>
<path d="M147.329 64.8511C144 57.1 140.228 49.4589 135.922 42.1887C129.174 30.7953 116.128 18.5518 101.965 19.4836C85.8654 20.5445 70.7148 29.06 59.3283 40.1926C54.0352 45.3678 49.0404 51.9533 46.0786 58.7573C43.0452 65.7231 42.6555 73.013 42.6597 80.5144C42.6676 89.4985 44.4506 98.4141 46.9023 107.025C49.0704 114.639 50.5672 123.529 55.0231 130.226C55.7963 131.386 57.503 130.428 56.9082 129.165C53.5433 122.018 51.7904 113.842 49.6302 106.261C47.0783 97.2966 45.0562 87.7287 45.4708 78.3581C45.9184 68.2722 47.6584 59.9679 53.5779 51.5292C59.7945 42.6671 67.6883 36.216 76.8186 30.514C84.8248 25.5157 94.8395 22.1372 104.334 22.3363C105.907 22.369 107.439 22.6072 108.931 22.9854C108.448 23.0131 107.968 23.0542 107.503 23.1108C100.7 23.942 94.2165 27.5049 88.2288 30.6117C77.3292 36.2691 67.1847 45.6056 61.6778 56.6425C56.1449 67.7363 54.5514 79.0871 57.3428 91.1936C58.7605 97.3383 60.7234 103.447 62.6365 109.465C63.9409 113.569 65.0626 123.28 69.5564 125.207C70.4198 125.576 71.3376 124.316 70.4801 123.746C68.2133 122.241 67.5092 116.987 66.7224 114.452C65.8123 111.513 64.818 108.593 63.9543 105.64C62.5023 100.66 60.8859 95.689 59.7112 90.6335C56.9946 78.9462 58.8171 67.7477 64.1613 57.0754C69.9097 45.5933 81.1871 36.9274 92.4517 31.3538C93.3215 30.923 94.22 30.4877 95.1282 30.0539C101.268 29.389 109.297 30.6852 114.292 33.4618C120.551 36.9418 125.113 44.1124 128.323 50.3226C134.631 62.5251 139.796 74.9 143.952 87.9979C144.551 89.881 147.403 88.7689 146.809 86.8957C142.134 72.1053 136.476 56.5922 127.891 43.5082C124.14 37.7919 118.905 31.6716 112.112 29.6963C108.774 28.7249 104.657 27.8264 100.671 27.6723C103.5 26.6347 106.507 26.5379 109.327 25.8092C117.794 23.621 126.044 34.14 128.563 36.9774C135.483 44.7622 139.929 55.3452 144.045 64.818C146.911 71.413 149.993 78.2734 152.295 85.0515C152.903 86.8389 155.616 85.9611 155.082 84.1503C153.144 77.544 150.061 71.2058 147.329 64.8511Z" fill="#13102F"/>
<path d="M143.627 243.14C146.634 238.754 151.24 228.415 146.867 223.452C144.003 220.2 135.437 221.323 132.263 223.438C126.288 227.42 124.462 237.414 125.521 243.987C125.739 245.335 126.027 246.595 126.371 247.797C120.467 248.637 115.962 247.289 111.376 243.344C107.716 240.198 104.444 236.141 102.564 231.663C100.145 225.9 101.924 221.298 101.599 215.53C101.5 213.751 98.7465 213.492 98.7654 215.352C98.8072 219.795 97.1163 223.468 98.0954 227.913C99.0398 232.197 100.93 236.034 103.562 239.52C107.742 245.061 113.705 250.77 120.966 251.403C122.949 251.575 125.225 251.498 127.574 251.178C130.119 257.177 134.343 261.582 139.216 266.756C147.067 275.094 154.518 284.405 157.12 295.934C160.097 309.132 153.64 323.676 147.462 335.062C145.462 338.747 142.901 342.6 139.579 345.243C138.601 346.021 137.698 346.522 136.79 346.912C134.553 343.063 129.444 345.115 127.213 348.123C124.312 352.038 125.478 354.409 127.761 355.16C128.102 355.444 128.55 355.608 129.021 355.566C129.481 355.524 129.983 355.449 130.505 355.339C130.945 355.272 131.387 355.157 131.819 355.002C134.402 354.225 137.051 352.684 137.499 350.277C138.318 350.059 139.052 349.824 139.574 349.517C143.318 347.32 146.338 343.239 148.611 339.653C153.586 331.806 157.55 322.479 159.702 313.435C161.851 304.4 161.584 295.482 157.485 287.052C155.498 282.968 153.696 278.559 151.044 274.826C148.136 270.735 144.507 267.781 141.181 264.104C138.363 260.988 134.918 258.407 132.725 254.777C131.941 253.482 131.234 252.083 130.627 250.62C135.862 249.432 140.991 246.984 143.627 243.14ZM140.3 225.066C141.16 224.958 142.021 224.88 142.887 224.831C145.69 227.291 146.227 230.137 144.497 233.37C143.946 235.07 143.151 237.019 142.405 238.644C139.928 244.043 134.886 246.133 129.47 247.26C128.484 243.812 128.087 240.186 128.636 236.801C129.606 230.818 133.412 224.489 140.3 225.066Z" fill="#13102F"/>
<path d="M167.655 41.433C166.819 38.191 162.969 30.655 162.593 30C162.528 30.039 162.461 30.075 162.396 30.114C162.232 29.918 148.97 36.354 148.858 36.408C148.943 36.754 155.958 52.453 153 54.921C151.441 50.52 145.724 51.185 147.259 55.311C147.974 57.232 150.974 58.298 152.834 57.524C154.693 56.75 157.026 53.648 155.691 46.884C155.068 43.727 153.694 40.545 152.421 37.583C153.246 37.143 159.891 34.141 161.011 33.67C161.845 35.917 162.915 38.047 163.827 40.255C164.624 42.182 166.496 45.226 166.479 47.655C166.261 48.377 165.909 49.118 165.413 49.606C165.445 45.153 157.942 46.278 159.703 50.312C160.523 52.191 163.578 53.09 165.392 52.214C167.204 51.339 169.536 48.734 167.655 41.433Z" fill="#13102F"/>
<path d="M25.6552 132.433C24.8192 129.191 20.9692 121.655 20.5932 121C20.5282 121.039 20.4613 121.075 20.3963 121.114C20.2323 120.918 6.97024 127.354 6.85824 127.408C6.94324 127.754 13.9582 143.453 11.0002 145.921C9.44124 141.52 3.72425 142.185 5.25925 146.311C5.97425 148.232 8.97424 149.298 10.8342 148.524C12.6932 147.75 15.0263 144.648 13.6913 137.884C13.0683 134.727 11.6942 131.545 10.4212 128.583C11.2462 128.143 17.8912 125.141 19.0112 124.67C19.8452 126.917 20.9153 129.047 21.8273 131.255C22.6243 133.182 24.4962 136.226 24.4792 138.655C24.2612 139.377 23.9093 140.118 23.4133 140.606C23.4453 136.153 15.9422 137.278 17.7032 141.312C18.5232 143.191 21.5782 144.09 23.3922 143.214C25.2042 142.339 27.5362 139.734 25.6552 132.433Z" fill="#13102F"/>
</svg>
