<svg width="17" height="19" viewBox="0 0 17 19" fill="none" xmlns="http://www.w3.org/2000/svg">
<path d="M16.0422 4.93969C15.7672 0.589693 10.2002 3.34669 8.16722 5.61069C8.26022 3.69769 7.78421 1.59269 6.02821 0.479694C4.26721 -0.635306 1.73222 0.330694 0.672225 1.96869C-0.715775 4.11469 0.307212 6.83469 1.39021 8.82469C2.97621 11.7387 3.92523 15.0537 5.64723 17.8747C5.82123 18.1597 6.23322 18.3907 6.55922 18.1767C10.6802 15.4737 16.3912 10.4517 16.0422 4.93969ZM13.4112 9.3857C11.9822 12.0537 9.04323 14.7987 6.47523 16.6027C5.18523 14.3217 4.23522 11.6687 3.11922 9.3237C2.13822 7.2627 1.12123 6.1377 1.83623 3.6287C1.97823 1.1127 3.51122 0.827694 6.43523 2.77469C6.53923 2.92569 6.64324 3.07769 6.74724 3.22869C7.18624 4.01569 7.28223 5.0877 7.35023 5.9547C7.36623 6.1607 7.49123 6.2817 7.63823 6.3237C7.63623 6.3277 7.63324 6.33169 7.63124 6.33569C7.21224 7.09269 8.35421 7.83469 8.76521 7.06869C9.53121 5.63969 11.1952 4.1377 12.9052 4.1787C15.8532 4.2507 14.2722 7.7777 13.4112 9.3857Z" fill="#13102F"/>
</svg>
