<svg width="181" height="151" viewBox="0 0 181 151" fill="none" xmlns="http://www.w3.org/2000/svg">
<path d="M-20.5196 4.0614C-16.587 5.12186 -11.3047 6.0728 -7.2304 6.41846C-5.96157 6.52958 -6.61052 6.62221 -5.72668 6.69475C-4.00194 6.82711 -2.37896 6.7807 -0.667349 6.80292C-0.0978432 6.80942 -0.800678 7.03809 -0.203354 7.03877C3.06737 7.03012 6.16161 6.68286 9.43396 6.16934C13.5258 5.50158 17.767 4.49717 21.1757 2.68731C21.3333 2.59966 21.4429 2.52797 21.4952 2.49026C21.5248 2.47014 21.545 2.44806 21.5053 2.49086C21.4869 2.51181 21.4568 2.54716 21.4169 2.60871C21.3502 2.71529 21.2234 2.9316 21.2064 3.30011C21.1796 3.66542 21.3668 4.12913 21.5926 4.35673C21.8139 4.59491 22.0104 4.67111 22.0948 4.70463C22.2213 4.74969 22.254 4.74428 22.2405 4.74337C22.2053 4.73783 22.0967 4.73356 21.9399 4.74436C21.3847 4.7826 20.6821 4.9329 20.0002 5.12491C18.6346 5.51219 17.2871 6.06814 16.0211 6.74075C13.491 8.08744 11.2135 9.96941 9.80096 12.3264C6.78899 17.0931 8.51852 23.3927 11.7407 28.4208C13.0628 30.5364 14.6033 32.5987 16.4773 34.7553C18.7145 37.3285 21.0423 39.8837 23.2754 42.1113C23.7489 42.5829 23.6027 42.1688 23.7022 42.2492C25.2715 43.5157 24.5405 43.3017 25.4275 44.2604C28.9523 48.0601 33.2105 51.9731 37.1295 55.0417C38.7989 56.3405 37.3674 54.7342 38.9089 56.2128C39.0174 56.3152 38.4721 56.1376 38.9185 56.5126C39.9274 57.3669 41.9513 58.8256 42.7765 59.4243C44.3566 60.5783 44.6391 60.7675 46.1806 61.7868C48.3074 63.1863 50.8414 64.8147 53.2769 66.0465C53.7946 66.3071 53.209 65.7751 54.0422 66.1704C54.8752 66.5742 57.0634 67.6495 57.8012 68.0228C58.5342 68.4029 58.1506 68.4029 58.2693 68.4955C59.2438 69.2766 62.0464 69.9262 62.3892 70.0286C68.6652 72.1408 74.1967 73.5663 80.4167 74.0329C85.1299 74.3813 90.1894 74.0685 94.6395 73.4353C99.1599 72.7949 103.066 71.9413 107.202 70.674C107.928 70.4499 108.663 70.2249 109.412 69.9967C109.948 69.8341 109.252 69.7965 109.906 69.598C116.872 67.4917 123.863 65.7613 130.887 64.1289C131.59 63.9658 130.741 64.3967 131.446 64.2458C135.772 63.3272 142.621 61.9108 144.88 60.279C147.763 59.4686 151.167 58.4028 153.74 57.6364C155.369 57.1476 153.902 57.9532 155.841 57.0949C156.274 56.899 155.629 56.9448 156.28 56.6643C159.028 55.478 161.992 54.1539 164.457 52.5565C164.949 52.2358 164.724 52.163 164.85 52.0488C165.927 51.1067 168.042 50.0904 168.453 49.7839C171.611 47.5379 173.478 45.2811 175.192 42.1552C175.575 41.4225 174.919 42.1802 175.269 41.4723C177.083 37.7829 177.766 33.4715 177.709 29.3825C177.695 28.4739 177.934 29.3013 177.935 28.8632C177.905 26.861 177.48 26.5681 177.286 24.6709C177.239 24.2696 177.446 24.4663 177.453 24.3903C177.57 23.247 176.954 22.3747 176.884 22.0899C176.779 21.6651 176.678 21.2521 176.581 20.8477C175.847 17.924 175.458 15.8176 173.846 13.1387C173.625 12.7905 173.922 13.69 173.31 12.7184C169.23 5.97427 160.681 2.89144 152.906 2.96655C151.688 2.96064 152.553 2.78047 152.477 2.76103C151.199 2.47187 150.411 2.96288 150.021 3.00801C146.888 3.36738 143.938 3.58165 141.952 4.57015C128.961 7.60206 116.923 14.2417 106.765 22.6869C106.639 22.7956 106.719 22.437 106.464 22.6588C103.438 25.3899 104.224 25.1187 102.79 27.3561C102.418 27.9289 100.846 29.2333 100.713 29.3922C100.235 29.8633 100.361 29.1229 100.216 29.2918C99.1883 30.5413 99.8448 30.9892 99.2793 32.5003C99.2153 32.6825 99.1334 32.8854 99.0287 33.1162C98.996 33.1839 98.954 32.8184 98.8533 32.9939C98.5441 33.5298 98.3361 34.212 98.0551 34.7356C97.3956 35.997 96.7225 36.3278 96.3003 38.5434C96.2533 38.8304 96.9177 38.5937 96.2651 40.685C95.973 41.5574 95.0343 45.2999 94.7885 46.3692C94.5215 47.4392 94.495 46.6604 94.4706 46.735C93.6373 49.5812 93.7661 48.4537 93.1331 49.864C92.518 51.2843 93.4578 51.0047 93.4585 51.6159C93.4559 52.2194 92.9542 54.3561 92.8273 54.8676C92.6932 55.3872 92.6527 54.7137 92.5569 55.1796C91.951 58.2964 92.8409 56.6079 92.8771 57.6446C92.9891 60.0856 92.2409 61.9329 92.1311 64.1811C92.1039 64.7834 92.2593 64.2941 92.2661 64.8305C92.3037 66.9565 92.1194 68.248 92.4401 70.6592C92.4899 71.058 93.0177 72.9669 92.8756 74.2507C92.8545 74.4335 92.6356 73.9439 92.7019 74.8502C92.7953 76.2044 93.1297 78.6301 93.4748 80.0491C93.7271 81.0947 93.7389 79.8367 93.9359 81.1729C94.0285 81.7666 93.6349 80.7124 93.8258 81.8284C94.0028 82.9458 94.7694 85.7193 95.1324 86.755C95.4801 87.7906 95.4852 87.1574 95.5254 87.2374C95.7575 87.7202 96.5795 89.6378 96.6569 89.8034C100.083 98.3643 105.608 105.569 113.645 109.867C114.262 110.195 113.956 109.784 114.051 109.832C116.219 110.863 114.263 110.501 115.723 111.428C115.678 110.922 116.583 111.468 118.154 112.052C118.926 112.334 118.572 112.011 118.648 112.023C119.868 112.226 120.593 112.808 120.778 112.942C121.451 113.427 122.378 113.398 122.866 113.706C123.361 114.011 122.048 113.91 123.668 114.341C124.162 114.308 123.061 113.607 124.307 113.858C128.197 114.703 135.076 115.642 139.5 115.651C140.295 115.666 140.988 115.674 141.56 115.675C145.278 115.675 146.66 115.597 148.78 115.577C152.836 115.499 151.346 115.263 153.755 114.973C156.313 114.645 155.11 115.473 155.494 115.604C155.859 115.733 156.222 115.537 156.65 115.585C157.074 115.632 156.185 115.826 157.164 115.765C158.303 115.697 160.899 115.079 161.33 114.834C162.037 114.36 160.784 114.218 163.385 113.883C163.548 113.859 163.06 114.152 163.682 114.051C165.931 113.644 168.421 113.179 170.318 111.786C170.735 111.45 171.108 110.999 171.163 110.484C171.224 109.981 170.985 109.466 170.614 109.008C169.892 108.131 168.849 107.472 167.824 106.901C167.231 106.582 167.857 106.653 167.529 106.477C163.957 104.763 165.074 105.694 162.927 105.387C163.55 105.032 162.521 104.284 159.567 103.584C157.755 103.177 158.057 103.492 156.864 103.429C156.499 103.409 155.279 103.036 155.03 103.112C154.223 103.362 155.332 103.902 152.321 103.345C152.187 103.321 152.64 103.176 152.176 103.108C149.174 102.703 148.782 103.045 145.529 102.965C142.989 102.899 138.459 102.822 135.57 103.184C135.564 103.185 135.557 103.186 135.551 103.187C135.606 102.569 132.75 103.067 131.777 103.608C129.853 103.829 127.893 104.095 125.982 104.277C125.374 104.333 125.75 104.109 125.671 104.1C124.457 103.952 123.671 104.462 123.259 104.531C118.898 105.243 115.167 105.426 111.061 106.302C110.911 106.334 110.732 106.783 109.542 106.641C109.469 106.63 110.844 106.242 108.845 106.509C106.911 106.768 103.114 107.094 100.402 107.708C99.7236 107.859 98.1223 108.452 96.7373 108.401C96.5524 108.393 96.7298 108.243 96.4603 108.218C95.5882 108.139 95.1959 108.633 94.1407 108.437C93.0973 108.24 91.0452 108.298 88.2843 109.021C88.1985 109.043 87.6112 109.486 86.7475 109.63C85.3771 109.857 83.3581 110.143 81.934 110.404C81.2477 110.529 81.7245 110.656 81.606 110.681C76.9841 111.644 73.6355 112.094 68.672 113.025C67.7643 113.194 65.1922 114.022 63.4046 114.179C61.4261 114.358 63.1909 112.908 58.7993 114.139C57.0416 114.636 55.0686 116.424 51.7238 116.537C45.5637 118.204 39.7772 119.374 33.7008 121.397C33.4273 121.488 32.6582 122.094 32.0103 122.282C31.0479 122.562 30.4726 122.558 29.7853 122.757C26.8929 123.588 24.3374 124.561 21.5783 125.465C20.5343 125.809 20.8409 125.518 19.5988 125.934C18.3581 126.353 17.6185 126.856 15.9032 127.354C14.6118 127.73 13.189 127.748 11.5106 128.327C11.6139 128.789 10.4547 129.213 8.4833 130.129C8.10489 130.305 8.58025 130.291 8.40446 130.382C7.69109 130.757 6.95476 130.91 6.28885 131.281C6.12637 131.372 6.17761 131.523 6.04718 131.606C4.93642 132.315 2.84821 132.818 2.49054 132.908C1.11835 133.245 0.611397 133.699 -0.413292 134.059C-1.43158 134.419 -0.015274 133.646 -1.18288 134.116C-3.59124 135.083 -6.5987 136.569 -8.93005 137.775C-9.8579 138.256 -9.1268 138.116 -9.25736 138.189C-11.1616 139.242 -13.2075 140.122 -14.0276 141.082C-15.8662 140.881 -15.1361 141.821 -17.8849 143.243C-18.1002 143.356 -18.6406 143.079 -17.8803 142.521C-17.1205 141.964 -15.7988 141.362 -14.7201 140.605C-14.4726 140.427 -13.1704 139.134 -12.9681 138.992C-11.4088 137.87 -10.7923 138.431 -10.6858 138.42C-9.45433 138.279 -7.80057 136.842 -7.29578 136.551C-5.01485 135.22 -2.9858 134.383 -1.03392 133.365C0.24436 132.703 0.169033 132.182 1.19911 131.746C4.64649 130.307 6.13008 130.466 9.16878 128.604C9.82564 128.209 8.92335 127.954 11.6157 127.394C11.7836 127.358 13.7957 127.029 14.8017 126.397C14.9279 126.317 14.8683 126.167 15.0448 126.088C16.2292 125.566 17.0889 125.397 18.3874 124.88C19.6895 124.361 21.2604 123.731 22.8058 123.279C23.731 123.008 25.0006 122.915 25.4626 122.845C26.7672 122.651 27.9993 121.901 28.8491 121.909C29.7021 121.919 28.3003 122.758 30.3831 122.297C30.3363 121.872 30.3847 121.406 30.3842 120.965C34.8729 119.624 39.3425 118.514 43.8812 117.307C44.4436 117.158 43.8106 117.089 44.4122 116.924C46.9475 116.228 49.2277 115.824 51.8599 115.122C53.8955 114.58 56.1137 113.816 58.2464 113.272C59.6642 113.443 62.8455 112.573 65.1683 112.129C65.9926 111.971 65.9639 112.108 66.5551 112.028C68.7812 111.723 67.6662 111.522 68.2539 111.332C70.7673 110.528 71.1827 111.424 74.2239 110.806C74.3857 110.772 76.2518 109.892 76.5141 109.81C78.2081 109.278 76.8332 109.931 77.9278 109.764C79.9335 109.459 81.2899 109.335 83.5997 108.77C84.2741 108.605 85.848 108.003 87.1919 108.024C87.3688 108.026 87.3028 108.209 87.4422 108.195C89.9841 107.929 89.9842 107.392 91.3897 106.975C92.7852 106.56 95.0871 106.563 95.5608 106.595C96.7946 106.676 94.6666 106.856 94.6029 106.894C93.8901 107.333 95.5289 107.013 96.7687 106.845C97.0318 107.332 98.7435 107.033 98.0501 106.671C97.9723 106.631 97.0218 106.829 96.7687 106.845C97.7656 106.169 99.6747 105.805 101.862 105.96C102.885 106.034 101.967 106.432 104.964 105.893C106.334 105.649 105.753 105.371 106.94 105.1C109.616 104.487 113.236 104.324 116.106 103.888C117.124 103.733 116.105 103.67 116.798 103.558C118.599 103.265 120.374 103.183 122.169 102.877C122.344 102.847 121.889 102.698 122.491 102.618C126.847 102.037 130.795 101.692 135.31 101.128C135.329 101.126 135.348 101.123 135.368 101.121C137.649 100.805 141.761 100.474 144.142 100.545C148.283 100.597 153.265 101.411 156.739 101.987C159.018 102.37 158.531 102.08 159.551 102.156C161.454 102.27 164.664 103.765 165.013 103.999C165.034 103.998 163.13 103.43 164.108 103.858C164.623 104.259 164.983 103.99 165.013 103.999C165.328 104.101 169.04 105.709 169.741 106.227C170.165 106.471 170.041 106.161 170.258 106.295C170.863 106.679 171.524 107.164 172.096 107.825C172.675 108.497 173.33 109.603 173.083 110.985C172.291 113.664 170.559 114.059 169.283 114.74C166.616 115.858 163.894 116.319 161.26 116.674C161.161 116.685 161.278 116.447 161.045 116.474C158.023 116.796 156.115 117.22 153.507 117.562C151.12 117.88 148.942 117.911 147.529 117.581C145.588 117.693 142.922 117.569 141.335 117.476C140.156 117.409 139.705 117.62 139.5 117.74C139.427 117.782 139.384 117.813 139.346 117.815C134.888 118.036 132.396 117.632 127.913 116.88C125.758 116.534 121.548 115.561 119.321 114.782C117.498 114.172 116.578 113.682 114.933 112.985C114.715 112.891 114.85 113.165 114.782 113.14C112.925 112.484 113.982 112.48 113.662 112.228C112.55 111.298 111.812 110.74 109.709 109.507C109.245 109.24 107.464 108.777 106.63 108.138C105.548 107.306 106.096 107.465 104.984 106.549C104.892 106.469 104.804 106.6 104.166 105.983C101.205 103.122 98.5634 99.4576 96.551 95.7341C96.2769 95.2247 96.4188 95.9914 96.0223 95.252C94.1622 91.7724 92.6997 87.7032 91.8748 84.005C91.6732 83.0946 91.9754 83.6217 91.9733 83.414C91.9561 82.1459 91.1926 80.5277 91.1326 80.2401C89.6811 73.4728 89.8151 68.1541 89.9351 61.2019C89.9327 60.8375 89.6721 57.8572 90.2046 56.6092C90.239 56.5199 90.7687 55.2741 90.6388 54.1225C90.6313 54.051 90.3234 54.8145 90.5224 53.4393C90.7271 52.0302 90.9333 49.7948 91.5258 47.9339C91.7078 47.3658 92.3823 45.9996 92.4811 44.1883C92.4747 44.0776 92.4607 41.151 93.2342 40.3074C93.3615 40.1788 93.8079 40.4507 94.1799 38.3355C94.2582 37.9183 93.9089 38.6166 94.1856 37.5228C94.6094 35.8662 95.479 33.8731 96.1678 31.7897C96.2054 31.6737 96.2654 31.4239 96.3587 31.113C96.5588 30.4525 96.9876 29.4545 97.6157 28.799C97.7589 28.6527 97.7023 29.0658 98.0827 28.51C99.9387 25.8358 102.13 23.2824 104.506 21.2196C105.377 20.4709 105.126 21.0843 106.04 20.3694C106.961 19.6432 108.787 18.2359 109.685 17.3922C110.576 16.5515 109.237 16.9875 110.67 15.8764C116.993 11.0628 124.036 7.54729 131.39 4.72934C132.487 4.31858 131.519 4.5028 133.139 3.90638C139.042 1.55794 150.079 -0.760483 155.842 0.237433C160.337 0.934561 154.637 0.570374 158.064 1.05581C159.698 1.31131 161.585 1.22806 161.996 1.32763C165.933 2.24892 168.463 3.80577 171.348 6.10318C171.932 6.58954 171.51 5.9356 172.005 6.36187C173.71 7.84132 175.133 9.78779 176.215 11.5602C176.704 12.3722 176.76 12.1404 177.168 12.9357C178.082 14.7627 178.697 16.5796 179.089 18.4797C179.125 18.6566 178.594 17.5436 179 18.9923C179.103 19.3754 179.201 19.7806 179.294 20.2052C179.763 22.3374 180.105 24.723 180.446 26.97C180.56 27.7712 180.964 27.8231 180.77 29.5865C180.715 29.9724 180.3 29.4347 180.654 31.5557C180.746 31.885 181.008 35.4775 180.234 37.1338C180.047 37.5841 179.424 38.5881 179.153 39.5775C179.117 39.7118 179.487 39.2483 179.232 40.0576C178.323 42.8897 176.712 45.6541 174.784 48.0141C174.264 48.6451 175.22 47.8633 174.432 48.7897C172.242 51.3624 168.885 53.8256 166.123 55.3684C165.116 55.9337 165.717 55.3799 165.636 55.407C164.325 55.8191 163.789 56.5563 163.415 56.7795C161 58.186 158.965 58.8545 156.648 59.8285C155.998 60.0978 156.533 60.0982 156.409 60.1656C155.105 60.8499 155.994 60.1335 155.131 60.418C152.708 61.2099 150.006 62.1208 147.585 62.8866C146.685 63.1711 147.767 63.079 146.956 63.3313C142.176 64.8149 137.189 66.0895 132.488 67.1671C131.607 67.3683 132.114 67.0578 131.922 67.0659C130.593 67.1179 128.831 67.9607 128.42 68.1033C126.53 68.7577 125.738 68.8009 124.046 69.2689C119.107 70.6374 113.484 72.1491 108.169 73.778C104.432 74.9255 100.74 75.7686 97.4246 76.3149C86.6569 78.0116 77.9587 77.4977 67.8906 74.9831C67.2516 74.8158 67.8359 75.2128 67.2827 75.069C60.1364 73.1822 53.5227 70.0695 47.2186 66.333C46.7032 66.0256 47.3277 66.6651 46.4966 66.1749C44.787 65.1673 42.6975 63.769 41.1063 62.554C40.3328 61.9636 41.505 62.5648 40.726 61.9729C38.9093 60.5877 36.9779 59.0935 35.1473 57.6582C34.3652 57.0437 35.3885 58.1661 34.3828 57.3505C27.5563 51.785 21.403 45.72 15.6726 39.0152C15.2808 38.5554 15.2639 37.8578 14.3398 36.9592C14.1804 36.9719 14.0725 37.0755 13.943 37.1346C13.9244 37.114 13.9057 37.0935 13.8871 37.0729C9.57436 32.1749 5.46591 26.7533 4.66454 19.4901C3.73021 12.0135 9.58969 5.42062 15.7068 2.83171C16.2405 2.59103 15.2182 2.78086 16.2518 2.32486C17.4854 1.80003 18.7203 1.36701 20.086 1.05983C20.785 0.919813 21.4162 0.760823 22.5052 0.806467C22.6907 0.819795 22.8851 0.843008 23.1106 0.895691C23.2235 0.922377 23.3446 0.956815 23.478 1.00637C23.6339 1.06344 23.9373 1.1955 24.2192 1.42233C24.8395 1.81155 25.3609 3.14397 25.0884 3.93507C24.9973 4.32482 24.8167 4.63683 24.7086 4.79664C24.6292 4.91514 24.5504 5.01459 24.4735 5.1028C24.3194 5.27856 24.1729 5.41159 24.0274 5.53132C23.8671 5.66069 23.8243 5.68918 23.7212 5.76258C23.5372 5.89128 23.3465 6.00952 23.1411 6.12675C19.6049 8.04816 16.0825 8.93961 12.3585 9.60555C11.7261 9.70781 11.9801 9.23904 10.1785 9.62999C9.87429 9.70919 7.13501 10.1788 6.44812 10.3378C6.35228 10.3627 6.88143 10.503 5.99001 10.6111C0.842556 11.2208 -4.61386 11.2065 -9.7406 10.5717C-10.5689 10.4673 -9.66319 10.347 -10.2522 10.2694C-14.4045 9.72521 -18.9363 8.98627 -22.7327 7.64582C-25.257 6.733 -24.1965 6.67013 -25.4142 5.87806C-25.5886 5.76903 -27.1244 5.19487 -27.1251 4.96398C-27.135 4.39474 -26.2007 4.13151 -26.2994 3.49143C-26.3195 3.3624 -28.3495 2.69148 -27.0679 2.88859C-26.9776 2.90812 -25.5135 3.3641 -25.1204 3.39385C-24.8495 3.41778 -25.2227 3.05777 -24.6895 3.15417C-24.1558 3.24897 -23.6677 3.60748 -22.7871 3.77934C-21.9093 3.94108 -22.2207 3.60644 -20.5196 4.0614ZM134.19 116.849C132.716 116.532 132.423 117.255 134.068 117.206C134.15 117.203 134.261 116.865 134.19 116.849ZM39.4743 119.091C41.3819 118.91 42.5083 118.111 41.1526 118.21C39.797 118.311 38.8924 119.147 39.4743 119.091ZM20.8015 125.035C22.9787 124.576 22.9784 123.459 20.7946 124.418C20.6677 124.474 20.6743 125.062 20.8015 125.035ZM-19.1292 7.62065C-19.1459 7.60894 -20.2888 7.31205 -20.3177 7.31209C-20.9889 7.38776 -18.6978 7.9852 -19.1292 7.62065ZM2.73641 132.207C3.42201 132.065 5.19261 131.142 4.33175 131.31C3.63529 131.444 1.87824 132.382 2.73641 132.207ZM91.7651 64.2347C91.7756 64.2141 91.805 63.3737 91.7425 63.3889C91.5362 63.4417 91.5702 64.6108 91.7651 64.2347ZM-26.0487 148.292C-22.0507 145.406 -19.1413 144.597 -23.5176 147.464C-24.3092 147.997 -22.002 146.063 -23.039 146.691C-24.948 147.849 -25.8411 149.19 -27.7813 150.34C-28.1435 150.549 -26.2885 148.452 -26.0424 148.286C-26.0445 148.288 -26.0466 148.29 -26.0487 148.292ZM133.405 115.888C133.374 115.878 132.205 115.76 132.179 115.765C131.52 115.941 133.88 116.182 133.405 115.888ZM108.949 20.5164C108.995 20.4897 111.102 18.842 111.176 18.7763C112.042 17.5954 107.746 20.9425 108.949 20.5164ZM135.506 103.176C134.391 103.558 132.726 103.793 131.782 103.608C132.925 103.482 134.364 103.306 135.506 103.176Z" fill="#FFE035"/>
</svg>
