<svg width="19" height="27" viewBox="0 0 19 27" fill="none" xmlns="http://www.w3.org/2000/svg">
<path d="M18.6186 11.4123C17.9026 10.9503 17.3365 10.9413 16.5095 10.7583C15.0725 10.4403 13.9425 9.57825 12.9215 8.56425C10.8865 6.54225 9.19454 3.47625 8.63454 0.645252C8.57854 0.360252 8.30755 0.111251 8.01055 0.105251C7.99455 0.105251 7.97955 0.104252 7.96355 0.104252C7.66355 -0.0947483 7.14355 -0.0177497 7.05755 0.41225C6.62355 2.56625 5.92355 4.84825 4.82955 6.74025C3.63455 8.80925 1.91855 10.1743 0.204552 11.7673C-0.149448 12.0963 -0.0104682 12.6583 0.365532 12.8913C2.65953 14.3093 4.48956 15.0742 6.14956 17.4582C7.87656 19.9382 8.56554 22.6903 9.31954 25.5793C9.49554 26.2523 10.4955 26.1903 10.7445 25.6183C11.6365 23.5693 11.6365 21.3373 12.7365 19.2583C14.1435 16.5983 15.8686 14.1002 18.5796 12.6382C18.9966 12.4132 19.0076 11.6643 18.6186 11.4123ZM12.5546 16.3643C11.7186 17.6553 10.8636 19.1943 10.3296 20.6433C10.1476 21.1373 10.0426 21.6632 9.95556 22.1952C9.26256 19.9602 8.39855 17.8893 6.85455 15.9243C5.35755 14.0193 3.75354 13.2103 1.88753 12.1323C4.72154 9.37325 6.91855 6.56525 7.81655 2.73225C8.19255 3.80925 8.75454 5.13125 8.78854 5.20325C9.38754 6.44525 10.0725 7.61925 10.9455 8.69025C11.8085 9.74825 12.6985 10.7842 13.9145 11.4272C14.6585 11.8202 15.6205 11.9303 16.4785 12.1483C14.9085 13.2653 13.5926 14.7613 12.5546 16.3643Z" fill="#13102F"/>
</svg>
