<svg width="82" height="53" viewBox="0 0 82 53" fill="none" xmlns="http://www.w3.org/2000/svg">
<path d="M20.9129 12.0492C18.9569 7.20721 13.9419 10.3282 11.5099 13.4022C10.0429 8.91621 3.01786 2.79121 0.487858 8.53921C-1.10414 12.1562 1.54385 16.6562 3.50185 19.5432C5.08185 21.8732 7.20786 23.8272 8.97686 26.0092C10.0979 27.3922 11.1389 29.0242 12.4639 30.2142C12.8049 30.5202 13.2859 30.4992 13.5539 30.1042C15.5799 27.1212 18.5429 24.1612 19.6879 20.7252C20.5069 18.2662 21.9579 14.6362 20.9129 12.0492ZM18.7889 18.8512C17.6049 22.5212 15.0519 25.5112 12.8619 28.6752C11.8249 27.5802 10.9089 26.2202 9.98386 25.0812C7.88286 22.4962 5.48685 20.2252 3.78385 17.3412C2.52585 15.2112 -0.587152 9.41421 2.90885 7.97121C6.16385 6.62721 10.2339 11.7502 10.6229 14.7312C10.5599 14.8482 10.5018 14.9642 10.4498 15.0762C10.0998 15.8442 11.3358 16.2872 11.6848 15.5212C12.7688 13.1392 15.0849 10.6222 18.0279 11.1932C21.1509 11.7992 19.2769 17.3392 18.7889 18.8512Z" fill="#13102F"/>
<path d="M49.0389 12.1312C47.9409 9.08423 44.6059 11.4772 43.2819 13.6402C42.6179 11.9462 41.3559 10.3882 39.7419 9.78123C38.0939 9.16123 36.2988 9.66823 35.6048 11.3902C33.0228 17.7982 41.2909 22.8752 44.6509 26.8682C45.0379 27.3282 45.7039 27.0542 45.8039 26.5142C46.2929 23.8892 47.1799 21.2622 48.1129 18.7692C48.8349 16.8422 49.7939 14.2252 49.0389 12.1312Z" fill="#13102F"/>
<path d="M38.3752 39.4813C38.1002 35.1313 32.5332 37.8883 30.5002 40.1523C30.5932 38.2393 30.1172 36.1343 28.3612 35.0213C26.6002 33.9063 24.0652 34.8713 23.0052 36.5103C21.6172 38.6563 22.6402 41.3763 23.7232 43.3663C25.3092 46.2803 26.2582 49.5953 27.9802 52.4163C28.1542 52.7013 28.5662 52.9323 28.8922 52.7183C33.0132 50.0143 38.7242 44.9933 38.3752 39.4813ZM35.7442 43.9263C34.3142 46.5943 31.3762 49.3393 28.8082 51.1433C27.5182 48.8623 26.5682 46.2093 25.4522 43.8643C24.4712 41.8033 23.4542 40.6783 24.1692 38.1693C24.3112 35.6533 25.8442 35.3683 28.7682 37.3153C28.8722 37.4663 28.9762 37.6183 29.0802 37.7693C29.5192 38.5563 29.6152 39.6283 29.6832 40.4953C29.6992 40.7013 29.8242 40.8223 29.9712 40.8643C29.9692 40.8683 29.9662 40.8723 29.9632 40.8763C29.5442 41.6333 30.6862 42.3753 31.0972 41.6093C31.8642 40.1803 33.5272 38.6783 35.2372 38.7193C38.1862 38.7923 36.6052 42.3193 35.7442 43.9263Z" fill="#13102F"/>
<path d="M81.6771 11.4123C80.9611 10.9503 80.3951 10.9413 79.5681 10.7583C78.1311 10.4403 77.0011 9.57725 75.9801 8.56425C73.9451 6.54225 72.2531 3.47625 71.6931 0.645252C71.6361 0.360252 71.3661 0.111252 71.0691 0.105252C71.0531 0.105252 71.0381 0.104251 71.0221 0.104251C70.7221 -0.0947488 70.2021 -0.0177483 70.1161 0.412252C69.6821 2.56625 68.9821 4.84825 67.8881 6.74025C66.6931 8.80925 64.9771 10.1743 63.2641 11.7673C62.9101 12.0963 63.0491 12.6583 63.4251 12.8913C65.7191 14.3093 67.5491 15.0743 69.2091 17.4583C70.9361 19.9383 71.6261 22.6913 72.3791 25.5793C72.5551 26.2523 73.5551 26.1903 73.8041 25.6183C74.6961 23.5693 74.6961 21.3373 75.7961 19.2583C77.2031 16.5983 78.9271 14.1003 81.6391 12.6383C82.0551 12.4133 82.0661 11.6633 81.6771 11.4123ZM75.6131 16.3643C74.7771 17.6553 73.9221 19.1943 73.3881 20.6433C73.2061 21.1373 73.1011 21.6633 73.0141 22.1953C72.3211 19.9603 71.4571 17.8893 69.9131 15.9243C68.4161 14.0193 66.8121 13.2103 64.9461 12.1323C67.7801 9.37325 69.9781 6.56525 70.8751 2.73225C71.2511 3.80925 71.8131 5.13125 71.8471 5.20225C72.4461 6.44425 73.1311 7.61825 74.0041 8.68925C74.8661 9.74725 75.7571 10.7833 76.9731 11.4263C77.7171 11.8193 78.6791 11.9293 79.5361 12.1473C77.9671 13.2653 76.6501 14.7613 75.6131 16.3643Z" fill="#13102F"/>
</svg>
