<svg width="229" height="194" viewBox="0 0 229 194" fill="none" xmlns="http://www.w3.org/2000/svg">
<path d="M111.865 46.7501C112.546 46.7011 116.072 43.8121 115.638 43.6721C115.365 43.5841 113.122 42.1071 112.807 41.8281C112.965 40.3701 113.006 33.7971 112.682 32.0571C112.639 31.8281 112.271 31.8461 112.23 32.0661C111.926 33.7061 112.179 42.2231 112.234 42.2751C112.439 42.6731 114.384 43.9531 114.494 44.0361C114.423 44.1491 112.244 45.8971 111.685 46.2801C111.468 46.4301 111.617 46.7681 111.865 46.7501Z" fill="#13102F"/>
<path d="M90.8642 37.1122C90.0042 36.6782 87.8542 36.2832 87.4282 37.4962C87.3692 37.6642 87.5542 37.8242 87.7062 37.7112C88.6792 36.9882 90.2512 37.4342 91.1162 38.0952C91.4862 38.3782 91.7532 38.6952 91.9672 39.0402C91.7332 38.9362 91.4962 38.8552 91.2892 38.8042C90.3362 38.5682 89.2202 38.5112 88.4202 39.1562C88.2332 39.3072 88.3452 39.6772 88.5982 39.6682C88.8922 39.6582 89.1392 39.4802 89.4262 39.4192C89.8372 39.3302 90.3312 39.3832 90.7492 39.4512C91.2662 39.5342 92.2902 39.8572 92.4912 40.4362C92.5202 40.5192 92.5742 40.5742 92.6382 40.6092C92.7562 40.8892 93.2282 40.8872 93.2242 40.5302C93.2062 39.0752 92.1132 37.7422 90.8642 37.1122Z" fill="#13102F"/>
<path d="M132.774 40.2062C132.775 40.2022 132.776 40.1972 132.777 40.1922C132.796 40.1762 132.82 40.1662 132.834 40.1452C133.434 39.2012 134.477 38.6332 135.554 38.4322C135.914 38.3652 136.447 38.4762 136.764 38.3632C136.85 38.3322 136.896 38.2972 136.954 38.2322C137.637 37.4612 136.246 37.5582 136.092 37.5732C135.374 37.6472 134.502 37.8082 133.906 38.2312C133.839 38.2782 133.768 38.3272 133.695 38.3772C134.576 37.3502 135.924 36.6152 137.096 36.9362C137.206 37.0522 137.379 37.0932 137.544 36.9522L137.596 36.9082C137.807 36.7282 137.755 36.3712 137.487 36.2762C136.278 35.8482 134.99 36.3402 134.037 37.1142C133.194 37.7992 132.131 39.0452 132.329 40.2112C132.365 40.4352 132.741 40.4292 132.774 40.2062Z" fill="#13102F"/>
<path d="M97.1653 31.8622C98.6973 31.4592 100.079 30.7042 101.657 30.3782C103.071 30.0862 104.493 30.1252 105.909 30.3542C106.254 30.4102 106.399 29.9982 106.221 29.7612C106.227 29.6522 106.203 29.5422 106.112 29.4632C104.649 28.2072 102.41 28.2742 100.475 28.9552C99.4803 29.1712 98.5503 29.6512 97.7283 30.5302C97.6543 30.6092 97.6243 30.7012 97.6213 30.7912C97.4553 30.9462 97.2923 31.1082 97.1363 31.2872C97.0833 31.3482 97.0683 31.4152 97.0783 31.4772C97.0583 31.4942 97.0353 31.5092 97.0163 31.5272C96.8923 31.6412 96.9683 31.9132 97.1653 31.8622Z" fill="#13102F"/>
<path d="M117.574 29.9522C118.829 29.9242 120.073 29.6712 121.357 29.7062C122.775 29.7442 125.262 29.8932 126.447 30.7542C126.891 31.0762 127.331 30.4962 127.052 30.1082C127.046 30.0302 127.022 29.9532 126.954 29.8862C124.906 27.8452 119.649 27.0512 117.562 29.3792C117.533 29.4112 117.516 29.4442 117.506 29.4772C117.482 29.4882 117.456 29.4962 117.432 29.5072C117.204 29.6162 117.357 29.9572 117.574 29.9522Z" fill="#13102F"/>
<path d="M157.778 62.4542C157.27 61.6442 156.761 60.8352 156.304 59.9962C155.421 58.3742 154.58 56.3842 154.729 54.4922C154.865 52.7682 155.843 50.9331 156.411 49.2901C158.233 46.7851 155.869 43.5531 153.66 42.2981C151.865 41.2781 149.81 40.7672 147.98 39.8142C145.856 38.7082 144.587 37.3362 143.766 35.0572C143.031 33.0192 142.899 30.7832 142.73 28.6392C142.553 26.3782 142.341 24.1221 142.032 21.8741C141.455 17.6741 140.202 13.6012 137.873 10.0142C136.694 8.19815 135.465 6.50315 133.65 5.29015C131.689 3.98015 129.984 3.65815 127.799 4.14315C127.135 3.60815 126.657 3.02115 125.886 2.56715C124.843 1.95415 123.751 1.41215 122.6 1.01715C120.113 0.164151 117.42 -0.00584901 114.812 0.000150986C109.005 0.012151 102.975 0.77915 97.7345 3.39715C93.1065 5.70915 89.0605 8.79815 86.3675 13.3092C83.7215 17.7432 83.2865 23.3882 82.2355 28.3432C81.5875 31.4022 80.7555 34.4422 80.0305 37.4832C79.7025 38.8602 79.3685 40.2302 78.9385 41.5792C78.6725 42.4152 78.4045 43.2602 78.0395 44.0592C77.9265 44.3072 77.7845 44.5421 77.6405 44.7761C75.5795 47.6111 72.2055 46.6081 69.2225 47.4611C66.7125 48.1781 65.3565 51.1732 65.8025 53.6012C66.0535 54.9682 66.8245 56.1502 67.9245 57.0092C68.4385 57.4102 69.0595 57.7601 69.6535 58.0271C70.1505 58.2511 70.8825 58.5341 71.2985 58.9031C70.3575 59.4471 69.5345 60.1562 68.8955 60.9922C68.0565 61.0942 67.1885 61.1352 66.4725 61.3802C65.0415 61.8682 63.6525 62.6852 62.7295 63.9082C61.2875 65.8182 61.9525 67.8122 64.0735 68.8452C64.5745 69.0892 65.2355 69.1052 65.7005 69.3632C65.9875 69.5232 66.1665 69.6722 66.2715 69.8172C66.1375 69.8022 66.0005 69.8582 65.9375 70.0252C65.7355 70.5562 65.4915 71.1102 65.2475 71.6752C64.9465 72.1002 64.7475 72.5792 64.6775 73.0782C64.0745 74.7122 63.7555 76.3872 64.6935 77.9102C66.0035 80.0362 67.7915 80.7912 70.2185 80.4272C71.4995 80.2352 72.4605 79.6142 73.5425 78.9492C74.4695 78.3792 75.3585 78.1882 76.2875 78.1092C78.6795 80.2492 83.1445 79.7722 85.8635 77.9512C86.5105 77.5172 87.1315 76.9612 87.6995 76.3302C90.2155 77.0482 93.1825 75.6522 95.2915 74.1272C96.3225 73.3812 97.1595 72.2932 97.6655 71.0872C97.6655 71.1812 97.6665 71.2752 97.6665 71.3692C97.6675 71.5442 97.7585 71.6502 97.8765 71.7052C98.0175 73.5162 99.2555 75.2552 100.321 76.6412C101.387 78.0282 102.526 79.2912 104.037 80.2272C107.73 82.5152 111.72 83.7412 116.016 82.5002C118.974 81.6452 122.379 80.0442 124.075 77.3712C125.145 75.6852 125.848 73.7942 126.55 71.9392C126.843 71.1652 126.959 68.5722 127.61 68.1842C128.417 67.7032 130.929 69.2652 131.683 69.6422C134.516 71.0612 137.15 72.8492 140.021 74.1972C143.036 75.6122 146.289 76.5212 149.601 76.8732C151.659 77.0922 153.783 77.0902 155.747 76.4392C157.711 75.7882 159.508 74.4102 160.287 72.4942C161.143 70.3892 160.673 67.9562 159.726 65.8902C159.177 64.6892 158.479 63.5712 157.778 62.4542ZM95.8605 20.2942C104.029 24.8142 114.694 19.6111 119.752 12.6171C120.018 12.2491 120.541 12.7012 120.287 13.0672C115.562 19.8672 103.331 26.3772 95.6465 20.6282C95.4645 20.4912 95.6635 20.1842 95.8605 20.2942ZM125.717 71.9542C125.069 73.7312 124.384 75.5212 123.416 77.1512C121.644 80.1352 118.451 81.3112 115.183 81.9292C111.398 82.6452 108.094 81.5652 104.842 79.7092C103.358 78.8622 102.148 77.6442 101.118 76.3022C100.054 74.9162 98.8095 73.2592 98.4785 71.4822C98.4995 71.4312 98.5135 71.3732 98.5125 71.3082C98.5035 67.3652 98.6225 63.3891 98.5865 59.4301C98.6045 58.4851 98.6015 57.5372 98.5315 56.6072C98.5245 56.4042 98.5145 56.2021 98.5065 55.9991C99.3745 56.9831 100.279 57.9381 101.193 58.9161C104.76 62.7361 108.96 64.6952 114.197 64.5012C116.283 64.4242 118.058 63.3721 119.695 62.1541C121.918 60.5001 123.908 58.4771 125.607 56.2781C125.85 55.9631 126.059 55.6291 126.261 55.2921C126.145 56.6951 126.254 58.2002 126.308 59.6042C126.315 59.9482 126.321 60.2912 126.321 60.6302C126.322 63.0502 126.324 65.4692 126.325 67.8892C126.294 67.9632 126.282 68.0482 126.321 68.1492C126.323 68.1532 126.323 68.1582 126.325 68.1632V68.3512C126.325 68.4762 126.374 68.5742 126.441 68.6532C126.576 69.7242 126.056 71.0242 125.717 71.9542ZM139.867 41.8142C138.961 43.7642 137.555 45.5751 135.131 45.2251C134.289 45.1031 133.303 44.6241 132.644 44.0681C132.243 43.7301 132.099 43.2062 131.666 42.9182C131.139 42.5682 130.66 43.4281 131.186 43.7761C131.011 43.6601 131.367 44.1942 131.553 44.4352C131.248 45.2452 130.695 45.9602 130.365 46.7322C129.914 47.7852 129.529 48.6802 128.867 49.6462C127.856 51.1242 126.732 52.5801 125.847 54.1271C124.603 56.3001 122.805 58.4481 120.91 60.1091C119.089 61.7051 116.792 63.4231 114.298 63.6101C109.278 63.9871 104.86 61.7431 101.587 58.0141C100.06 56.2741 98.3105 54.7742 97.0105 52.8562C96.6295 52.2942 93.1235 46.4971 93.4625 46.4061C93.6545 46.3551 93.7125 46.1481 93.6665 45.9851C93.7535 45.8991 93.8415 45.8132 93.9265 45.7182C94.3355 45.2622 93.6845 44.5602 93.2725 45.0182C90.2185 48.4192 85.6385 45.1292 84.3305 41.7472C83.5225 39.6592 84.1155 37.4802 85.9375 36.1292C87.1865 35.2042 88.4875 35.3072 89.8005 35.6222C90.3565 35.8792 90.9335 36.0491 91.5025 36.0821C91.5265 36.0881 91.5505 36.0952 91.5755 36.1012C91.6295 36.1152 91.6785 36.1062 91.7215 36.0862C92.6045 36.0802 93.4545 35.7232 94.1515 34.8002C96.0075 32.3422 95.9285 28.9542 96.1545 26.0212C98.8465 27.1442 101.645 27.2602 104.57 26.9182C107.897 26.5292 111.164 25.9452 114.291 24.7122C118.781 22.9412 122.467 19.4811 124.744 15.2701C124.49 19.1071 125.177 23.2402 126.503 26.7662C127.186 28.5832 128.207 30.3521 129.402 31.8811C130.263 32.9821 131.37 34.4832 132.762 35.0282C132.267 35.4742 131.881 36.0162 131.678 36.6482C131.569 36.9892 132.112 37.2091 132.265 36.8801C133.044 35.2021 135.456 34.1512 137.174 34.5012C140.425 35.1612 141.077 39.2092 139.867 41.8142Z" fill="#13102F"/>
<path d="M79.8539 187.28C78.3309 187.181 76.3699 187.243 74.8389 187.222C72.9719 187.196 71.1179 186.92 69.2639 186.968C67.6059 187.011 66.1819 186.798 64.5619 186.6C63.4329 186.462 62.4569 186.568 61.4919 187.187C58.5119 189.097 55.1179 190.541 51.7909 191.775C50.1839 192.371 48.2969 192.552 46.5959 192.658C44.9119 192.762 43.1619 192.861 41.4789 192.903C37.4069 193.005 33.8559 191.896 30.0069 190.697C28.1959 190.133 26.1959 189.882 24.4369 189.205C22.6409 188.514 20.9139 187.628 19.1279 186.905C15.6199 185.484 12.3199 183.762 9.60488 181.116C6.95488 178.533 5.12088 174.857 3.58688 171.518C2.88788 169.997 2.42189 168.215 1.88589 166.62C1.19689 164.566 0.915878 162.534 0.974878 160.369C1.08588 156.311 2.29387 152.427 3.78887 148.679C4.36387 147.236 5.27288 145.924 6.00988 144.555C6.96788 142.774 8.39288 141.601 9.67388 140.087C10.6339 138.952 11.7539 137.945 12.6809 136.798C13.7479 135.478 14.7469 134.143 16.0009 132.98C18.2849 130.86 20.0169 128.175 21.8839 125.701C24.2669 122.543 26.5549 119.352 29.1949 116.396C30.2249 115.243 31.4529 114.309 32.4149 113.101C32.8469 112.559 33.2699 112.01 33.7059 111.47C34.3649 110.656 35.1499 110.044 35.8439 109.279C36.9139 108.101 37.8719 106.843 38.9809 105.681C40.3889 104.206 41.7579 102.705 43.1719 101.234C45.9499 98.3452 48.7119 95.4512 51.6569 92.7402C52.9529 91.5472 53.8329 90.0452 55.2449 88.9592C56.7619 87.7922 58.3019 86.5912 59.6679 85.2492C62.5319 82.4372 66.3709 80.6832 69.9979 79.0092C71.9629 78.1022 73.6649 77.0322 75.7939 76.5142C77.3949 76.1242 79.6769 75.1312 81.3329 75.8412C81.3499 76.0972 81.6779 76.3402 81.9669 76.1452C82.0329 76.1002 82.0989 76.0562 82.1649 76.0112C82.3669 75.8742 82.3309 75.5292 82.1389 75.4052C81.1729 74.7842 80.0589 74.7832 78.9489 74.9372C77.3259 75.1622 75.5509 75.6432 73.9989 76.1662C72.3719 76.7132 70.9189 77.7182 69.3559 78.4252C67.3609 79.3272 65.3769 80.3132 63.4649 81.3832C60.4959 83.0462 58.2399 85.6052 55.5819 87.6992C52.8909 89.8202 50.9249 92.5632 48.3419 94.8162C45.4229 97.3622 42.6489 100.358 40.0819 103.255C37.6599 105.99 35.0419 108.52 32.7539 111.349C30.3739 114.292 27.5799 116.853 25.2179 119.838C22.8859 122.784 20.8309 125.95 18.5229 128.905C17.4829 130.237 16.2919 131.552 15.0669 132.711C13.7409 133.965 12.7069 135.469 11.4719 136.795C10.5949 137.737 9.73787 138.701 8.90487 139.689C7.74687 141.064 6.32286 142.114 5.43786 143.717C4.59686 145.24 3.60388 146.718 2.94488 148.33C2.15488 150.26 1.48586 152.265 0.929864 154.274C-0.0411358 157.781 -0.372142 161.748 0.523858 165.308C1.38786 168.74 2.73788 172.107 4.42288 175.208C6.06388 178.227 7.82989 181.149 10.5709 183.305C13.5869 185.677 17.0989 186.991 20.5679 188.574C24.3959 190.321 28.4319 191.198 32.4459 192.441C34.4469 193.061 36.4579 193.686 38.5599 193.837C40.5309 193.979 42.4209 193.618 44.3689 193.588C46.2609 193.558 48.0609 193.512 49.9399 193.194C51.8809 192.865 53.4929 191.934 55.3139 191.251C57.1699 190.556 59.1659 189.843 60.8599 188.797C62.0459 188.064 62.6309 187.363 64.2269 187.485C64.9919 187.544 65.7309 187.783 66.4909 187.874C67.4559 187.989 68.4079 187.882 69.3739 187.873C70.5369 187.862 71.6729 188.053 72.8359 188.096C74.9869 188.174 77.7479 187.855 79.8869 187.992C79.8869 187.992 80.4359 187.318 79.8539 187.28Z" fill="#13102F"/>
<path d="M85.7353 125.416C82.8293 125.469 79.9253 124.932 77.5413 123.914C74.7333 122.715 72.8142 120.732 71.5472 118.354C71.5252 118.323 71.5002 118.297 71.4782 118.265C70.0642 116.223 69.4652 113.777 69.5162 111.316C69.5212 111.09 69.5253 110.859 69.5313 110.625C69.4623 109.542 69.4592 108.455 69.5132 107.381C69.3532 107.286 69.0883 107.351 69.0803 107.578C69.0733 107.793 68.9043 107.988 68.8553 108.208C68.7173 108.816 68.7823 109.5 68.7653 110.117C68.7163 111.964 68.9503 113.387 69.3083 115.172C69.5213 116.233 69.9392 117.325 70.4962 118.357C70.4742 119.065 70.6312 119.824 70.7182 120.486C70.8532 121.509 71.1152 122.543 71.3282 123.554C71.9112 126.323 72.4543 129.092 72.9553 131.878C73.9253 137.271 74.7492 142.681 75.7272 148.076C75.8012 148.484 76.4162 148.476 76.4572 148.053C76.7072 145.508 75.6183 142.786 75.3173 140.26C75.0083 137.663 74.5362 135.07 74.0002 132.51C73.4732 129.993 73.1472 127.432 72.5732 124.926C72.5082 124.643 71.8373 121.855 71.4753 119.916C72.1153 120.778 72.8562 121.543 73.6602 122.134C75.8452 123.741 78.5003 124.826 81.1743 125.195C83.0733 125.457 84.8102 125.623 86.7332 125.581C86.8122 125.579 86.8902 125.569 86.9682 125.564C86.5672 125.527 86.1543 125.479 85.7353 125.416Z" fill="#13102F"/>
<path d="M80.1561 187.536C80.1771 187.442 80.1631 187.365 80.1361 187.296C80.0241 183.566 80.0161 164.97 80.4401 161.499C80.4741 161.221 80.3141 160.986 80.0181 160.978C76.7471 160.884 70.5001 160.668 69.9441 159.773C68.7901 157.914 65.4571 152.837 63.9641 151.247C62.5061 149.694 60.9011 148.138 59.2281 146.813C57.4161 145.379 55.4121 144.492 53.4301 143.338C50.2711 141.499 47.2051 139.333 43.8071 137.969C43.8091 137.917 43.8081 137.865 43.7911 137.808C43.6161 137.235 43.1041 136.74 42.7461 136.262C42.2051 135.54 41.7461 134.763 41.2041 134.045C40.5581 133.19 39.9181 132.318 39.2541 131.475C38.6161 130.665 37.3611 129.541 37.0511 128.534C37.0481 128.538 37.0451 128.542 37.0421 128.545C36.9321 128.071 36.1551 128.178 36.2521 128.737C36.3661 129.395 36.9921 130.048 37.3761 130.575C38.1091 131.582 38.8941 132.558 39.6351 133.56C40.2671 134.413 40.8331 135.295 41.4571 136.15C41.7491 136.55 42.2201 137.002 42.5651 137.47C41.0301 136.855 39.5621 136.142 37.9481 135.667C35.8531 135.049 33.6861 134.911 31.5831 134.337C31.3291 134.268 31.1821 134.624 31.4351 134.726C33.3771 135.509 35.4741 135.627 37.4281 136.291C39.0511 136.843 40.5081 137.59 42.0661 138.26C44.1991 139.177 46.1181 139.886 48.0701 141.21C49.3621 142.086 50.7321 142.867 52.1211 143.597C53.9871 144.577 56.0091 145.551 57.7121 146.792C59.4271 148.042 60.8391 149.586 62.3941 151.012C64.0441 152.525 65.4771 154.226 66.7031 156.097C67.3181 157.036 67.9141 158.031 68.4261 159.03C68.6621 159.489 69.1541 160.107 69.3601 160.64C68.7861 162.583 68.6751 164.586 68.4931 166.609C68.2701 169.077 67.5371 179.769 67.7121 182.597C67.8161 184.277 68.4181 185.725 68.3861 187.385C68.3771 187.858 69.1661 187.894 69.2691 187.428C69.5381 186.217 68.8501 184.755 68.7141 183.498C70.7771 183.381 72.8601 183.682 74.9271 183.527C76.1651 183.434 77.6761 183.558 78.8751 183.277C79.0681 183.232 79.1781 183.057 79.1861 182.888C79.1761 184.463 79.1771 186.037 79.2301 187.607C79.2491 188.161 80.0341 188.08 80.1381 187.608C80.1451 187.584 80.1511 187.56 80.1561 187.536ZM70.7451 160.91C72.3851 161.124 77.9011 161.711 79.5601 161.797C79.4751 162.5 79.4141 163.214 79.3501 163.926C77.5021 163.818 75.6321 163.66 73.8061 163.416C72.3801 163.225 70.9981 163.471 69.5921 163.456C69.6831 162.712 69.3721 160.731 70.7451 160.91ZM69.5161 164.13C70.9451 164.344 72.5521 164.017 73.9811 164.222C75.7251 164.473 77.5101 164.597 79.2741 164.684C79.2021 165.595 79.1521 166.51 79.1141 167.427C77.0841 167.569 75.0211 167.178 72.9841 167.292C72.0081 167.347 71.0361 167.4 70.0521 167.401C69.7541 167.401 69.5011 167.356 69.2681 167.385C69.3321 166.301 69.4041 165.214 69.5161 164.13ZM69.2121 168.293C69.2191 168.173 69.2271 168.052 69.2341 167.931C70.0391 167.843 71.0511 168.092 71.8281 168.064C72.6031 168.036 73.3721 168.006 74.1461 167.986C75.7371 167.945 77.5001 168.366 79.0921 168.136C79.0501 169.459 79.0531 170.777 79.0801 172.088C78.4141 171.991 76.7421 171.971 76.6611 171.965C75.7221 171.902 74.7911 171.722 73.8541 171.664C72.2901 171.567 70.5781 171.614 69.0071 171.787C69.0741 170.624 69.1461 169.46 69.2121 168.293ZM68.8381 175.247C68.8741 174.282 68.9261 173.321 68.9791 172.359C70.5541 172.634 72.1871 172.304 73.7761 172.425C75.5751 172.561 77.3021 172.731 79.0981 172.768C79.1101 173.163 79.1111 173.561 79.1301 173.953C79.1531 174.425 79.1681 174.898 79.1821 175.37C77.5181 175.274 75.8001 175.303 74.1501 175.352C72.4101 175.403 70.5331 175.354 68.8171 175.706C68.8251 175.553 68.8331 175.4 68.8381 175.247ZM68.7991 176.118C70.3701 176.345 72.1101 176.193 73.6831 176.145C75.4881 176.09 77.3751 176.037 79.2001 176.131C79.2141 176.87 79.2141 177.609 79.2141 178.348C78.5061 178.47 77.6051 178.381 76.9071 178.431C75.8961 178.503 74.8871 178.457 73.8731 178.459C72.1201 178.462 70.4001 178.574 68.6611 178.705C68.7031 177.84 68.7561 176.976 68.7991 176.118ZM79.7361 182.419C78.1431 182.296 70.2121 182.194 68.5141 182.629C68.4201 181.384 68.5881 180.419 68.6411 179.156C70.2951 179.599 72.3921 179.222 74.0701 179.239C75.6711 179.254 77.6131 179.467 79.2171 179.171C79.2121 180.407 79.1971 181.643 79.1881 182.878C79.1921 182.71 79.9601 182.436 79.7361 182.419Z" fill="#13102F"/>
<path d="M74.1131 136.144C74.0241 135.688 73.3921 135.797 73.3441 136.217C72.9761 139.448 71.9511 142.078 70.2891 144.865C68.7691 147.412 66.3221 149.638 64.2251 151.704C63.8011 152.122 64.3991 152.826 64.8341 152.409C67.1631 150.174 69.7441 147.78 71.3501 144.952C72.7881 142.417 74.7071 139.176 74.1131 136.144Z" fill="#13102F"/>
<path d="M128.146 64.7521C128.089 64.4311 127.575 64.4631 127.52 64.7691C127.099 67.1341 127.442 69.6351 127.193 72.0271C126.982 74.0641 126.178 76.1271 125.194 77.9021C124.157 79.7711 122.994 81.6751 121.237 82.9851C119.328 84.4081 116.532 85.0971 114.23 85.4581C108.991 86.2791 104.32 83.9331 100.666 80.3091C99.2096 78.8651 97.9816 76.8091 97.3816 74.8401C97.0756 73.8361 96.8676 72.7641 96.6966 71.7281C96.6096 71.1971 96.5266 67.3371 96.4426 67.3591C96.7716 67.2701 96.7286 66.7641 96.3696 66.8171C96.3366 66.8221 96.3046 66.8271 96.2716 66.8321C96.1456 66.8511 96.0546 66.9551 96.0366 67.0771C94.8196 75.0611 99.0966 82.2921 106.482 85.4981C110.191 87.1081 114.587 86.6941 118.301 85.3751C120.213 84.6961 121.754 83.8541 123.156 82.3951C124.332 81.1701 125.197 79.8651 125.987 78.3841C126.915 76.6481 127.742 74.7291 128.048 72.7611C128.225 71.6241 128.158 70.4681 128.246 69.3251C128.36 67.8351 128.408 66.2221 128.146 64.7521Z" fill="#13102F"/>
<path d="M158.225 77.7581C157.295 76.1441 154.527 75.7861 152.883 75.4741C151.374 75.1871 149.85 75.2161 148.344 74.8721C147.085 74.5851 146.324 73.9261 145.166 73.4161C144.782 73.2471 144.926 73.2161 144.507 73.1541C144.277 73.1201 144.081 73.4451 144.334 73.5681C145.224 74.0011 145.844 74.8541 146.789 75.2501C147.751 75.6531 148.894 75.9381 149.915 76.0971C151.338 76.3191 152.662 76.3641 154.071 76.7251C155.065 76.9801 156.818 77.1791 157.384 78.1911C157.681 78.7251 158.53 78.2861 158.225 77.7581Z" fill="#13102F"/>
<path d="M115.186 48.1052C114.812 49.0112 114.823 49.8162 114.2 50.6612C113.379 51.7752 112.074 51.9392 110.831 51.5272C109.226 50.9942 108.611 49.6552 108.284 48.0742C108.225 47.7882 107.798 47.7512 107.752 48.0682C107.459 50.0912 109.046 52.0382 110.949 52.4962C111.965 52.7402 113.246 52.7372 114.106 52.0802C115.423 51.0742 115.429 49.8242 116.003 48.4432C116.221 47.9182 115.404 47.5782 115.186 48.1052Z" fill="#13102F"/>
<path d="M94.0488 45.4131C94.1558 45.2001 93.9308 45.0021 93.7358 45.1451C93.1088 45.6031 93.0848 46.5911 93.0928 47.2941C93.1018 48.2031 93.3058 49.0931 93.7498 49.8781C93.8288 50.0181 94.0738 50.0351 94.1228 49.8561C94.5088 48.4311 93.3128 46.8721 94.0488 45.4131Z" fill="#13102F"/>
<path d="M131.713 43.1421C131.645 42.9001 131.274 42.9381 131.232 43.1751C131.118 43.8071 131.134 44.4751 131.077 45.1171C131.004 45.9341 130.647 46.7101 130.7 47.5371C130.714 47.7551 130.965 47.8371 131.099 47.6591C131.999 46.4671 132.104 44.5361 131.713 43.1421Z" fill="#13102F"/>
<path d="M91.655 42.9572C90.271 43.0852 88.778 43.0592 87.722 41.9632C86.826 41.0332 86.431 39.7372 86.77 38.4902C86.814 38.3292 86.604 38.2602 86.515 38.3832C85.664 39.5472 86.362 41.2742 87.149 42.2562C88.076 43.4122 90.536 44.4342 91.851 43.4372C92.066 43.2722 91.914 42.9332 91.655 42.9572Z" fill="#13102F"/>
<path d="M139.373 38.1192C139.334 38.1292 139.295 38.1392 139.256 38.1492C139.077 38.1962 138.94 38.4412 139.063 38.6082C139.232 38.8382 138.481 40.1412 138.352 40.3702C137.931 41.1172 137.395 41.8912 136.624 42.3192C135.154 43.1352 133.907 42.3182 132.607 41.7292C132.403 41.6372 132.253 41.9322 132.387 42.0782C133.524 43.3182 135.407 43.8172 136.967 43.0052C138.431 42.2432 139.795 40.1872 139.822 38.5172C139.826 38.2872 139.62 38.0552 139.373 38.1192Z" fill="#13102F"/>
<path d="M131.129 43.1701C130.652 44.8021 130.144 46.4011 129.538 47.9901C129.071 49.2151 128.113 50.5511 128.078 51.8881C128.072 52.1201 128.405 52.1921 128.534 52.0291C128.917 51.5471 129.013 50.9891 129.249 50.4251C129.594 49.5991 130.012 48.8191 130.323 47.9731C130.898 46.4061 131.497 44.8971 131.608 43.2141C131.626 42.9261 131.201 42.9221 131.129 43.1701Z" fill="#13102F"/>
<path d="M156.394 134.94C155.534 135.765 154.616 136.623 153.456 136.895C152.296 137.168 150.848 136.592 150.612 135.424C150.337 134.061 151.755 132.97 153.065 132.503C151.06 128.929 149.026 125.316 146.214 122.336C143.401 119.356 139.683 117.028 135.598 116.707C132.534 116.466 129.304 117.562 127.169 119.7C125.626 118.317 124.045 117.116 122.08 116.832C118.796 116.355 115.893 118.774 114.582 121.22C113.211 123.778 112.935 126.698 112.755 129.715C112.251 138.132 112.221 146.644 112.648 155.088H112.11C112.452 149.744 111.856 144.434 110.331 139.291C109.895 137.818 109.266 135.999 108.259 134.311C108.336 133.497 108.324 132.681 108.204 131.881C108.933 128.858 107.343 125.552 104.797 123.742C104.774 123.725 104.749 123.711 104.725 123.694C104.793 119.079 105.558 115.07 107.038 111.464C107.102 111.307 107.202 111.109 107.318 110.892C110.304 112.8 113.602 114.055 116.52 114.325C121.373 114.774 126.184 113.365 130.852 111.967C129.235 109.363 127.618 106.76 126.002 104.156C128.849 105.611 131.818 106.827 134.868 107.787C135.398 107.954 135.959 108.114 136.501 107.995C137.128 107.857 137.612 107.373 138.057 106.911C140.225 104.663 142.393 102.415 144.561 100.167C142.759 98.8719 141.081 97.4039 139.558 95.7899C142.353 95.6959 145.147 95.6019 147.942 95.5079C148.135 90.0779 148.801 84.6639 149.933 79.3499C137.326 77.9049 124.083 76.5399 112.347 81.3679C111.568 81.6889 110.67 82.2319 110.714 83.0739C112.089 84.5239 111.472 87.3069 109.612 88.0399C107.752 88.7729 105.403 87.1589 105.419 85.1609C101.319 87.7209 98.36 92.2439 98.212 97.0749C98.057 102.112 101.665 106.918 106.266 110.182C106.11 110.476 105.973 110.751 105.876 110.987C104.413 114.552 103.623 118.484 103.487 122.959C101.106 121.763 98.285 121.48 95.616 121.797C92.437 122.174 89.408 123.321 86.416 124.458C86.967 125.394 87.27 126.759 86.423 127.438C85.697 128.02 84.54 127.639 83.982 126.895C83.423 126.151 83.303 125.176 83.201 124.251C76.771 126.345 70.836 129.939 66 134.666C68.713 136.211 71.425 137.757 74.138 139.302C74.902 139.737 75.678 140.178 76.531 140.394C78.879 140.99 81.272 139.806 83.406 138.659C82.349 140.289 81.291 141.919 80.234 143.55C82.587 144.877 85.181 145.773 87.851 146.182C88.41 146.268 89.014 146.325 89.513 146.059C89.891 145.857 90.155 145.497 90.405 145.149C91.409 143.753 92.412 142.356 93.416 140.96C93.387 143.062 93.014 145.16 92.314 147.142C96.859 146.524 101.472 145.007 104.712 141.76C105.012 141.459 105.296 141.14 105.565 140.807C105.814 141.987 106.069 143.161 106.322 144.317C107.093 147.843 107.88 151.456 108.429 155.088H98.21L104.961 189.807H120.392L126.661 155.088H113.906C113.477 146.669 113.506 138.182 114.009 129.79C114.181 126.919 114.439 124.148 115.69 121.814C116.801 119.742 119.212 117.69 121.9 118.076C123.535 118.312 124.946 119.394 126.342 120.647C126.049 121.04 125.79 121.46 125.57 121.904C122.181 124.91 120.483 129.862 120.891 134.476C121.409 140.325 124.694 145.602 128.65 149.941C129.591 147.419 130.946 145.052 132.644 142.964C132.483 145.159 132.323 147.355 132.162 149.551C132.122 150.098 132.085 150.668 132.291 151.177C132.563 151.848 133.203 152.287 133.822 152.662C136.78 154.452 140.064 155.702 143.464 156.33C143.764 153.861 144.064 151.392 144.364 148.922C145.518 151.8 146.897 154.928 149.692 156.271C150.707 156.759 151.831 156.963 152.939 157.163C156.872 157.873 160.806 158.582 164.739 159.291C163.869 150.679 160.989 142.276 156.394 134.94ZM107.547 144.047C107.212 142.516 106.872 140.956 106.55 139.389C107.132 138.422 107.587 137.378 107.887 136.3C108.434 137.468 108.827 138.643 109.125 139.647C110.615 144.673 111.184 149.864 110.84 155.087H109.699C109.143 151.353 108.336 147.655 107.547 144.047Z" fill="#13102F"/>
<path d="M79.9338 165.842C86.0088 166.4 92.1688 166.029 98.1328 164.747C101.524 164.018 104.865 162.994 108.316 162.652C108.644 164.194 107.221 165.527 105.857 166.318C103.794 167.514 101.509 168.323 99.1538 168.692C104.188 169.197 109.299 168.926 114.251 167.891C114.617 169.351 113.411 170.725 112.177 171.588C107.753 174.682 102.058 175.114 96.6698 175.444C102.526 176.071 108.448 174.693 113.907 172.48C113.814 173.541 113.413 174.573 112.766 175.418C111.743 176.756 110.183 177.567 108.622 178.198C104.682 179.79 100.436 180.496 96.2018 180.857C101.739 181.077 107.302 180.631 112.733 179.53C112.227 181.124 110.475 181.919 108.882 182.431C104.969 183.689 100.876 184.387 96.7658 184.497C100.367 185.177 104.099 185.158 107.693 184.442C107.11 185.285 106.036 185.615 105.032 185.821C100.922 186.665 96.6498 186.372 92.5278 185.587C88.4058 184.803 84.3938 183.538 80.3478 182.429C80.0918 182.359 79.6708 182.465 79.7848 182.705" fill="white"/>
<path d="M79.9338 165.842C86.0088 166.4 92.1688 166.029 98.1328 164.747C101.524 164.018 104.865 162.994 108.316 162.652C108.644 164.194 107.221 165.527 105.857 166.318C103.794 167.514 101.509 168.323 99.1538 168.692C104.188 169.197 109.299 168.926 114.251 167.891C114.617 169.351 113.411 170.725 112.177 171.588C107.753 174.682 102.058 175.114 96.6698 175.444C102.526 176.071 108.448 174.693 113.907 172.48C113.814 173.541 113.413 174.573 112.766 175.418C111.743 176.756 110.183 177.567 108.622 178.198C104.682 179.79 100.436 180.496 96.2018 180.857C101.739 181.077 107.302 180.631 112.733 179.53C112.227 181.124 110.475 181.919 108.882 182.431C104.969 183.689 100.876 184.387 96.7658 184.497C100.367 185.177 104.099 185.158 107.693 184.442C107.11 185.285 106.036 185.615 105.032 185.821C100.922 186.665 96.6498 186.372 92.5278 185.587C88.4058 184.803 84.3938 183.538 80.3478 182.429C80.0918 182.359 79.6708 182.465 79.7848 182.705" stroke="#13102F" stroke-width="0.6735" stroke-miterlimit="10"/>
<path d="M148.78 187.28C150.303 187.181 152.264 187.243 153.795 187.222C155.662 187.196 157.516 186.92 159.37 186.968C161.028 187.011 162.452 186.798 164.072 186.6C165.201 186.462 166.177 186.568 167.142 187.187C170.122 189.097 173.516 190.541 176.843 191.775C178.45 192.371 180.337 192.552 182.038 192.658C183.722 192.762 185.472 192.861 187.155 192.903C191.227 193.005 194.778 191.896 198.627 190.697C200.438 190.133 202.438 189.882 204.197 189.205C205.993 188.514 207.72 187.628 209.506 186.905C213.014 185.484 216.314 183.762 219.029 181.116C221.679 178.533 223.513 174.857 225.047 171.518C225.746 169.997 226.212 168.215 226.748 166.62C227.437 164.566 227.718 162.534 227.659 160.369C227.548 156.311 226.34 152.427 224.845 148.679C224.27 147.236 223.361 145.924 222.624 144.555C221.666 142.774 220.241 141.601 218.96 140.087C218 138.952 216.88 137.945 215.953 136.798C214.886 135.478 213.887 134.143 212.633 132.98C210.349 130.86 208.617 128.175 206.75 125.701C204.367 122.543 202.079 119.352 199.439 116.396C198.409 115.243 197.181 114.309 196.219 113.101C195.787 112.559 195.364 112.01 194.928 111.47C194.269 110.656 193.484 110.044 192.79 109.279C191.72 108.101 190.761 106.843 189.652 105.681C188.244 104.206 186.875 102.705 185.461 101.234C182.683 98.3452 179.921 95.4512 176.976 92.7402C175.68 91.5472 174.8 90.0452 173.388 88.9592C171.871 87.7922 170.331 86.5912 168.965 85.2492C166.101 82.4372 162.262 80.6832 158.635 79.0092C156.67 78.1022 154.968 77.0322 152.839 76.5142C151.238 76.1242 148.956 75.1312 147.3 75.8412C147.283 76.0972 146.955 76.3402 146.666 76.1452C146.6 76.1002 146.534 76.0562 146.468 76.0112C146.266 75.8742 146.302 75.5292 146.494 75.4052C147.46 74.7842 148.574 74.7832 149.684 74.9372C151.307 75.1622 153.082 75.6432 154.634 76.1662C156.261 76.7132 157.714 77.7182 159.277 78.4252C161.272 79.3272 163.256 80.3132 165.168 81.3832C168.137 83.0462 170.393 85.6052 173.051 87.6992C175.742 89.8202 177.708 92.5632 180.291 94.8162C183.21 97.3622 185.984 100.358 188.551 103.255C190.973 105.99 193.591 108.52 195.879 111.349C198.259 114.292 201.053 116.853 203.415 119.838C205.747 122.784 207.802 125.95 210.11 128.905C211.15 130.237 212.341 131.552 213.566 132.711C214.892 133.965 215.926 135.469 217.161 136.795C218.038 137.737 218.895 138.701 219.728 139.689C220.886 141.064 222.31 142.114 223.195 143.717C224.036 145.24 225.029 146.718 225.688 148.33C226.478 150.26 227.147 152.265 227.703 154.274C228.674 157.781 229.005 161.748 228.109 165.308C227.245 168.74 225.895 172.107 224.21 175.208C222.57 178.227 220.803 181.149 218.062 183.305C215.046 185.677 211.534 186.991 208.064 188.574C204.236 190.321 200.2 191.198 196.186 192.441C194.185 193.061 192.174 193.686 190.072 193.837C188.101 193.979 186.211 193.618 184.263 193.588C182.371 193.558 180.571 193.512 178.692 193.194C176.751 192.865 175.139 191.934 173.318 191.251C171.462 190.556 169.466 189.843 167.772 188.797C166.586 188.064 166.001 187.363 164.405 187.485C163.64 187.544 162.901 187.783 162.141 187.874C161.176 187.989 160.224 187.882 159.258 187.873C158.095 187.862 156.959 188.053 155.796 188.096C153.645 188.174 150.884 187.855 148.745 187.992C148.745 187.992 148.198 187.318 148.78 187.28Z" fill="#13102F"/>
<path d="M142.899 125.416C145.805 125.469 148.709 124.932 151.093 123.914C153.901 122.715 155.82 120.732 157.087 118.354C157.109 118.323 157.134 118.297 157.156 118.265C158.57 116.223 159.169 113.777 159.118 111.316C159.113 111.09 159.109 110.859 159.103 110.625C159.172 109.542 159.175 108.455 159.121 107.381C159.281 107.286 159.546 107.351 159.554 107.578C159.561 107.793 159.729 107.988 159.779 108.208C159.917 108.816 159.852 109.5 159.869 110.117C159.918 111.964 159.684 113.387 159.326 115.172C159.113 116.233 158.695 117.325 158.138 118.357C158.16 119.065 158.003 119.824 157.916 120.486C157.781 121.509 157.519 122.543 157.306 123.554C156.723 126.323 156.18 129.092 155.679 131.878C154.709 137.271 153.885 142.681 152.907 148.076C152.833 148.484 152.219 148.476 152.177 148.053C151.927 145.508 153.016 142.786 153.317 140.26C153.626 137.663 154.097 135.07 154.634 132.51C155.161 129.993 155.487 127.432 156.061 124.926C156.126 124.643 156.797 121.855 157.159 119.916C156.519 120.778 155.778 121.543 154.974 122.134C152.789 123.741 150.134 124.826 147.46 125.195C145.561 125.457 143.824 125.623 141.901 125.581C141.822 125.579 141.744 125.569 141.666 125.564C142.067 125.527 142.48 125.479 142.899 125.416Z" fill="#13102F"/>
<path d="M148.494 187.608C148.598 188.08 149.383 188.161 149.402 187.607C149.455 186.036 149.456 184.462 149.446 182.888C149.454 183.057 149.565 183.232 149.757 183.277C150.956 183.558 152.468 183.434 153.705 183.527C155.771 183.682 157.855 183.381 159.918 183.498C159.782 184.755 159.094 186.217 159.363 187.428C159.466 187.894 160.255 187.857 160.246 187.385C160.213 185.726 160.816 184.277 160.92 182.597C161.095 179.768 160.362 169.077 160.139 166.609C159.956 164.586 159.846 162.582 159.272 160.64C159.479 160.107 159.97 159.49 160.206 159.03C160.719 158.032 161.314 157.036 161.93 156.097C163.156 154.226 164.589 152.525 166.239 151.012C167.794 149.585 169.206 148.042 170.921 146.792C172.624 145.55 174.646 144.577 176.512 143.597C177.901 142.867 179.271 142.087 180.563 141.21C182.515 139.887 184.434 139.177 186.566 138.26C188.124 137.59 189.581 136.843 191.204 136.291C193.158 135.626 195.255 135.509 197.197 134.726C197.45 134.624 197.303 134.268 197.049 134.337C194.947 134.912 192.779 135.05 190.684 135.667C189.07 136.143 187.601 136.855 186.067 137.47C186.412 137.003 186.883 136.551 187.175 136.15C187.799 135.295 188.365 134.414 188.997 133.56C189.739 132.558 190.523 131.582 191.256 130.575C191.64 130.048 192.266 129.395 192.38 128.737C192.477 128.178 191.7 128.071 191.59 128.545C191.587 128.541 191.584 128.537 191.581 128.534C191.271 129.541 190.016 130.665 189.378 131.475C188.714 132.318 188.074 133.189 187.428 134.045C186.886 134.763 186.427 135.539 185.886 136.262C185.528 136.74 185.017 137.236 184.841 137.808C184.824 137.865 184.823 137.917 184.825 137.969C181.427 139.333 178.361 141.498 175.202 143.338C173.22 144.492 171.215 145.38 169.404 146.813C167.731 148.137 166.126 149.694 164.668 151.247C163.175 152.838 159.842 157.914 158.688 159.773C158.133 160.668 151.885 160.884 148.614 160.978C148.319 160.986 148.158 161.221 148.192 161.499C148.616 164.97 148.608 183.566 148.496 187.296C148.469 187.365 148.455 187.441 148.476 187.536C148.483 187.56 148.489 187.584 148.494 187.608ZM159.043 163.456C157.637 163.471 156.256 163.225 154.829 163.416C153.003 163.66 151.134 163.818 149.285 163.926C149.221 163.214 149.16 162.5 149.075 161.797C150.734 161.711 156.25 161.124 157.89 160.91C159.262 160.731 158.951 162.712 159.043 163.456ZM159.366 167.385C159.132 167.357 158.88 167.402 158.581 167.401C157.597 167.4 156.625 167.347 155.649 167.292C153.612 167.177 151.549 167.568 149.519 167.427C149.481 166.511 149.431 165.595 149.359 164.684C151.123 164.598 152.907 164.473 154.651 164.222C156.08 164.017 157.687 164.344 159.116 164.13C159.23 165.214 159.302 166.301 159.366 167.385ZM159.627 171.788C158.057 171.615 156.345 171.568 154.78 171.665C153.843 171.723 152.913 171.904 151.973 171.966C151.892 171.971 150.22 171.992 149.554 172.089C149.581 170.778 149.584 169.459 149.542 168.137C151.134 168.366 152.897 167.946 154.488 167.987C155.261 168.007 156.031 168.037 156.806 168.065C157.583 168.094 158.595 167.844 159.4 167.932C159.407 168.052 159.415 168.174 159.422 168.294C159.488 169.46 159.56 170.624 159.627 171.788ZM159.816 175.706C158.101 175.355 156.223 175.404 154.484 175.352C152.834 175.303 151.117 175.274 149.453 175.37C149.467 174.897 149.482 174.425 149.505 173.953C149.524 173.561 149.525 173.163 149.537 172.768C151.333 172.73 153.06 172.561 154.859 172.425C156.448 172.304 158.081 172.634 159.656 172.359C159.709 173.321 159.761 174.282 159.797 175.247C159.801 175.4 159.81 175.553 159.816 175.706ZM159.973 178.705C158.234 178.574 156.514 178.463 154.761 178.459C153.747 178.457 152.739 178.503 151.727 178.431C151.029 178.382 150.128 178.47 149.42 178.348C149.42 177.609 149.42 176.87 149.434 176.131C151.258 176.037 153.146 176.09 154.951 176.145C156.524 176.192 158.264 176.345 159.835 176.118C159.878 176.976 159.931 177.84 159.973 178.705ZM149.446 182.878C149.438 181.643 149.423 180.407 149.417 179.171C151.02 179.467 152.962 179.254 154.564 179.239C156.242 179.223 158.339 179.6 159.993 179.156C160.046 180.42 160.214 181.384 160.12 182.629C158.422 182.194 150.491 182.296 148.898 182.419C148.674 182.436 149.442 182.71 149.446 182.878Z" fill="#13102F"/>
<path d="M154.521 136.144C154.61 135.688 155.242 135.797 155.29 136.217C155.658 139.448 156.682 142.078 158.345 144.865C159.865 147.412 162.312 149.638 164.409 151.704C164.833 152.122 164.235 152.826 163.801 152.409C161.472 150.174 158.891 147.78 157.285 144.952C155.846 142.417 153.927 139.176 154.521 136.144Z" fill="#13102F"/>
<path d="M140.863 172.453C134.788 173.011 128.628 172.64 122.664 171.358C119.273 170.629 115.932 169.605 112.481 169.263C112.152 170.805 113.576 172.138 114.94 172.929C117.003 174.125 119.288 174.934 121.643 175.303C116.609 175.808 111.498 175.537 106.546 174.502C106.18 175.962 107.386 177.336 108.62 178.199C113.044 181.293 118.739 181.725 124.127 182.056C118.271 182.683 112.349 181.304 106.89 179.092C106.984 180.153 107.384 181.185 108.031 182.03C109.054 183.368 110.614 184.179 112.175 184.81C116.115 186.402 120.361 187.108 124.595 187.469C119.058 187.689 113.495 187.243 108.064 186.142C108.57 187.736 110.323 188.531 111.915 189.043C115.829 190.301 119.922 190.999 124.031 191.109C120.43 191.789 116.698 191.77 113.104 191.054C113.687 191.897 114.761 192.227 115.765 192.433C119.875 193.277 124.147 192.984 128.269 192.199C132.391 191.415 136.403 190.15 140.449 189.041C140.705 188.971 141.126 189.077 141.013 189.317" fill="white"/>
<path d="M140.863 172.453C134.788 173.011 128.628 172.64 122.664 171.358C119.273 170.629 115.932 169.605 112.481 169.263C112.152 170.805 113.576 172.138 114.94 172.929C117.003 174.125 119.288 174.934 121.643 175.303C116.609 175.808 111.498 175.537 106.546 174.502C106.18 175.962 107.386 177.336 108.62 178.199C113.044 181.293 118.739 181.725 124.127 182.056C118.271 182.683 112.349 181.304 106.89 179.092C106.984 180.153 107.384 181.185 108.031 182.03C109.054 183.368 110.614 184.179 112.175 184.81C116.115 186.402 120.361 187.108 124.595 187.469C119.058 187.689 113.495 187.243 108.064 186.142C108.57 187.736 110.323 188.531 111.915 189.043C115.829 190.301 119.922 190.999 124.031 191.109C120.43 191.789 116.698 191.77 113.104 191.054C113.687 191.897 114.761 192.227 115.765 192.433C119.875 193.277 124.147 192.984 128.269 192.199C132.391 191.415 136.403 190.15 140.449 189.041C140.705 188.971 141.126 189.077 141.013 189.317" stroke="#13102F" stroke-width="0.6735" stroke-miterlimit="10"/>
<path d="M107.157 36.4442C106.305 35.1802 103.978 34.2912 102.55 33.9762C100.928 33.6192 99.1451 33.8242 97.6981 34.6632C97.5211 34.7662 97.6122 34.9822 97.7562 35.0302C97.7552 35.0322 97.7541 35.0342 97.7531 35.0362C97.7601 35.0372 97.7651 35.0362 97.7721 35.0362C97.7881 35.0402 97.8042 35.0382 97.8212 35.0372C98.1422 35.0612 98.3261 34.9502 98.6551 34.8462C99.6061 34.5442 100.622 34.4022 101.618 34.4952C102.627 34.5892 103.527 34.9382 104.408 35.4182C104.768 35.6142 105.297 35.8452 105.755 36.1202C103.6 35.8172 101.477 35.4722 99.4892 36.8132C99.1262 37.0582 99.4251 37.6562 99.8161 37.4252C102.143 36.0492 104.377 36.7032 106.844 36.9642C107.099 36.9922 107.298 36.6542 107.157 36.4442Z" fill="#13102F"/>
<path d="M117.475 36.4442C118.327 35.1802 120.654 34.2912 122.082 33.9762C123.704 33.6192 125.487 33.8242 126.934 34.6632C127.111 34.7662 127.02 34.9822 126.876 35.0302C126.877 35.0322 126.878 35.0342 126.879 35.0362C126.872 35.0372 126.867 35.0362 126.86 35.0362C126.844 35.0402 126.827 35.0382 126.811 35.0372C126.49 35.0612 126.305 34.9502 125.977 34.8462C125.026 34.5442 124.01 34.4022 123.014 34.4952C122.005 34.5892 121.105 34.9382 120.224 35.4182C119.864 35.6142 119.335 35.8452 118.877 36.1202C121.032 35.8172 123.155 35.4722 125.143 36.8132C125.506 37.0582 125.207 37.6562 124.816 37.4252C122.489 36.0492 120.255 36.7032 117.788 36.9642C117.533 36.9922 117.333 36.6542 117.475 36.4442Z" fill="#13102F"/>
</svg>
